<svg width="36" height="36" viewBox="0 0 36 36" fill="none" xmlns="http://www.w3.org/2000/svg">
<path d="M35.6524 17.8327C35.6524 26.839 28.9784 34.2848 20.3082 35.493C19.4975 35.6055 18.6681 35.6642 17.8262 35.6642C16.8544 35.6642 15.9001 35.5867 14.9707 35.4368C6.48294 34.0699 0 26.7078 0 17.8327C0 7.98424 7.98189 0 17.8275 0C27.6731 0 35.6549 7.98424 35.6549 17.8327H35.6524Z" fill="#383D38"/>
<path d="M20.3081 14.3192V18.2039H25.1122L24.3515 23.4367H20.3081V35.493C19.4974 35.6055 18.668 35.6642 17.8261 35.6642C16.8543 35.6642 15.9 35.5868 14.9706 35.4368V23.4367H10.54V18.2039H14.9706V13.4508C14.9706 10.502 17.3602 8.11047 20.3094 8.11047V8.11298C20.3181 8.11298 20.3256 8.11047 20.3343 8.11047H25.1135V12.6361H21.9907C21.0626 12.6361 20.3094 13.3896 20.3094 14.3179L20.3081 14.3192Z" fill="white"/>
</svg>
