<svg width="36" height="36" viewBox="0 0 36 36" fill="none" xmlns="http://www.w3.org/2000/svg">
<path d="M17.9797 0H17.8986C8.07548 0 0.112305 7.96552 0.112305 17.7915V17.8727C0.112305 27.6987 8.07548 35.6642 17.8986 35.6642H17.9797C27.8028 35.6642 35.766 27.6987 35.766 17.8727V17.7915C35.766 7.96552 27.8028 0 17.9797 0Z" fill="#383D38"/>
<path d="M23.4562 7.25574H12.424C9.37611 7.25574 6.89661 9.73598 6.89661 12.7847V22.8806C6.89661 25.9294 9.37611 28.4096 12.424 28.4096H23.4562C26.5041 28.4096 28.9836 25.9294 28.9836 22.8806V12.7847C28.9836 9.73598 26.5041 7.25574 23.4562 7.25574ZM8.84649 12.7847C8.84649 10.8118 10.4516 9.20619 12.424 9.20619H23.4562C25.4286 9.20619 27.0337 10.8118 27.0337 12.7847V22.8806C27.0337 24.8536 25.4286 26.4592 23.4562 26.4592H12.424C10.4516 26.4592 8.84649 24.8536 8.84649 22.8806V12.7847Z" fill="white"/>
<path d="M17.9399 22.9743C20.7742 22.9743 23.0813 20.6677 23.0813 17.8314C23.0813 14.995 20.7754 12.6885 17.9399 12.6885C15.1044 12.6885 12.7985 14.995 12.7985 17.8314C12.7985 20.6677 15.1044 22.9743 17.9399 22.9743ZM17.9399 14.6402C19.6999 14.6402 21.1314 16.0721 21.1314 17.8326C21.1314 19.5932 19.6999 21.0251 17.9399 21.0251C16.1799 21.0251 14.7484 19.5932 14.7484 17.8326C14.7484 16.0721 16.1799 14.6402 17.9399 14.6402Z" fill="white"/>
<path d="M23.5569 13.5194C24.3201 13.5194 24.9422 12.8984 24.9422 12.1337C24.9422 11.369 24.3214 10.748 23.5569 10.748C22.7924 10.748 22.1716 11.369 22.1716 12.1337C22.1716 12.8984 22.7924 13.5194 23.5569 13.5194Z" fill="white"/>
</svg>
