<svg width="229" height="246" viewBox="0 0 229 246" fill="none" xmlns="http://www.w3.org/2000/svg">
<g clip-path="url(#clip0_66_2)">
<path d="M161.92 210.87C161.92 215.239 158.825 218.976 155.02 219.195L7.93556 227.802C3.56881 228.057 0 224.444 0 219.74V8.20254C0 3.50795 3.56881 -0.166842 7.93556 0.00898529L155.02 5.98711C158.834 6.14536 161.92 9.82015 161.92 14.1895V210.87Z" fill="url(#paint0_linear_66_2)"/>
<path d="M166.243 210.87C166.243 215.239 163.148 218.975 159.342 219.195L12.2585 227.802C7.89171 228.057 4.32291 224.444 4.32291 219.74V8.20242C4.32291 3.49904 7.89171 -0.175753 12.2585 7.40504e-05L159.342 5.9782C163.157 6.13645 166.243 9.81124 166.243 14.1805V210.87Z" fill="url(#paint1_linear_66_2)"/>
<path d="M8.01447 8.34298V219.538C8.01447 222.052 9.90848 223.978 12.2497 223.846L128.574 217.235L159.334 215.485C161.377 215.371 163.034 213.375 163.034 211.037V14.0662C163.034 11.7277 161.377 9.75839 159.334 9.67927L127.469 8.43969L12.2497 3.95609C9.91724 3.86818 8.01447 5.82865 8.01447 8.34298Z" fill="url(#paint2_linear_66_2)"/>
<path d="M160.991 201.938C160.991 202.808 160.298 203.555 159.439 203.599L12.1357 211.151C11.1536 211.204 10.3557 210.483 10.3557 209.551V8.35187C10.3557 7.41998 11.1536 6.6903 12.1357 6.72546L159.439 12.2816C160.298 12.3168 160.991 13.0465 160.991 13.9168V201.938Z" fill="url(#paint3_linear_66_2)"/>
<path d="M103.083 215.028L73.1737 216.681C71.5778 216.769 70.2801 215.661 70.2801 214.201V214.096C70.2801 212.637 71.5778 211.388 73.1737 211.3L103.083 209.727C104.635 209.648 105.898 210.746 105.898 212.179V212.285C105.889 213.709 104.635 214.94 103.083 215.028Z" fill="url(#paint4_linear_66_2)"/>
<path d="M89.7551 6.97157C89.7551 7.74521 89.0711 8.35181 88.2206 8.31665C87.37 8.28148 86.6861 7.63092 86.6861 6.84849C86.6861 6.07485 87.37 5.46824 88.2206 5.50341C89.0711 5.53857 89.7551 6.19793 89.7551 6.97157Z" fill="white"/>
<g opacity="0.3">
<path d="M127.311 197.023C126.715 184.135 141.007 176.575 139.631 158.394C139.508 156.75 138.228 142.684 126.934 133.145C116.789 124.583 108.266 127.8 89.492 120.969C76.3304 116.178 61.5378 110.798 55.5577 100.002C43.6763 78.5509 77.6282 57.1264 70.6747 29.3632C68.6842 21.407 63.0636 11.6574 48.2096 1.46823L12.2497 0.00886311C7.88296 -0.166964 4.31415 3.50783 4.31415 8.21121V219.749C4.31415 224.452 7.88296 228.066 12.2497 227.811L146.26 219.969C131.993 211.687 127.618 203.74 127.311 197.023Z" fill="white"/>
</g>
<path d="M150.004 31.5874L21.6759 27.9478C20.3343 27.9126 19.2733 28.9148 19.2733 30.1896V197.331C19.2733 198.606 20.3957 199.626 21.7285 199.617L149.986 193.401C151.196 193.393 152.082 192.399 152.082 191.195V33.838C152.082 32.6336 151.214 31.6226 150.004 31.5874Z" fill="#F4F7FA"/>
<path d="M65.5188 21.5652C65.5188 22.84 64.4665 23.8422 63.1776 23.7982L21.6145 22.5059C20.2729 22.4619 19.1856 21.3806 19.1856 20.0795C19.1856 18.7784 20.2729 17.7674 21.6145 17.8113L63.1776 19.174C64.4753 19.2179 65.5188 20.2905 65.5188 21.5652Z" fill="white"/>
<path d="M105.197 58.6823C105.197 58.6823 111.773 61.1879 115.754 59.1131C119.735 57.0383 128.626 55.5174 135.501 58.6823C142.375 61.8472 145.015 62.7527 145.015 62.7527C145.015 62.7527 137.544 58.7351 136.877 53.6361C136.211 48.5371 135.808 43.1656 133.151 40.3523C130.485 37.5391 127.741 38.049 125.671 39.5699C123.602 41.0908 119.673 39.7633 119.331 37.1083C118.99 34.4533 121.927 32.0093 123.891 31.2357C125.855 30.462 132.958 36.2116 135.58 37.6973C138.201 39.1831 154.906 49.4426 161.166 64.1066C161.166 64.1066 166.121 68.6693 161.798 73.7507C161.798 73.7507 152.731 93.6104 139.306 94.6566C125.882 95.7028 115.447 104.556 113.956 108.398C112.466 112.239 105.197 58.6823 105.197 58.6823Z" fill="url(#paint5_linear_66_2)"/>
<path opacity="0.3" d="M161.815 64.8187C161.692 65.7242 161.386 66.4188 160.824 66.832C159.22 67.9924 157.089 65.6275 153.687 65.8561C147.216 66.2869 146.909 75.3596 140.297 77.8915C134.37 80.1597 130.24 74.5508 116.122 70.7441C112.606 69.7946 109.379 69.2056 106.617 68.8364C108.809 84.1597 112.887 111.176 113.956 108.398C115.447 104.547 125.882 95.7028 139.306 94.6566C152.731 93.6104 161.798 73.7508 161.798 73.7508C165.095 69.8738 162.999 66.3045 161.815 64.8187Z" fill="url(#paint6_linear_66_2)"/>
<path d="M50.5333 70.533C50.5333 70.533 70.3941 55.7372 109.353 58.2867C111.177 61.8647 112.58 64.8362 113.509 66.8319C122.339 85.8476 123.882 95.1401 124.408 99.061C124.408 99.061 124.689 99.9665 124.636 100.978C124.479 104.072 117.245 149.312 111.764 160.574C111.764 160.574 90.5706 177.366 67.5969 164.68C67.5969 164.68 69.298 152.442 67.6671 142.385C66.0449 132.336 55.505 105.171 55.505 105.171C55.505 105.171 61.2923 94.7972 50.5333 70.533Z" fill="url(#paint7_linear_66_2)"/>
<path opacity="0.3" d="M93.1661 117.294C85.327 102.015 72.0514 103.597 63.9492 87.6499C59.9595 79.7992 59.3106 71.7991 59.5912 65.6803C53.576 68.2825 50.5421 70.5419 50.5421 70.5419C61.2923 94.8061 55.5138 105.18 55.5138 105.18C55.5138 105.18 66.0449 132.345 67.6846 142.394C69.3243 152.451 67.6145 164.689 67.6145 164.689C83.4505 173.436 98.4448 168.17 106.222 164.056C104.065 161.19 102.014 157.884 100.295 154.086C92.868 137.699 100.014 130.64 93.1661 117.294Z" fill="url(#paint8_linear_66_2)"/>
<path d="M76.1024 47.1041C76.1024 47.1041 75.2168 56.3966 71.9286 59.1131C68.6404 61.8385 64.7822 63.6407 64.7822 63.6407L77.1897 67.2188C82.5298 68.7573 88.282 67.2188 92.1489 63.2187L97.1558 58.0406C97.1558 58.0406 89.7288 57.3373 89.1501 56.6428C88.5626 55.9482 86.3266 47.1041 86.3266 47.1041H76.1024Z" fill="url(#paint9_linear_66_2)"/>
<path d="M91.614 40.9238C93.7974 39.1743 94.911 37.2138 95.3757 36.3698C96.4455 34.4357 98.1992 31.2796 97.2347 28.1147C96.1123 24.4575 91.7543 22.119 88.0715 22.0663C83.9766 22.0135 83.7048 24.8268 77.1459 26.6466C72.3407 27.9829 70.2187 27.0949 68.8333 29.0466C67.2374 31.2884 68.237 34.972 68.693 36.6336C69.2103 38.5413 70.4204 41.3106 70.7098 41.9436C71.8409 44.4051 71.7444 44.3084 72.0952 45.0293C72.937 46.7612 74.6381 49.7151 78.049 53.4075C78.4699 52.335 79.0574 51.0075 79.908 49.6008C80.2324 49.0558 81.5389 46.9546 83.3102 45.2931C86.3967 42.4271 88.2118 43.6579 91.614 40.9238Z" fill="url(#paint10_linear_66_2)"/>
<path d="M74.1558 48.8975C74.1558 48.8975 77.1634 55.746 84.8885 56.2735C91.8069 56.7482 94.8759 41.4512 90.9301 37.5918C89.6148 36.2995 86.7475 35.4555 84.2747 35.8072C82.8191 36.0094 82.258 36.5369 79.8729 36.827C77.672 37.0907 77.0933 36.7742 76.383 37.2314C75.4886 37.8028 74.6731 39.3853 75.4185 44.0799C74.2873 42.5765 72.7879 41.8556 71.6041 42.2337C71.4112 42.2952 70.9027 42.5502 70.5695 43.0073C69.3682 44.6337 70.6747 47.1041 74.1558 48.8975Z" fill="url(#paint11_linear_66_2)"/>
<path d="M51.1997 70.6122C51.1997 70.6122 47.8325 73.3375 39.3796 77.9178C30.9267 82.5069 22.0442 101.083 23.833 117.822C23.833 117.822 20.3343 122.886 25.1132 125.127C25.1132 125.127 37.3366 140.143 52.9183 137.602C68.5001 135.062 75.2957 130.411 77.3651 130.736C79.4432 131.062 78.1192 127.51 77.1985 126.534C76.2778 125.549 76.1024 125.866 72.6213 125.796C69.1402 125.725 58.4513 115.545 48.2184 118.736C48.2184 118.736 60.0384 111.246 63.3266 99.6852C66.6236 88.1334 51.1997 70.6122 51.1997 70.6122Z" fill="url(#paint12_linear_66_2)"/>
<path opacity="0.3" d="M55.0491 95.4479C50.3053 102.841 41.7647 102.27 37.1349 111.65C34.1974 117.593 34.1887 124.776 36.258 125.752C38.0118 126.578 40.3179 122.499 45.8245 119.563C46.9206 118.974 48.0342 118.508 49.1391 118.121C51.9713 116.099 60.5996 109.303 63.3354 99.6941C65.2294 93.039 60.924 84.4147 56.9256 78.2959C58.767 87.1048 57.0922 92.2742 55.0491 95.4479Z" fill="url(#paint13_linear_66_2)"/>
<path d="M71.2271 126.64C71.2271 126.64 78.3647 125.998 80.969 124.064C83.5732 122.13 90.7985 116.415 92.7189 116.459C94.6392 116.503 90.7898 118.437 89.6674 119.879C88.545 121.33 91.5965 125.505 89.5096 128.407C87.4226 131.308 77.3651 130.745 77.3651 130.745L71.2271 126.64Z" fill="url(#paint14_linear_66_2)"/>
<path d="M169.093 175.01L101.093 177.99V34.0226L169.093 35.7281V175.01Z" fill="url(#paint15_linear_66_2)"/>
<path d="M161 48.8449L109.914 47.8954V40.3348L161 41.4689V48.8449Z" fill="#D8DEE8"/>
<path d="M129.661 77.4255L109.914 77.3376V57.9175L129.661 58.19V77.4255Z" fill="#D8DEE8"/>
<path d="M161 60.9066L133.028 60.5549V58.234L161 58.6208V60.9066Z" fill="#D8DEE8"/>
<path d="M161 66.0144L133.028 65.733V63.4121L161 63.7286V66.0144Z" fill="#D8DEE8"/>
<path d="M129.661 104.652L109.914 104.828V85.4081L129.661 85.4257V104.652Z" fill="#D8DEE8"/>
<path d="M161 87.729L133.028 87.7466V85.4257L161 85.4432V87.729Z" fill="#D8DEE8"/>
<path d="M161 92.8368L133.028 92.9247V90.6038L161 90.551V92.8368Z" fill="#D8DEE8"/>
<path d="M129.661 131.888L109.914 132.328V112.908L129.661 112.653V131.888Z" fill="#D8DEE8"/>
<path d="M161 114.543L133.028 114.93V112.609L161 112.257V114.543Z" fill="#D8DEE8"/>
<path d="M161 119.659L133.028 120.108V117.796L161 117.365V119.659Z" fill="#D8DEE8"/>
<path d="M129.661 159.124L109.914 159.818V140.398L129.661 139.888V159.124Z" fill="#D8DEE8"/>
<path d="M161 141.365L133.028 142.121V139.8L161 139.079V141.365Z" fill="#D8DEE8"/>
<path d="M161 146.473L133.028 147.299V144.978L161 144.187V146.473Z" fill="#D8DEE8"/>
<path d="M123.9 31.2269C123.9 31.2269 131.467 33.1786 133.037 34.0226C134.606 34.8666 133.16 40.3612 133.16 40.3612C133.16 40.3612 123.155 36.3259 123.9 31.2269Z" fill="url(#paint16_linear_66_2)"/>
<path d="M65.4048 171.203H21.8776V178.052C21.8776 180.663 22.0267 183.274 22.3336 185.867L27.9805 234.255C28.2348 236.462 29.8921 238.238 32.0667 238.677C40.0636 240.268 47.7887 240.225 55.2683 238.695C57.4254 238.255 59.0563 236.479 59.3106 234.282L64.9576 185.859C65.2645 183.265 65.4135 180.654 65.4135 178.043V171.203H65.4048Z" fill="url(#paint17_linear_66_2)"/>
<path opacity="0.3" d="M21.8776 171.203V176.205C25.1483 175.731 30.234 175.546 35.8021 177.603C37.5558 178.254 48.8936 182.438 51.0506 191.441C53.3129 200.865 42.966 205.006 44.3953 217.164C45.2195 224.197 49.0514 225.938 48.5077 232.452C48.2798 235.195 47.3678 237.648 46.149 239.802C49.2268 239.679 52.2695 239.31 55.2683 238.694C57.4254 238.255 59.0563 236.479 59.3106 234.281L64.9576 185.858C65.2645 183.265 65.4135 180.654 65.4135 178.043V171.194H21.8776V171.203Z" fill="url(#paint18_linear_66_2)"/>
<path d="M65.8783 166.834C64.8436 157.708 55.2858 150.552 43.6412 150.552C31.9965 150.552 22.4388 157.708 21.4041 166.834H65.8783Z" fill="url(#paint19_linear_66_2)"/>
<path d="M19.7205 164.627V173.788C19.7205 175.238 67.5706 175.238 67.5706 173.788V164.627C67.5618 162.913 19.7205 162.913 19.7205 164.627Z" fill="url(#paint20_linear_66_2)"/>
<path d="M24.6485 165.744V168.865C24.6485 169.357 46.7891 169.357 46.7891 168.865V165.744C46.7891 165.163 24.6485 165.163 24.6485 165.744Z" fill="white"/>
<path d="M36.7316 158.667C34.443 159.361 32.1631 159.361 29.8745 158.667C29.1029 158.429 28.5768 157.726 28.5768 156.926V148.724H38.0293V156.926C38.0293 157.726 37.5032 158.438 36.7316 158.667Z" fill="url(#paint21_linear_66_2)"/>
<path d="M35.5741 144.064H31.032C29.1204 144.064 27.5684 145.62 27.5684 147.537V148.732C27.5684 149.4 28.1033 149.937 28.7697 149.937H37.8364C38.5028 149.937 39.0377 149.4 39.0377 148.732V147.537C39.0465 145.62 37.4944 144.064 35.5741 144.064Z" fill="url(#paint22_linear_66_2)"/>
<path d="M121.945 216.672C122.523 228.347 116.429 238.527 108.169 239.424C99.7162 240.338 92.2366 231.239 91.6403 219.072C91.0353 206.905 97.5679 196.689 106.038 196.276C114.316 195.863 121.366 204.997 121.945 216.672Z" fill="url(#paint23_linear_66_2)"/>
<path d="M108.169 239.424L99.6022 240.356L97.4451 196.698L106.038 196.267L108.169 239.424Z" fill="url(#paint24_linear_66_2)"/>
<path d="M114.228 217.279C114.816 229.077 108.581 239.371 100.146 240.294C91.5088 241.235 83.8626 232.039 83.2576 219.731C82.6525 207.432 89.3254 197.102 97.9888 196.672C106.45 196.25 113.649 205.481 114.228 217.279Z" fill="url(#paint25_linear_66_2)"/>
<path d="M97.3399 224.338L34.4079 230.808L33.1803 218.791L96.1123 212.32C99.4268 211.977 102.382 214.395 102.724 217.718C103.057 221.032 100.654 223.995 97.3399 224.338Z" fill="url(#paint26_linear_66_2)"/>
<path d="M46.4208 222.316C46.9995 233.991 40.9054 244.171 32.6454 245.068C24.1925 245.982 16.7129 236.883 16.1166 224.716C15.5116 212.549 22.0442 202.333 30.5146 201.92C38.8009 201.507 45.8421 210.641 46.4208 222.316Z" fill="url(#paint27_linear_66_2)"/>
<path d="M32.6541 245.068L24.0873 246L21.9214 202.342L30.5146 201.911L32.6541 245.068Z" fill="url(#paint28_linear_66_2)"/>
<path d="M38.7132 222.923C39.3007 234.721 33.0663 245.015 24.6309 245.938C15.9939 246.879 8.34767 237.683 7.74264 225.375C7.13761 213.076 13.8105 202.746 22.4738 202.316C30.9355 201.894 38.1257 211.125 38.7132 222.923Z" fill="url(#paint29_linear_66_2)"/>
<path d="M28.6118 223.705C28.7697 226.958 27.0773 229.789 24.7712 230.044C22.4212 230.299 20.3343 227.767 20.1677 224.373C20.0011 220.98 21.8162 218.14 24.1749 218.026C26.4898 217.903 28.454 220.452 28.6118 223.705Z" fill="url(#paint30_linear_66_2)"/>
<path d="M24.78 230.035L22.3949 230.299L21.7899 218.14L24.1837 218.017L24.78 230.035Z" fill="url(#paint31_linear_66_2)"/>
<path d="M26.4635 223.872C26.6301 227.16 24.894 230.026 22.544 230.281C20.1414 230.545 18.0106 227.978 17.844 224.558C17.6774 221.129 19.5364 218.255 21.9477 218.131C24.2977 218.008 26.3057 220.584 26.4635 223.872Z" fill="url(#paint32_linear_66_2)"/>
</g>
<defs>
<linearGradient id="paint0_linear_66_2" x1="9.32351" y1="37.7547" x2="152.322" y2="194.922" gradientUnits="userSpaceOnUse">
<stop offset="0.003597" stop-color="#26264F"/>
<stop offset="1" stop-color="#444B8C"/>
</linearGradient>
<linearGradient id="paint1_linear_66_2" x1="7.46876" y1="114.031" x2="186.669" y2="109.05" gradientUnits="userSpaceOnUse">
<stop stop-color="#444B8C"/>
<stop offset="0.9964" stop-color="#26264F"/>
</linearGradient>
<linearGradient id="paint2_linear_66_2" x1="134.291" y1="156.764" x2="25.5702" y2="68.0418" gradientUnits="userSpaceOnUse">
<stop stop-color="#444B8C"/>
<stop offset="0.9964" stop-color="#26264F"/>
</linearGradient>
<linearGradient id="paint3_linear_66_2" x1="114.555" y1="5.74847" x2="-2.59634" y2="406.854" gradientUnits="userSpaceOnUse">
<stop stop-color="#FFC444"/>
<stop offset="0.9964" stop-color="#F36F56"/>
</linearGradient>
<linearGradient id="paint4_linear_66_2" x1="89.5349" y1="202.088" x2="86.5566" y2="224.71" gradientUnits="userSpaceOnUse">
<stop stop-color="#444B8C"/>
<stop offset="0.9964" stop-color="#26264F"/>
</linearGradient>
<linearGradient id="paint5_linear_66_2" x1="150.782" y1="39.9213" x2="101.561" y2="112.692" gradientUnits="userSpaceOnUse">
<stop stop-color="#893976"/>
<stop offset="1" stop-color="#311944"/>
</linearGradient>
<linearGradient id="paint6_linear_66_2" x1="154.133" y1="42.188" x2="104.912" y2="114.958" gradientUnits="userSpaceOnUse">
<stop stop-color="#893976"/>
<stop offset="1" stop-color="#311944"/>
</linearGradient>
<linearGradient id="paint7_linear_66_2" x1="50.5352" y1="113.71" x2="124.648" y2="113.71" gradientUnits="userSpaceOnUse">
<stop offset="0.00359712" stop-color="#E38DDD"/>
<stop offset="1" stop-color="#9571F6"/>
</linearGradient>
<linearGradient id="paint8_linear_66_2" x1="50.5352" y1="117.551" x2="106.219" y2="117.551" gradientUnits="userSpaceOnUse">
<stop offset="0.00359712" stop-color="#E38DDD"/>
<stop offset="1" stop-color="#9571F6"/>
</linearGradient>
<linearGradient id="paint9_linear_66_2" x1="84.386" y1="79.0999" x2="74.0295" y2="24.0087" gradientUnits="userSpaceOnUse">
<stop stop-color="#893976"/>
<stop offset="1" stop-color="#311944"/>
</linearGradient>
<linearGradient id="paint10_linear_66_2" x1="74.5542" y1="64.3318" x2="83.293" y2="29.1185" gradientUnits="userSpaceOnUse">
<stop stop-color="#444B8C"/>
<stop offset="0.9964" stop-color="#26264F"/>
</linearGradient>
<linearGradient id="paint11_linear_66_2" x1="84.6372" y1="54.8392" x2="73.8019" y2="15.7937" gradientUnits="userSpaceOnUse">
<stop stop-color="#893976"/>
<stop offset="1" stop-color="#311944"/>
</linearGradient>
<linearGradient id="paint12_linear_66_2" x1="52.1822" y1="131.021" x2="22.9443" y2="36.9778" gradientUnits="userSpaceOnUse">
<stop stop-color="#893976"/>
<stop offset="1" stop-color="#311944"/>
</linearGradient>
<linearGradient id="paint13_linear_66_2" x1="55.9929" y1="129.834" x2="26.7565" y2="35.7956" gradientUnits="userSpaceOnUse">
<stop stop-color="#893976"/>
<stop offset="1" stop-color="#311944"/>
</linearGradient>
<linearGradient id="paint14_linear_66_2" x1="81.9966" y1="120.863" x2="42.5245" y2="-6.1252" gradientUnits="userSpaceOnUse">
<stop stop-color="#893976"/>
<stop offset="1" stop-color="#311944"/>
</linearGradient>
<linearGradient id="paint15_linear_66_2" x1="157.354" y1="63.8478" x2="81.8894" y2="201.005" gradientUnits="userSpaceOnUse">
<stop stop-color="white"/>
<stop offset="0.9964" stop-color="#EBEFF2"/>
</linearGradient>
<linearGradient id="paint16_linear_66_2" x1="129.79" y1="33.48" x2="127.082" y2="38.4017" gradientUnits="userSpaceOnUse">
<stop stop-color="#893976"/>
<stop offset="1" stop-color="#311944"/>
</linearGradient>
<linearGradient id="paint17_linear_66_2" x1="21.8746" y1="205.534" x2="65.4066" y2="205.534" gradientUnits="userSpaceOnUse">
<stop stop-color="white"/>
<stop offset="0.9964" stop-color="#EBEFF2"/>
</linearGradient>
<linearGradient id="paint18_linear_66_2" x1="21.8747" y1="205.507" x2="65.4066" y2="205.507" gradientUnits="userSpaceOnUse">
<stop offset="0.00359712" stop-color="#E38DDD"/>
<stop offset="1" stop-color="#9571F6"/>
</linearGradient>
<linearGradient id="paint19_linear_66_2" x1="48.9561" y1="147.723" x2="44.0304" y2="165.01" gradientUnits="userSpaceOnUse">
<stop stop-color="#AA80F9"/>
<stop offset="0.9964" stop-color="#6165D7"/>
</linearGradient>
<linearGradient id="paint20_linear_66_2" x1="44.5093" y1="164.605" x2="40.6774" y2="184.807" gradientUnits="userSpaceOnUse">
<stop stop-color="#AA80F9"/>
<stop offset="0.9964" stop-color="#6165D7"/>
</linearGradient>
<linearGradient id="paint21_linear_66_2" x1="32.4932" y1="157.197" x2="35.2303" y2="142.819" gradientUnits="userSpaceOnUse">
<stop stop-color="#AA80F9"/>
<stop offset="0.9964" stop-color="#6165D7"/>
</linearGradient>
<linearGradient id="paint22_linear_66_2" x1="34.559" y1="144.018" x2="29.0865" y2="161.121" gradientUnits="userSpaceOnUse">
<stop stop-color="#444B8C"/>
<stop offset="0.9964" stop-color="#26264F"/>
</linearGradient>
<linearGradient id="paint23_linear_66_2" x1="132.386" y1="194.578" x2="113.758" y2="211.438" gradientUnits="userSpaceOnUse">
<stop stop-color="#FF9085"/>
<stop offset="1" stop-color="#FB6FBB"/>
</linearGradient>
<linearGradient id="paint24_linear_66_2" x1="130.625" y1="192.751" x2="112.062" y2="209.552" gradientUnits="userSpaceOnUse">
<stop stop-color="#FF9085"/>
<stop offset="1" stop-color="#FB6FBB"/>
</linearGradient>
<linearGradient id="paint25_linear_66_2" x1="113.823" y1="272.988" x2="92.4543" y2="196.206" gradientUnits="userSpaceOnUse">
<stop stop-color="#311944"/>
<stop offset="1" stop-color="#A03976"/>
</linearGradient>
<linearGradient id="paint26_linear_66_2" x1="56.8785" y1="237.555" x2="81.2795" y2="197.838" gradientUnits="userSpaceOnUse">
<stop stop-color="#FF9085"/>
<stop offset="1" stop-color="#FB6FBB"/>
</linearGradient>
<linearGradient id="paint27_linear_66_2" x1="56.8673" y1="200.221" x2="38.2393" y2="217.082" gradientUnits="userSpaceOnUse">
<stop stop-color="#FF9085"/>
<stop offset="1" stop-color="#FB6FBB"/>
</linearGradient>
<linearGradient id="paint28_linear_66_2" x1="55.1055" y1="198.395" x2="36.5431" y2="215.196" gradientUnits="userSpaceOnUse">
<stop stop-color="#FF9085"/>
<stop offset="1" stop-color="#FB6FBB"/>
</linearGradient>
<linearGradient id="paint29_linear_66_2" x1="49.5273" y1="285.767" x2="17.9214" y2="212.133" gradientUnits="userSpaceOnUse">
<stop stop-color="#311944"/>
<stop offset="1" stop-color="#A03976"/>
</linearGradient>
<linearGradient id="paint30_linear_66_2" x1="31.5228" y1="217.546" x2="26.3337" y2="222.243" gradientUnits="userSpaceOnUse">
<stop stop-color="#FF9085"/>
<stop offset="1" stop-color="#FB6FBB"/>
</linearGradient>
<linearGradient id="paint31_linear_66_2" x1="31.032" y1="217.038" x2="25.8612" y2="221.718" gradientUnits="userSpaceOnUse">
<stop stop-color="#FF9085"/>
<stop offset="1" stop-color="#FB6FBB"/>
</linearGradient>
<linearGradient id="paint32_linear_66_2" x1="4.59963" y1="192.278" x2="29.5448" y2="237.437" gradientUnits="userSpaceOnUse">
<stop stop-color="#311944"/>
<stop offset="1" stop-color="#A03976"/>
</linearGradient>
<clipPath id="clip0_66_2">
<rect width="229" height="246" fill="white"/>
</clipPath>
</defs>
</svg>
