<svg width="244" height="262" viewBox="0 0 244 262" fill="none" xmlns="http://www.w3.org/2000/svg">
<g clip-path="url(#clip0_66_88)">
<path d="M212.644 71.3374H161.053C156.78 71.3374 153.279 67.884 153.279 63.5542V31.4936C153.279 27.2155 156.728 23.7104 161.053 23.7104H212.644C216.917 23.7104 220.419 27.1639 220.419 31.4936V63.5542C220.419 67.884 216.969 71.3374 212.644 71.3374Z" stroke="black" stroke-width="1.0614" stroke-miterlimit="10" stroke-linecap="round"/>
<path d="M175.418 63.1935H170.27V37.8852C170.27 37.3698 170.682 36.9574 171.196 36.9574H174.44C174.955 36.9574 175.367 37.3698 175.367 37.8852V63.1935H175.418Z" fill="#8A99EF"/>
<path d="M186.437 63.2449H181.288V41.287C181.288 40.7716 181.7 40.3593 182.215 40.3593H185.459C185.973 40.3593 186.385 40.7716 186.385 41.287V63.2449H186.437Z" fill="white"/>
<path d="M197.661 63.1419H192.512V44.8952C192.512 44.3798 192.924 43.9674 193.439 43.9674H196.683C197.198 43.9674 197.61 44.3798 197.61 44.8952V63.1419H197.661Z" fill="#8A99EF"/>
<path d="M208.628 63.1935H203.479V37.8852C203.479 37.3698 203.891 36.9574 204.406 36.9574H207.65C208.165 36.9574 208.576 37.3698 208.576 37.8852V63.1935H208.628Z" fill="white"/>
<path d="M164.349 32.7307V61.4925C164.349 62.3687 165.069 63.1419 165.893 63.1419H211.717" stroke="black" stroke-width="1.0614" stroke-miterlimit="10" stroke-linecap="round"/>
<path d="M169.034 71.3374L155.493 87.4192" stroke="#242426" stroke-width="1.0614" stroke-miterlimit="10" stroke-linecap="round"/>
<path d="M155.544 89.4811C156.511 89.4811 157.295 88.6965 157.295 87.7286C157.295 86.7607 156.511 85.9761 155.544 85.9761C154.577 85.9761 153.794 86.7607 153.794 87.7286C153.794 88.6965 154.577 89.4811 155.544 89.4811Z" fill="#242426"/>
<path d="M6.07553 188.343H38.8217C42.0654 188.343 44.6913 185.714 44.6913 182.467V153.293C44.6913 150.046 42.0654 147.417 38.8217 147.417H6.07553C2.8318 147.417 0.205933 150.046 0.205933 153.293V182.467C0.205933 185.714 2.8318 188.343 6.07553 188.343Z" fill="white"/>
<path d="M43.6615 170.045H74.6571" stroke="white" stroke-width="1.0614" stroke-miterlimit="10" stroke-linecap="round"/>
<path d="M22.0882 152.262C28.7816 152.262 34.1878 157.571 34.1878 164.066C34.1878 170.612 28.7816 175.869 22.0882 175.869C15.3948 175.869 9.98859 170.56 9.98859 164.066C9.98859 157.571 15.3948 152.262 22.0882 152.262ZM22.0882 173.241C27.237 173.241 31.4589 169.169 31.4589 164.117C31.4589 159.066 27.2884 154.994 22.0882 154.994C16.9394 154.994 12.7174 159.066 12.7174 164.117C12.7174 169.169 16.9394 173.241 22.0882 173.241Z" fill="#788AE0"/>
<path d="M9.98859 164.117C9.98859 157.571 15.3948 152.314 22.0882 152.314C22.1912 152.314 22.2941 152.314 22.3971 152.314V154.994C22.2941 154.994 22.1912 154.994 22.0882 154.994C16.9394 154.994 12.7174 159.066 12.7174 164.117C12.7174 169.169 16.8879 173.241 22.0882 173.241C27.237 173.241 31.4589 169.169 31.4589 164.117C31.4589 163.756 31.4075 163.344 31.356 162.983H34.1363C34.1878 163.344 34.1878 163.705 34.1878 164.117C34.1878 170.663 28.7816 175.921 22.0882 175.921C15.3948 175.921 9.98859 170.612 9.98859 164.117Z" fill="#F2D05F"/>
<path d="M17.5058 162.726H20.698V159.633C20.698 159.272 21.0069 159.014 21.3673 159.014H22.8605C23.2209 159.014 23.5298 159.324 23.5298 159.633V162.726H26.7221C27.0825 162.726 27.3914 163.035 27.3914 163.344V164.787C27.3914 165.148 27.0825 165.406 26.7221 165.406H23.5298V168.499C23.5298 168.859 23.2209 169.117 22.8605 169.117H21.3673C21.0069 169.117 20.698 168.808 20.698 168.499V165.406H17.5058C17.1454 165.406 16.8364 165.097 16.8364 164.787V163.344C16.8364 163.035 17.1454 162.726 17.5058 162.726Z" fill="#788AE0"/>
<path d="M34.2393 180.148H9.98859" stroke="#242426" stroke-width="1.0614" stroke-miterlimit="10" stroke-linecap="round"/>
<path d="M34.2393 183.498H9.98859" stroke="#242426" stroke-width="1.0614" stroke-miterlimit="10" stroke-linecap="round"/>
<path d="M72.0312 169.993C72.0312 171.179 73.0095 172.107 74.1937 172.107C75.3779 172.107 76.3562 171.179 76.3562 169.993C76.3562 168.808 75.3779 167.88 74.1937 167.88C73.0095 167.88 72.0312 168.859 72.0312 169.993Z" fill="white"/>
<path d="M60.4465 85.5637H3.44967C1.54463 85.5637 0 84.0173 0 82.1102V3.45347C0 1.54633 1.54463 0 3.44967 0H60.4465C62.3516 0 63.8962 1.54633 63.8962 3.45347V82.1617C63.8962 84.0173 62.3516 85.5637 60.4465 85.5637Z" fill="#8A99EF"/>
<path d="M45.2062 44.8436C45.0002 44.5343 44.6913 43.6581 44.5883 43.0395C44.4338 42.421 43.0952 41.287 43.0952 41.287C43.0952 41.287 43.6615 37.1635 43.0437 33.4523C42.3743 29.7411 42.0654 28.3494 42.0139 25.7206C41.9624 23.0919 42.1684 21.2363 37.6375 20.1023C33.1066 18.9683 34.0333 16.4942 34.0333 16.4942C34.0333 16.4942 34.9601 15.721 35.269 14.484C35.269 14.484 36.0413 14.0716 36.0928 13.1438C36.1443 12.216 35.475 12.6799 35.475 12.6799C35.475 12.6799 36.1443 9.32953 32.0253 8.81409H31.9223C27.8033 9.32953 28.4727 12.6799 28.4727 12.6799C28.4727 12.6799 27.8033 12.216 27.8548 13.1438C27.9063 14.0716 28.6786 14.484 28.6786 14.484C28.9875 15.6695 29.9143 16.4942 29.9143 16.4942C29.9143 16.4942 30.8926 18.9683 26.3102 20.1023C21.7793 21.2363 21.9852 23.1434 21.9337 25.7206C21.8822 28.2979 21.5733 29.7411 20.904 33.4523C20.2346 37.1635 20.8525 41.287 20.8525 41.287C20.8525 41.287 19.4623 42.421 19.3593 43.0395C19.2049 43.6581 18.9474 44.5343 18.7415 44.8436C18.5355 45.1529 18.7415 45.256 18.9474 45.3075C19.1534 45.3075 19.7198 44.4828 19.8742 44.5343C20.0287 44.5859 19.8742 45.8229 19.7712 46.5961C19.6683 47.3693 19.7712 47.627 20.0287 47.4208C20.2346 47.2146 20.5951 45.2044 20.7495 45.3075C20.904 45.359 20.801 48.0393 21.1099 47.7816C21.3674 47.5239 21.2644 45.1529 21.4189 45.1529C21.5733 45.1529 21.7278 45.1013 21.7278 46.0291C21.7278 46.9569 21.8308 47.7301 22.0882 47.5239C22.2941 47.3177 22.0882 45.0498 22.2427 44.9467C22.3456 44.8436 22.6031 44.8951 22.706 45.359C22.809 45.8229 23.015 46.7507 23.1694 46.6992C23.3239 46.6476 23.3239 46.2353 23.2209 45.926C23.1179 45.6168 23.1694 44.7405 23.1694 44.7405C23.5813 42.4726 22.6546 41.3901 22.6546 41.3901C23.7873 37.9882 24.0447 33.5554 24.0447 33.5554C24.8685 32.5245 25.7438 27.8855 25.7438 27.8855L26.7736 37.4212C23.2209 45.9776 26.3617 57.6781 26.3617 58.2451C26.3617 58.8637 25.7953 61.7501 25.7953 63.1934C25.7438 64.6366 28.0608 71.3374 28.0608 71.6467C28.0608 71.9559 27.3914 73.3476 27.4944 73.7084C27.5974 74.0693 27.237 74.997 26.6191 76.131C26.0013 77.265 27.4944 77.4712 29.348 77.3165C31.2015 77.1619 30.4292 75.6156 30.4807 74.9455C30.5322 74.2754 30.9956 73.5023 30.5837 72.2652C30.2232 70.9766 30.0688 71.3374 30.4807 66.6984C30.8411 62.0594 28.9875 61.8017 29.9143 58.9668C30.8411 56.1318 30.6351 53.5546 31.356 51.5444C31.8194 50.3073 32.0253 47.627 32.1283 45.8229C32.2313 47.627 32.4372 50.2558 32.9006 51.5444C33.6214 53.5546 33.4155 56.1318 34.3423 58.9668C35.269 61.8017 33.4155 62.0594 33.7759 66.6984C34.1363 71.3374 34.0333 70.9766 33.6729 72.2652C33.3125 73.5538 33.7244 74.327 33.7759 74.9455C33.8274 75.6156 33.0551 77.1619 34.9086 77.3165C36.7622 77.4712 38.2553 77.265 37.6375 76.131C37.0196 74.997 36.6592 74.0693 36.7622 73.7084C36.8652 73.3476 36.2473 71.9559 36.1958 71.6467C36.1958 71.3374 38.5128 64.6366 38.4613 63.1934C38.4098 61.7501 37.8949 58.8637 37.8949 58.2451C37.8949 57.6266 41.0357 45.9776 37.483 37.4212L38.5128 27.8855C38.5128 27.8855 39.388 32.5245 40.2118 33.5554C40.2118 33.5554 40.4693 37.9882 41.602 41.3901C41.602 41.3901 40.6752 42.4726 41.0871 44.7405C41.0871 44.7405 41.1386 45.6683 41.0357 45.926C40.9327 46.2353 40.9842 46.6476 41.0871 46.6992C41.2416 46.7507 41.4476 45.7714 41.5505 45.359C41.6535 44.8951 41.8595 44.8436 41.9624 44.9467C42.0654 45.0498 41.8595 47.3177 42.1169 47.5239C42.3228 47.7301 42.4258 46.9569 42.4773 46.0291C42.4773 45.1013 42.6318 45.1529 42.7862 45.1529C42.9407 45.1529 42.8377 47.5239 43.0952 47.7816C43.3526 48.0393 43.2496 45.359 43.4556 45.3075C43.61 45.256 43.9704 47.2662 44.1764 47.4208C44.3824 47.627 44.5368 47.3693 44.4338 46.5961C44.3309 45.8229 44.1764 44.5859 44.3309 44.5343C44.4853 44.4828 45.0517 45.359 45.2576 45.3075C45.2062 45.256 45.4121 45.1529 45.2062 44.8436Z" fill="white"/>
<path d="M36.2988 58.2452C36.2988 58.3998 36.1444 58.5544 35.9899 58.5544C35.8354 58.5544 35.681 58.3998 35.681 58.2452C35.681 58.0905 35.8354 57.9359 35.9899 57.9359C36.1444 57.9359 36.2988 58.039 36.2988 58.2452Z" fill="#242426"/>
<path d="M36.6592 58.2452C36.6592 58.606 36.3503 58.9152 35.9384 58.9152C35.5265 58.9152 35.2175 58.606 35.2175 58.2452C35.2175 57.8843 35.5265 57.5751 35.9384 57.5751C36.3503 57.5751 36.6592 57.8843 36.6592 58.2452Z" stroke="#242426" stroke-width="0.5307" stroke-miterlimit="10"/>
<path d="M29.245 71.5435C29.245 71.6982 29.0905 71.8528 28.9361 71.8528C28.7816 71.8528 28.6271 71.6982 28.6271 71.5435C28.6271 71.3889 28.7816 71.2343 28.9361 71.2343C29.0905 71.2343 29.245 71.3373 29.245 71.5435Z" fill="#242426"/>
<path d="M29.6054 71.5436C29.6054 71.9044 29.2965 72.2137 28.8846 72.2137C28.4727 72.2137 28.1638 71.9044 28.1638 71.5436C28.1638 71.1828 28.4727 70.8735 28.8846 70.8735C29.2965 70.8735 29.6054 71.1828 29.6054 71.5436Z" stroke="#242426" stroke-width="0.5307" stroke-miterlimit="10"/>
<path d="M22.6031 32.9368C22.6031 33.0915 22.4486 33.2461 22.2942 33.2461C22.0882 33.2461 21.9852 33.0915 21.9852 32.9368C21.9852 32.7822 22.1397 32.6276 22.2942 32.6276C22.4486 32.6276 22.6031 32.7307 22.6031 32.9368Z" fill="#242426"/>
<path d="M22.9635 32.9368C22.9635 33.2976 22.6546 33.6069 22.2427 33.6069C21.8308 33.6069 21.5219 33.2976 21.5219 32.9368C21.5219 32.576 21.8308 32.2667 22.2427 32.2667C22.6546 32.2667 22.9635 32.576 22.9635 32.9368Z" stroke="#242426" stroke-width="0.5307" stroke-miterlimit="10"/>
<path d="M39.7485 22.8342C39.7485 22.9888 39.594 23.1434 39.4395 23.1434C39.2336 23.1434 39.1306 22.9888 39.1306 22.8342C39.1306 22.6795 39.2851 22.5249 39.4395 22.5249C39.594 22.5249 39.7485 22.6795 39.7485 22.8342Z" fill="#242426"/>
<path d="M40.1089 22.8341C40.1089 23.1949 39.8 23.5042 39.3881 23.5042C38.9762 23.5042 38.6672 23.1949 38.6672 22.8341C38.6672 22.4733 38.9762 22.1641 39.3881 22.1641C39.8 22.1641 40.1089 22.4733 40.1089 22.8341Z" stroke="#242426" stroke-width="0.5307" stroke-miterlimit="10"/>
<path d="M30.5322 11.2366C30.5322 11.3912 30.3777 11.5459 30.2232 11.5459C30.0173 11.5459 29.9143 11.3912 29.9143 11.2366C29.9143 11.082 30.0688 10.9273 30.2232 10.9273C30.3777 10.8758 30.5322 11.0304 30.5322 11.2366Z" fill="#242426"/>
<path d="M30.8926 11.2367C30.8926 11.5975 30.5837 11.9068 30.1718 11.9068C29.7599 11.9068 29.4509 11.5975 29.4509 11.2367C29.4509 10.8759 29.7599 10.5667 30.1718 10.5667C30.5837 10.5151 30.8926 10.8244 30.8926 11.2367Z" stroke="#242426" stroke-width="0.5307" stroke-miterlimit="10"/>
<path d="M29.5024 11.2367H17.6603" stroke="#362C37" stroke-width="0.5307" stroke-miterlimit="10" stroke-linecap="round" stroke-linejoin="round"/>
<path d="M40.1089 22.8341H48.0895" stroke="#362C37" stroke-width="0.5307" stroke-miterlimit="10" stroke-linecap="round" stroke-linejoin="round"/>
<path d="M21.5733 32.9368H12.1511L8.59845 28.5555" stroke="#362C37" stroke-width="0.5307" stroke-miterlimit="10" stroke-linecap="round" stroke-linejoin="round"/>
<path d="M36.6592 58.2451H51.2817L55.2977 62.781" stroke="#362C37" stroke-width="0.5307" stroke-miterlimit="10" stroke-linecap="round" stroke-linejoin="round"/>
<path d="M28.2152 71.5436H14.0046L10.1431 67.3685" stroke="#362C37" stroke-width="0.5307" stroke-miterlimit="10" stroke-linecap="round" stroke-linejoin="round"/>
<path d="M6.33301 7.52551H8.70144" stroke="#362C37" stroke-width="0.5307" stroke-miterlimit="10" stroke-linecap="round" stroke-linejoin="round"/>
<path d="M6.33301 8.96875H13.1294" stroke="#362C37" stroke-width="0.5307" stroke-miterlimit="10" stroke-linecap="round" stroke-linejoin="round"/>
<path d="M6.33301 10.4635H13.1294" stroke="#362C37" stroke-width="0.5307" stroke-miterlimit="10" stroke-linecap="round" stroke-linejoin="round"/>
<path d="M6.33301 25.2052H8.70144" stroke="#362C37" stroke-width="0.5307" stroke-miterlimit="10" stroke-linecap="round" stroke-linejoin="round"/>
<path d="M6.33301 26.6484H13.1294" stroke="#362C37" stroke-width="0.5307" stroke-miterlimit="10" stroke-linecap="round" stroke-linejoin="round"/>
<path d="M6.33301 64.1212H8.70144" stroke="#362C37" stroke-width="0.5307" stroke-miterlimit="10" stroke-linecap="round" stroke-linejoin="round"/>
<path d="M6.33301 65.5645H13.1294" stroke="#362C37" stroke-width="0.5307" stroke-miterlimit="10" stroke-linecap="round" stroke-linejoin="round"/>
<path d="M50.3549 66.1315H52.6719" stroke="#362C37" stroke-width="0.5307" stroke-miterlimit="10" stroke-linecap="round" stroke-linejoin="round"/>
<path d="M50.3549 67.6262H57.1513" stroke="#362C37" stroke-width="0.5307" stroke-miterlimit="10" stroke-linecap="round" stroke-linejoin="round"/>
<path d="M50.3549 22.0094H52.6719" stroke="#362C37" stroke-width="0.5307" stroke-miterlimit="10" stroke-linecap="round" stroke-linejoin="round"/>
<path d="M50.3549 23.5043H57.1513" stroke="#362C37" stroke-width="0.5307" stroke-miterlimit="10" stroke-linecap="round" stroke-linejoin="round"/>
<path d="M58.0266 8.14396H45.7726C45.3607 8.14396 45.0002 7.78315 45.0002 7.3708V5.9791C45.0002 5.56674 45.3607 5.20593 45.7726 5.20593H58.0781C58.49 5.20593 58.8504 5.56674 58.8504 5.9791V7.3708C58.7989 7.8347 58.49 8.14396 58.0266 8.14396Z" fill="white"/>
<path d="M32.0253 28.2463C31.9223 28.2979 31.8194 28.2979 31.7164 28.2463L30.4292 27.2154C28.7816 25.8237 30.4807 24.0712 31.8194 25.4629H31.8709C33.2095 24.0197 34.8571 25.7722 33.261 27.2154C33.0036 27.4732 32.3342 27.9886 32.0253 28.2463Z" fill="#E8A1DE"/>
<path d="M31.356 83.9142V102.367L50.3034 111.49" stroke="#8A99EF" stroke-width="1.0614" stroke-miterlimit="10" stroke-linecap="round"/>
<path d="M48.5529 111.542C48.5529 112.728 49.5311 113.655 50.7153 113.655C51.8996 113.655 52.8778 112.728 52.8778 111.542C52.8778 110.357 51.8996 109.429 50.7153 109.429C49.5311 109.48 48.5529 110.408 48.5529 111.542Z" fill="#8A99EF"/>
<path d="M237.152 116.542H187.57C183.759 116.542 180.722 119.531 180.722 123.243V146.335C180.722 150.046 183.811 153.035 187.57 153.035H237.152C240.962 153.035 244 150.046 244 146.335V123.243C244 119.531 240.911 116.542 237.152 116.542ZM200.338 145.304C200.338 146.18 199.618 146.902 198.691 146.902H191.277C190.401 146.902 189.629 146.18 189.629 145.304V138.087C189.629 137.211 190.35 136.49 191.277 136.49H198.691C199.566 136.49 200.338 137.211 200.338 138.087V145.304ZM200.338 130.768C200.338 131.644 199.618 132.366 198.691 132.366H191.277C190.401 132.366 189.629 131.644 189.629 130.768V123.552C189.629 122.676 190.35 121.954 191.277 121.954H198.691C199.566 121.954 200.338 122.676 200.338 123.552V130.768Z" fill="#8A99EF"/>
<path d="M192.255 126.748L194.52 129.428C194.675 129.634 194.984 129.634 195.138 129.428L202.346 122.573" stroke="#242426" stroke-width="1.0614" stroke-miterlimit="10" stroke-linecap="round"/>
<path d="M192.255 140.665L194.52 143.345C194.675 143.551 194.984 143.551 195.138 143.345L202.346 136.49" stroke="#242426" stroke-width="1.0614" stroke-miterlimit="10" stroke-linecap="round"/>
<path d="M206.671 130.304H234.011" stroke="#242426" stroke-width="1.0614" stroke-miterlimit="10" stroke-linecap="round"/>
<path d="M206.671 146.077H234.011" stroke="#242426" stroke-width="1.0614" stroke-miterlimit="10" stroke-linecap="round"/>
<path d="M206.671 126.335H234.011" stroke="#242426" stroke-width="1.0614" stroke-miterlimit="10" stroke-linecap="round"/>
<path d="M206.671 142.108H234.011" stroke="#242426" stroke-width="1.0614" stroke-miterlimit="10" stroke-linecap="round"/>
<path d="M212.026 151.025L188.908 182.931L166.099 188.601" stroke="#8A99EF" stroke-width="1.0614" stroke-miterlimit="10" stroke-linecap="round"/>
<path d="M164.658 188.91C164.658 190.096 165.636 191.024 166.82 191.024C168.004 191.024 168.983 190.096 168.983 188.91C168.983 187.725 168.004 186.797 166.82 186.797C165.636 186.797 164.658 187.725 164.658 188.91Z" fill="#8A99EF"/>
<path d="M97.0027 167.674L93.553 190.92C93.553 190.92 87.9924 207.466 86.3448 224.682C84.6457 241.898 83.2555 248.701 83.2555 248.701L90.3608 249.165C90.3608 249.165 105.292 213.806 107.609 199.219L120.43 174.014L97.0027 167.674Z" fill="#DF745C"/>
<path d="M154.463 159.53L159.2 190.92C159.2 190.92 164.76 207.466 166.408 224.682C168.056 241.898 169.497 248.702 169.497 248.702L162.392 249.165C162.392 249.165 147.461 213.806 145.144 199.219L129.44 169.426L154.463 159.53Z" fill="#DF745C"/>
<path d="M90.8757 246.949C90.8757 246.949 87.323 244.475 83.204 247.052C83.204 247.052 81.9683 246.897 81.9683 249.011C81.9683 251.124 81.196 252.413 80.3722 253.495C79.4969 254.578 78.5701 257.825 79.4454 260.299C80.3207 262.773 92.6263 262.258 93.553 260.351C94.4798 258.495 92.9867 255.351 93.0382 253.392C93.1411 251.433 93.0897 245.867 90.8757 246.949Z" fill="#8A99EF"/>
<path d="M93.6045 260.402C93.8105 259.99 93.862 259.577 93.9135 259.113C93.3471 259.68 92.5748 260.196 91.4935 260.093C89.3311 259.835 88.2498 257.928 85.6754 258.546C83.204 259.165 81.2475 260.866 79.188 258.495C79.2395 259.113 79.291 259.784 79.4969 260.351C80.3207 262.773 92.6778 262.258 93.6045 260.402Z" fill="white"/>
<path d="M161.877 246.949C161.877 246.949 165.43 244.475 169.549 247.052C169.549 247.052 170.785 246.897 170.785 249.011C170.785 251.124 171.557 252.413 172.381 253.495C173.256 254.578 174.183 257.825 173.307 260.299C172.432 262.773 160.127 262.258 159.2 260.351C158.273 258.495 159.766 255.351 159.715 253.392C159.612 251.433 159.663 245.867 161.877 246.949Z" fill="#8A99EF"/>
<path d="M159.148 260.402C158.942 259.99 158.891 259.577 158.839 259.113C159.406 259.68 160.178 260.196 161.259 260.093C163.422 259.835 164.503 257.928 167.077 258.546C169.549 259.165 171.505 260.866 173.565 258.495C173.513 259.113 173.462 259.784 173.256 260.351C172.432 262.773 160.075 262.258 159.148 260.402Z" fill="white"/>
<path d="M93.0897 109.016C91.9055 109.789 80.3722 121.129 80.3722 121.129L97.9295 141.85L97.981 148.396C97.981 148.396 77.4889 134.376 72.2887 130.974C67.3458 127.727 63.2268 125.974 63.6387 120.923C64.0506 115.872 88.8162 84.9966 88.8162 84.9966L93.0897 109.016Z" fill="#DF745C"/>
<path opacity="0.71" d="M80.3722 121.078C80.3722 121.078 77.7978 119.377 73.8848 119.686" stroke="#362C37" stroke-width="1.0614" stroke-miterlimit="10" stroke-linecap="round" stroke-linejoin="round"/>
<path d="M69.7658 22.164C67.5518 20.7723 64.6685 20.36 64.1021 20.1023C63.5357 19.793 56.5849 16.5457 55.8126 16.0818C55.0403 15.6179 55.2462 16.5457 55.2462 16.5457C55.2462 16.5457 54.0105 15.8756 53.5986 16.4426C53.1867 17.0096 53.4442 18.2982 55.6066 19.4322C55.6066 19.4322 56.07 20.0507 58.3355 20.9785C60.6009 21.9063 61.3218 22.7826 61.3218 22.7826C61.3218 22.7826 58.9533 22.5248 58.4385 22.8857C57.9236 23.2465 57.2028 24.6382 60.2405 25.2567C63.2783 25.8752 65.0804 26.5453 65.2863 26.7515C65.4923 26.9577 66.9854 28.9679 68.2211 29.5864C69.0449 29.9988 76.3047 30.205 80.8356 30.308C82.7921 30.3596 84.7487 30.4627 86.7052 30.7204C92.3173 31.442 96.5393 31.9059 101.328 33.1945C106.013 34.4316 106.013 65.5644 106.013 65.5644L123.673 60.7192C123.673 60.7192 116.825 23.9681 113.736 23.4011C111.625 22.9887 105.189 20.1538 87.529 22.8857C83.2555 23.5557 77.9008 23.3496 73.5758 22.9887C71.8767 22.8341 70.4351 22.5764 69.7658 22.164Z" fill="#DF745C"/>
<path d="M63.6387 21.4424C63.6387 21.4424 60.6524 20.1022 58.284 18.9167C55.9155 17.6797 55.0403 17.6796 54.8858 17.9374C54.7828 18.1951 54.6798 18.659 55.5551 19.4322" stroke="#362C37" stroke-width="1.0614" stroke-miterlimit="10" stroke-linecap="round" stroke-linejoin="round"/>
<path d="M61.3218 22.7826C61.3218 22.7826 63.3298 23.8135 65.3378 26.7515" stroke="#362C37" stroke-width="1.0614" stroke-miterlimit="10" stroke-linecap="round" stroke-linejoin="round"/>
<path d="M101.894 145.355C101.894 145.355 98.9077 156.179 96.5393 169.375C96.5393 169.375 107.867 177.416 119.915 175.251L125.939 164.942L131.242 173.498C131.242 173.498 149.16 173.498 155.699 165.818C155.699 165.818 152.197 139.634 143.651 127.985L101.894 145.355Z" fill="#34003B"/>
<path d="M108.124 66.3892C108.124 66.3892 88.3528 77.8835 83.7189 92.2129C83.7189 92.2129 104.777 124.531 101.894 145.407C101.894 145.407 133.456 144.479 143.651 127.985L125.63 69.5334L108.124 66.3892Z" fill="white"/>
<path d="M97.878 141.85C97.878 141.85 106.476 141.85 108.639 142.417C110.801 142.984 112.655 144.376 112.655 144.84C112.655 145.304 112.037 146.128 107.455 144.221L104.057 144.53C104.057 144.53 107.506 146.644 107.867 147.623C108.33 148.912 109.205 151.18 108.587 151.437C108.021 151.695 106.682 149.891 106.116 148.499C105.756 147.623 103.645 147.572 103.645 147.572C103.645 147.572 105.344 151.901 104.88 153.19C104.417 154.427 103.13 151.695 102.615 149.736C102.615 149.736 100.813 148.448 98.6503 148.448C96.4364 148.499 95.2521 146.438 95.2521 146.438L97.878 141.85Z" fill="#DF745C"/>
<path d="M97.672 53.3484C97.5176 54.7401 97.5691 56.1833 97.878 57.575C98.2899 59.6368 98.8048 62.4717 98.6503 63.1933C98.4444 64.0696 96.0244 63.5026 94.7373 57.6781C93.4501 51.8536 88.7132 52.0082 88.9191 48.0393C89.1251 43.8642 87.1686 41.854 84.0278 44.0704C80.8871 46.2868 85.9843 46.8022 80.2692 47.2661C73.4728 47.7816 82.9981 62.214 79.3939 69.2756C76.0987 75.7186 62.9694 64.7397 60.8584 57.008C59.1593 50.7711 59.9831 46.7507 63.1238 41.4932C67.7062 36.2356 74.966 33.1945 79.7543 34.4831C85.0061 35.9264 75.8413 36.6995 80.2692 39.019C82.9981 40.4623 92.7807 37.9366 93.553 42.3694C94.0164 45.2043 97.1572 43.1426 97.672 53.3484Z" fill="#34003B"/>
<path d="M90.4638 50.0495C86.2933 43.7611 86.2418 43.8126 79.8059 48.1939C75.7383 50.9257 73.061 51.4927 70.3836 52.1113C69.0964 52.4205 66.522 52.4721 65.1319 52.8844C63.7932 53.2968 62.403 57.7296 66.728 63.0387C69.2509 66.1829 70.2806 69.5332 71.3619 70.7703C75.9443 75.9247 80.1663 76.5948 85.0061 75.1H85.0576L89.0221 82.1101C91.854 86.4913 97.1572 88.1408 101.74 85.3574C106.322 82.574 106.888 76.9041 104.108 72.4197L90.4638 50.0495Z" fill="#DF745C"/>
<path d="M69.9202 65.6159C70.1776 65.9767 70.744 66.0798 71.1044 65.7706C71.5163 65.5128 71.6193 64.9974 71.3619 64.6366C71.1044 64.2758 70.5381 64.1727 70.1776 64.4819C69.7657 64.7397 69.6628 65.2551 69.9202 65.6159Z" fill="#34003B"/>
<path d="M85.0576 74.9971C85.0576 74.9971 89.3825 73.3476 91.2876 68.6571C91.2876 68.6571 92.0084 73.3476 86.0873 76.9042L85.0576 74.9971Z" fill="#2C2E38"/>
<path d="M96.2819 52.2144C92.4718 54.5854 91.8539 54.4308 87.7864 52.4721C77.8493 53.6061 71.4133 47.3177 70.641 43.1941C70.641 43.1941 63.3298 40.4107 69.7657 36.1326C71.8252 34.7924 74.1937 34.0192 76.6651 33.8131C77.9523 33.71 79.291 33.6584 80.3207 33.7615C86.1388 34.2254 91.9569 37.6273 94.6343 42.6787C96.8997 46.9569 97.672 51.3381 96.2819 52.2144Z" fill="#34003B"/>
<path d="M86.3448 57.0595C87.735 59.3275 90.6698 60.1007 92.9867 58.812C95.3036 57.4719 96.076 54.5854 94.7373 52.3175C93.3471 50.0495 90.4123 49.2763 88.0954 50.5649C85.7784 51.8536 85.0061 54.7916 86.3448 57.0595Z" fill="#DF745C"/>
<path d="M91.0302 53.3999C91.0302 53.3999 89.434 54.4823 89.64 56.2348C89.64 56.441 89.9489 56.4926 90.0519 56.3379C90.4638 55.874 91.1846 55.1524 91.854 55.307" stroke="black" stroke-width="1.0614" stroke-miterlimit="10" stroke-linecap="round"/>
<path d="M74.6056 61.9563C74.6056 61.9563 75.4809 67.3169 76.1502 67.7293C76.5106 67.987 77.3344 67.6262 77.9523 67.2138" stroke="black" stroke-width="1.0614" stroke-miterlimit="10" stroke-linecap="round"/>
<path d="M66.934 63.6573C67.2944 63.7088 67.7578 63.0387 68.5301 62.4202C69.3024 61.8017 70.1262 61.4409 70.1262 61.1316C70.1262 60.977 69.8173 60.8223 69.4054 60.8739C68.942 60.8739 68.3241 61.0801 67.8092 61.4924C67.2944 61.9563 66.9854 62.4718 66.831 62.8841C66.728 63.2965 66.7795 63.5542 66.934 63.6573Z" fill="#34003B"/>
<path d="M74.7601 56.9565C75.069 57.2142 76.0988 56.441 77.5404 55.8225C78.9306 55.2039 80.2692 54.9978 80.2692 54.637C80.2692 54.4823 79.9088 54.2761 79.3425 54.2246C78.7761 54.1731 77.9008 54.2761 77.0255 54.637C76.1502 54.9978 75.5324 55.5132 75.1205 55.9771C74.7086 56.4926 74.6056 56.8534 74.7601 56.9565Z" fill="#34003B"/>
<path d="M79.291 63.7088C81.2246 63.7088 82.7921 62.1857 82.7921 60.3068C82.7921 58.428 81.2246 56.9049 79.291 56.9049C77.3573 56.9049 75.7898 58.428 75.7898 60.3068C75.7898 62.1857 77.3573 63.7088 79.291 63.7088Z" stroke="white" stroke-width="1.0614" stroke-miterlimit="10" stroke-linecap="round"/>
<path d="M73.5758 64.0696C74.3996 65.7706 73.6273 67.8324 71.8768 68.6055C70.1262 69.4302 68.0152 68.6571 67.2429 66.9561C66.4191 65.2551 67.1914 63.1934 68.942 62.4202C70.6411 61.5955 72.752 62.3686 73.5758 64.0696Z" stroke="white" stroke-width="1.0614" stroke-miterlimit="10" stroke-linecap="round"/>
<path d="M76.5106 62.4202C76.5106 62.4202 74.2967 61.7501 73.5244 63.7088" stroke="white" stroke-width="1.0614" stroke-miterlimit="10" stroke-linecap="round"/>
<path d="M62.5574 42.7817C62.5574 42.7817 60.5494 46.8537 57.5631 48.5547C53.9075 50.668 53.8045 56.6987 58.9018 59.1728C63.9991 61.647 65.2348 63.7087 65.6982 63.7603C66.1616 63.8118 62.1455 57.8327 62.8664 53.0391C63.3298 49.7918 62.5574 42.7817 62.5574 42.7817Z" fill="#34003B"/>
<path d="M77.7978 61.1316C78.0552 61.4924 78.6216 61.5955 78.982 61.2862C79.3939 61.0285 79.4969 60.513 79.2395 60.1522C78.982 59.7914 78.4157 59.6883 78.0552 59.9976C77.5919 60.2553 77.4889 60.7707 77.7978 61.1316Z" fill="#34003B"/>
<path d="M89.1766 82.5225C89.1766 82.5225 77.077 97.8827 74.2452 102.058C73.9363 102.522 74.0392 103.14 74.5541 103.449C76.974 104.996 83.7189 109.635 86.3448 114.686C86.6537 115.305 87.426 115.459 87.9924 115.047L94.8402 109.377C95.1492 109.119 95.2521 108.759 95.2007 108.346L89.1766 82.5225Z" fill="white"/>
<path d="M129.594 82.4194C129.594 82.4194 125.064 60.7707 123.519 56.1317C123.364 55.6163 122.747 55.3586 122.232 55.5132C119.554 56.441 111.78 58.9151 106.271 57.9873C105.601 57.8842 104.983 58.3997 105.035 59.0182L105.292 69.0178C105.292 69.3786 105.601 68.2962 105.91 68.4508L129.594 82.4194Z" fill="white"/>
<path d="M95.6641 196.693C95.6641 196.693 99.9375 198.858 103.027 199.013" stroke="#362C37" stroke-width="1.0614" stroke-miterlimit="10" stroke-linecap="round" stroke-linejoin="round"/>
<path d="M149.881 197.26C149.881 197.26 154.875 197.26 157.243 195.095" stroke="#362C37" stroke-width="1.0614" stroke-miterlimit="10" stroke-linecap="round" stroke-linejoin="round"/>
<path d="M121.047 136.747C126.248 134.737 132.323 131.799 136.648 127.882" stroke="#362C37" stroke-width="1.0614" stroke-miterlimit="10" stroke-linecap="round" stroke-linejoin="round"/>
<path d="M110.647 140.097C110.647 140.097 113.376 139.479 117.289 138.139" stroke="#362C37" stroke-width="1.0614" stroke-miterlimit="10" stroke-linecap="round" stroke-linejoin="round"/>
<path d="M78.6731 70.1004C78.6731 70.1004 82.3802 70.8735 82.8951 67.2139" stroke="black" stroke-width="1.0614" stroke-miterlimit="10" stroke-linecap="round"/>
<path d="M101.997 33.6069C101.997 33.6069 103.593 31.1843 105.292 30.772" stroke="#362C37" stroke-width="1.0614" stroke-miterlimit="10" stroke-linecap="round" stroke-linejoin="round"/>
</g>
<defs>
<clipPath id="clip0_66_88">
<rect width="244" height="262" fill="white"/>
</clipPath>
</defs>
</svg>
