<svg width="36" height="36" viewBox="0 0 36 36" fill="none" xmlns="http://www.w3.org/2000/svg">
<path d="M18.0916 0H18.0104C8.1873 0 0.224121 7.96552 0.224121 17.7915V17.8727C0.224121 27.6987 8.1873 35.6642 18.0104 35.6642H18.0916C27.9146 35.6642 35.8778 27.6987 35.8778 17.8727V17.7915C35.8778 7.96552 27.9146 0 18.0916 0Z" fill="#383D38"/>
<path d="M26.6691 12.9022V16.2696C26.0807 16.2121 25.3162 16.0784 24.4706 15.7685C23.3664 15.3637 22.5444 14.8102 22.0061 14.3816V21.1876L21.9923 21.1663C22.0011 21.3013 22.0061 21.4387 22.0061 21.5774C22.0061 24.9573 19.2568 27.7087 15.8766 27.7087C12.4965 27.7087 9.74719 24.9573 9.74719 21.5774C9.74719 18.1975 12.4965 15.4449 15.8766 15.4449C16.2077 15.4449 16.5324 15.4712 16.8497 15.5224V18.841C16.5449 18.7323 16.2176 18.6736 15.8766 18.6736C14.2765 18.6736 12.9737 19.9756 12.9737 21.5774C12.9737 23.1793 14.2765 24.4812 15.8766 24.4812C17.4768 24.4812 18.7796 23.178 18.7796 21.5774C18.7796 21.5174 18.7783 21.4575 18.7746 21.3975V8.17163H22.1385C22.151 8.45651 22.1622 8.7439 22.1747 9.02879C22.1972 9.58981 22.3971 10.1283 22.7456 10.5694C23.154 11.0879 23.7573 11.6902 24.6042 12.1712C25.3974 12.6198 26.1419 12.8135 26.6691 12.9047V12.9022Z" fill="white"/>
</svg>
