<svg width="498" height="543" viewBox="0 0 498 543" fill="none" xmlns="http://www.w3.org/2000/svg">
<path d="M266.076 163.38C281.058 154.295 333.561 160.883 347.016 185.366C354.437 198.891 280.017 277.958 280.017 277.958C280.017 277.958 294.027 270.675 308.176 270.398C327.943 269.982 375.036 269.774 414.985 277.125L416.997 300.152C410.963 308.96 242.356 343.153 225.156 339.546C200.257 334.345 196.512 205.549 266.076 163.38Z" fill="#6548CC"/>
<mask id="mask0_85_279" style="mask-type:luminance" maskUnits="userSpaceOnUse" x="208" y="159" width="209" height="181">
<path d="M266.076 163.38C281.058 154.295 333.561 160.883 347.016 185.366C354.437 198.891 280.017 277.958 280.017 277.958C280.017 277.958 294.027 270.675 308.176 270.398C327.943 269.982 375.036 269.774 414.985 277.125L416.997 300.152C410.963 308.96 242.356 343.153 225.156 339.546C200.257 334.345 196.512 205.549 266.076 163.38Z" fill="white"/>
</mask>
<g mask="url(#mask0_85_279)">
<path d="M280.017 277.958C246.379 270.953 209.828 277.542 198.8 295.505C181.599 332.472 199.216 368.746 199.216 368.746C199.216 368.746 270.168 398.569 275.578 399.748C280.988 400.858 444.947 408.765 464.644 409.111C484.342 409.458 519.714 277.75 519.714 277.75L482.677 237.037L363.176 233.569L280.017 277.958Z" fill="#EAA697"/>
</g>
<mask id="mask1_85_279" style="mask-type:luminance" maskUnits="userSpaceOnUse" x="208" y="159" width="209" height="181">
<path d="M266.076 163.38C281.058 154.295 333.561 160.883 347.016 185.366C354.437 198.891 280.017 277.958 280.017 277.958C280.017 277.958 294.027 270.675 308.176 270.398C327.943 269.982 375.036 269.774 414.985 277.125L416.997 300.152C410.963 308.96 242.356 343.153 225.156 339.546C200.257 334.345 196.512 205.549 266.076 163.38Z" fill="white"/>
</mask>
<g mask="url(#mask1_85_279)">
<path d="M350.206 267.831C350.206 267.831 343.34 295.852 353.743 318.392C364.147 340.933 430.66 296.823 430.66 296.823L420.395 270.12L405.622 261.867L350.206 267.831Z" fill="#1D204F"/>
</g>
<path d="M383.636 276.986C402.362 274.906 415.124 288.708 400.975 304.59L436.347 320.681C441.272 322.276 445.988 324.635 450.219 327.686L461.94 338.02C469.569 344.748 481.568 339.893 482.469 329.767V329.42C482.886 324.218 475.395 308.197 460.275 286.488C445.156 264.78 421.158 244.805 421.158 244.805C407.356 231.905 395.912 234.401 397.785 250.77L380.654 271.646C378.642 273.865 380.584 277.264 383.636 276.986Z" fill="#6F46D0"/>
<mask id="mask2_85_279" style="mask-type:luminance" maskUnits="userSpaceOnUse" x="379" y="236" width="104" height="106">
<path d="M383.636 276.986C402.362 274.906 415.124 288.708 400.975 304.59L436.347 320.681C441.272 322.276 445.988 324.635 450.219 327.686L461.94 338.02C469.569 344.748 481.568 339.893 482.469 329.767V329.42C482.886 324.218 475.395 308.197 460.275 286.488C445.156 264.78 421.158 244.805 421.158 244.805C407.356 231.905 395.912 234.401 397.785 250.77L380.654 271.646C378.642 273.865 380.584 277.264 383.636 276.986Z" fill="white"/>
</mask>
<g mask="url(#mask2_85_279)">
<path d="M475.811 339.616C480.666 327.894 463.396 307.087 450.912 291.829C437.526 275.53 414.638 252.989 397.715 250.7C382.804 248.689 398.27 218.449 398.964 217.964C399.657 217.478 459.72 238.424 463.604 241.961C467.488 245.498 491.416 284.338 495.994 288.43C500.571 292.522 504.178 306.671 503.901 308.266C503.623 309.861 495.37 329.836 495.37 329.836L475.811 339.616Z" fill="#1D204F"/>
</g>
<mask id="mask3_85_279" style="mask-type:luminance" maskUnits="userSpaceOnUse" x="379" y="236" width="104" height="106">
<path d="M383.636 276.986C402.362 274.906 415.124 288.708 400.975 304.59L436.347 320.681C441.272 322.276 445.988 324.635 450.219 327.686L461.94 338.02C469.569 344.748 481.568 339.893 482.469 329.767V329.42C482.886 324.218 475.395 308.197 460.275 286.488C445.156 264.78 421.158 244.805 421.158 244.805C407.356 231.905 395.912 234.401 397.785 250.77L380.654 271.646C378.642 273.865 380.584 277.264 383.636 276.986Z" fill="white"/>
</mask>
<g mask="url(#mask3_85_279)">
<path d="M414.846 320.681C415.609 320.681 416.303 320.196 416.58 319.433L420.88 305.423C421.158 304.452 420.603 303.481 419.701 303.134C418.73 302.856 417.759 303.411 417.413 304.313L413.112 318.323C412.835 319.294 413.39 320.265 414.292 320.612C414.43 320.612 414.638 320.681 414.846 320.681Z" fill="white"/>
</g>
<mask id="mask4_85_279" style="mask-type:luminance" maskUnits="userSpaceOnUse" x="379" y="236" width="104" height="106">
<path d="M383.636 276.986C402.362 274.906 415.124 288.708 400.975 304.59L436.347 320.681C441.272 322.276 445.988 324.635 450.219 327.686L461.94 338.02C469.569 344.748 481.568 339.893 482.469 329.767V329.42C482.886 324.218 475.395 308.197 460.275 286.488C445.156 264.78 421.158 244.805 421.158 244.805C407.356 231.905 395.912 234.401 397.785 250.77L380.654 271.646C378.642 273.865 380.584 277.264 383.636 276.986Z" fill="white"/>
</mask>
<g mask="url(#mask4_85_279)">
<path d="M423.169 323.247C423.932 323.247 424.626 322.762 424.903 321.999L429.203 307.989C429.481 307.018 428.926 306.047 428.024 305.7C427.053 305.423 426.082 305.978 425.735 306.879L421.435 320.889C421.158 321.86 421.713 322.831 422.614 323.178C422.822 323.247 423.031 323.247 423.169 323.247Z" fill="white"/>
</g>
<mask id="mask5_85_279" style="mask-type:luminance" maskUnits="userSpaceOnUse" x="379" y="236" width="104" height="106">
<path d="M383.636 276.986C402.362 274.906 415.124 288.708 400.975 304.59L436.347 320.681C441.272 322.276 445.988 324.635 450.219 327.686L461.94 338.02C469.569 344.748 481.568 339.893 482.469 329.767V329.42C482.886 324.218 475.395 308.197 460.275 286.488C445.156 264.78 421.158 244.805 421.158 244.805C407.356 231.905 395.912 234.401 397.785 250.77L380.654 271.646C378.642 273.865 380.584 277.264 383.636 276.986Z" fill="white"/>
</mask>
<g mask="url(#mask5_85_279)">
<path d="M431.076 326.646C431.839 326.646 432.533 326.161 432.81 325.398L437.11 311.388C437.388 310.417 436.833 309.446 435.931 309.099C434.96 308.821 433.989 309.376 433.643 310.278L429.342 324.288C429.065 325.259 429.62 326.23 430.521 326.577C430.66 326.577 430.868 326.646 431.076 326.646Z" fill="white"/>
</g>
<mask id="mask6_85_279" style="mask-type:luminance" maskUnits="userSpaceOnUse" x="379" y="236" width="104" height="106">
<path d="M383.636 276.986C402.362 274.906 415.124 288.708 400.975 304.59L436.347 320.681C441.272 322.276 445.988 324.635 450.219 327.686L461.94 338.02C469.569 344.748 481.568 339.893 482.469 329.767V329.42C482.886 324.218 475.395 308.197 460.275 286.488C445.156 264.78 421.158 244.805 421.158 244.805C407.356 231.905 395.912 234.401 397.785 250.77L380.654 271.646C378.642 273.865 380.584 277.264 383.636 276.986Z" fill="white"/>
</mask>
<g mask="url(#mask6_85_279)">
<path d="M438.775 329.489C439.538 329.489 440.231 329.004 440.509 328.241L444.809 314.231C445.086 313.26 444.531 312.289 443.63 311.942C442.659 311.665 441.688 312.22 441.341 313.121L437.041 327.131C436.763 328.102 437.318 329.073 438.22 329.42C438.428 329.42 438.636 329.489 438.775 329.489Z" fill="white"/>
</g>
<mask id="mask7_85_279" style="mask-type:luminance" maskUnits="userSpaceOnUse" x="379" y="236" width="104" height="106">
<path d="M383.636 276.986C402.362 274.906 415.124 288.708 400.975 304.59L436.347 320.681C441.272 322.276 445.988 324.635 450.219 327.686L461.94 338.02C469.569 344.748 481.568 339.893 482.469 329.767V329.42C482.886 324.218 475.395 308.197 460.275 286.488C445.156 264.78 421.158 244.805 421.158 244.805C407.356 231.905 395.912 234.401 397.785 250.77L380.654 271.646C378.642 273.865 380.584 277.264 383.636 276.986Z" fill="white"/>
</mask>
<g mask="url(#mask7_85_279)">
<path d="M415.263 294.603C415.332 294.603 415.402 294.603 415.471 294.603C415.956 294.534 416.303 294.048 416.164 293.563C411.587 271.577 393.832 271.23 393.693 271.23C393.207 271.23 392.791 271.646 392.791 272.131C392.791 272.617 393.207 273.033 393.693 273.033C394.386 273.033 410.13 273.449 414.431 293.909C414.431 294.326 414.847 294.603 415.263 294.603Z" fill="#6F46D0"/>
</g>
<mask id="mask8_85_279" style="mask-type:luminance" maskUnits="userSpaceOnUse" x="379" y="236" width="104" height="106">
<path d="M383.636 276.986C402.362 274.906 415.124 288.708 400.975 304.59L436.347 320.681C441.272 322.276 445.988 324.635 450.219 327.686L461.94 338.02C469.569 344.748 481.568 339.893 482.469 329.767V329.42C482.886 324.218 475.395 308.197 460.275 286.488C445.156 264.78 421.158 244.805 421.158 244.805C407.356 231.905 395.912 234.401 397.785 250.77L380.654 271.646C378.642 273.865 380.584 277.264 383.636 276.986Z" fill="white"/>
</mask>
<g mask="url(#mask8_85_279)">
<path d="M461.94 304.244C462.287 304.244 462.634 304.036 462.772 303.689C462.98 303.203 462.772 302.718 462.287 302.51L429.828 287.945L434.197 297.031L419.979 290.719C419.494 290.511 419.008 290.719 418.8 291.205C418.592 291.69 418.8 292.176 419.286 292.384L438.012 300.707L433.643 291.621L461.593 304.174C461.663 304.244 461.801 304.244 461.94 304.244Z" fill="#1D204F"/>
</g>
<mask id="mask9_85_279" style="mask-type:luminance" maskUnits="userSpaceOnUse" x="379" y="236" width="104" height="106">
<path d="M383.636 276.986C402.362 274.906 415.124 288.708 400.975 304.59L436.347 320.681C441.272 322.276 445.988 324.635 450.219 327.686L461.94 338.02C469.569 344.748 481.568 339.893 482.469 329.767V329.42C482.886 324.218 475.395 308.197 460.275 286.488C445.156 264.78 421.158 244.805 421.158 244.805C407.356 231.905 395.912 234.401 397.785 250.77L380.654 271.646C378.642 273.865 380.584 277.264 383.636 276.986Z" fill="white"/>
</mask>
<g mask="url(#mask9_85_279)">
<path d="M453.548 292.938C453.895 292.938 454.241 292.73 454.38 292.384C454.588 291.898 454.38 291.413 453.895 291.205L418.037 275.114L422.407 284.199L408.189 277.888C407.703 277.68 407.218 277.888 407.01 278.374C406.801 278.859 407.01 279.345 407.495 279.553L426.221 287.875L421.852 278.79L453.201 292.869C453.34 292.938 453.409 292.938 453.548 292.938Z" fill="#1D204F"/>
</g>
<path d="M18.5422 474.168L61.266 431.236C69.242 423.191 80.1311 418.683 91.5056 418.683H350.068C361.858 418.683 373.094 423.538 381.139 432.138L423.655 477.428" stroke="#1D204F" stroke-width="36.2363" stroke-miterlimit="10" stroke-linecap="round"/>
<path d="M395.219 343.708L325.931 418.683" stroke="#1D204F" stroke-width="36.2363" stroke-miterlimit="10" stroke-linecap="round"/>
<path d="M60.6417 343.708L120.219 418.683" stroke="#1D204F" stroke-width="36.2363" stroke-miterlimit="10" stroke-linecap="round"/>
<path d="M147.476 359.521H489.683C494.191 359.521 497.867 355.845 497.867 351.337V331.501C497.867 326.993 494.191 323.317 489.683 323.317H147.476C142.968 323.317 139.292 326.993 139.292 331.501V351.337C139.292 355.845 142.968 359.521 147.476 359.521Z" fill="#1D204F"/>
<path d="M16.1841 359.521H125.282C129.791 359.521 133.466 355.845 133.466 351.337V331.501C133.466 326.993 129.791 323.317 125.282 323.317H16.1841C11.6759 323.317 8 326.993 8 331.501V351.337C8.06936 355.845 11.6759 359.521 16.1841 359.521Z" fill="#1D204F"/>
<path d="M133.328 320.474C129.998 329.559 106.833 344.055 102.464 343.639C98.1636 343.223 98.3717 338.992 99.4814 337.189C100.591 335.385 106.001 328.38 106.001 328.45C106.001 328.519 65.8434 332.334 65.8434 325.675C65.8434 321.861 78.397 321.514 88.3843 319.017C93.1006 317.838 97.4701 315.688 101.354 312.775L123.895 295.436C123.895 295.505 134.853 316.312 133.328 320.474Z" fill="#1D204F"/>
<mask id="mask10_85_279" style="mask-type:luminance" maskUnits="userSpaceOnUse" x="65" y="295" width="69" height="49">
<path d="M133.328 320.474C129.998 329.559 106.833 344.055 102.464 343.639C98.1636 343.223 98.3717 338.992 99.4814 337.189C100.591 335.385 106.001 328.38 106.001 328.45C106.001 328.519 65.8434 332.334 65.8434 325.675C65.8434 321.861 78.397 321.514 88.3843 319.017C93.1006 317.838 97.4701 315.688 101.354 312.775L123.895 295.436C123.895 295.505 134.853 316.312 133.328 320.474Z" fill="white"/>
</mask>
<g mask="url(#mask10_85_279)">
<path d="M118.277 338.09C117.861 335.94 112.659 327.548 102.048 331.016C91.5057 334.553 94.8348 344.956 94.8348 344.956L109.608 349.742L118.277 338.09Z" fill="#EAA697"/>
</g>
<mask id="mask11_85_279" style="mask-type:luminance" maskUnits="userSpaceOnUse" x="65" y="295" width="69" height="49">
<path d="M133.328 320.474C129.998 329.559 106.833 344.055 102.464 343.639C98.1636 343.223 98.3717 338.992 99.4814 337.189C100.591 335.385 106.001 328.38 106.001 328.45C106.001 328.519 65.8434 332.334 65.8434 325.675C65.8434 321.861 78.397 321.514 88.3843 319.017C93.1006 317.838 97.4701 315.688 101.354 312.775L123.895 295.436C123.895 295.505 134.853 316.312 133.328 320.474Z" fill="white"/>
</mask>
<g mask="url(#mask11_85_279)">
<path d="M92.4074 316.797C95.1817 317.907 96.4301 322.207 95.6672 325.328C94.9042 328.449 89.6331 332.472 89.1476 332.75C88.6621 333.027 68.1325 333.027 68.1325 333.027L63.0001 329.351L64.6647 317.56C64.6647 317.56 71.6004 316.035 72.0859 316.035C72.502 316.035 92.4074 316.797 92.4074 316.797Z" fill="#EAA697"/>
</g>
<path d="M158.435 123.431C165.925 136.886 160.099 206.659 157.394 226.564C157.047 229.2 156.493 231.835 155.799 234.401L133.327 320.404L126.184 315.965C120.427 312.358 117.167 305.839 117.791 299.111C118.832 287.667 114.532 269.288 114.116 259.092C113.561 245.29 113.977 223.582 113.977 223.582C113.977 223.582 111.896 154.294 114.254 142.504C116.89 129.049 147.754 104.358 158.435 123.431Z" fill="#EAA697"/>
<path d="M342.647 288.014C342.647 288.014 371.014 287.668 370.459 281.287C369.904 274.906 345.976 270.398 345.976 270.398L342.647 288.014Z" fill="#1D204F"/>
<path d="M272.943 183.355C272.735 186.962 283.485 251.186 295.623 290.858C300.824 307.712 304.431 323.04 308.523 332.195C323.643 366.249 337.029 481.45 337.029 481.45H365.604C365.604 481.45 375.799 332.958 370.528 316.312C365.257 299.666 350.414 284.893 350.414 284.893C350.414 284.893 360.055 210.682 347.016 185.366C329.399 151.243 272.943 183.355 272.943 183.355Z" fill="#6548CC"/>
<mask id="mask12_85_279" style="mask-type:luminance" maskUnits="userSpaceOnUse" x="272" y="169" width="101" height="313">
<path d="M272.943 183.355C272.735 186.962 283.485 251.186 295.623 290.858C300.824 307.712 304.431 323.04 308.523 332.195C323.643 366.249 337.029 481.45 337.029 481.45H365.604C365.604 481.45 375.799 332.958 370.528 316.312C365.257 299.666 350.414 284.893 350.414 284.893C350.414 284.893 360.055 210.682 347.016 185.366C329.399 151.243 272.943 183.355 272.943 183.355Z" fill="white"/>
</mask>
<g mask="url(#mask12_85_279)">
<path d="M372.054 282.951C372.054 282.951 320.591 250.354 287.092 301.816C253.592 353.348 346.808 527.989 346.808 527.989L433.504 500.038L372.054 282.951Z" fill="#EAA697"/>
<mask id="mask13_85_279" style="mask-type:luminance" maskUnits="userSpaceOnUse" x="279" y="272" width="155" height="256">
<path d="M372.054 282.951C372.054 282.951 320.591 250.354 287.092 301.816C253.592 353.348 346.808 527.989 346.808 527.989L433.504 500.038L372.054 282.951Z" fill="white"/>
</mask>
<g mask="url(#mask13_85_279)">
<path d="M379.128 410.637C379.128 410.637 338.901 405.158 318.995 419.931C299.09 434.773 342.715 491.16 342.715 491.16L379.821 475.277L384.884 459.117L379.128 410.637Z" fill="#1D204F"/>
<mask id="mask14_85_279" style="mask-type:luminance" maskUnits="userSpaceOnUse" x="313" y="409" width="72" height="83">
<path d="M379.128 410.637C379.128 410.637 338.901 405.158 318.995 419.931C299.09 434.773 342.715 491.16 342.715 491.16L379.821 475.277L384.884 459.117L379.128 410.637Z" fill="white"/>
</mask>
<g mask="url(#mask14_85_279)">
<path d="M372.053 419.445C372.053 419.445 345.351 414.105 322.116 424.092" stroke="#6548CC" stroke-width="7.6518" stroke-miterlimit="10"/>
</g>
</g>
</g>
<path d="M365.881 459.95C363.246 478.607 346.669 487.554 334.809 469.868L310.465 500.107C307.691 504.477 304.223 508.43 300.2 511.759L287.3 520.498C278.908 526.186 280.572 539.086 290.144 542.415L290.49 542.554C295.415 544.288 312.823 541.028 337.653 531.734C362.413 522.51 387.798 504.269 387.798 504.269C403.75 494.143 404.166 482.421 387.867 480.133L371.915 458.285C370.043 455.927 366.297 456.968 365.881 459.95Z" fill="#6F46D0"/>
<mask id="mask15_85_279" style="mask-type:luminance" maskUnits="userSpaceOnUse" x="281" y="456" width="119" height="87">
<path d="M365.881 459.95C363.246 478.607 346.669 487.554 334.809 469.868L310.465 500.107C307.691 504.477 304.223 508.43 300.2 511.759L287.3 520.498C278.908 526.186 280.572 539.086 290.144 542.415L290.49 542.554C295.415 544.288 312.823 541.028 337.653 531.734C362.413 522.51 387.798 504.269 387.798 504.269C403.75 494.143 404.166 482.421 387.867 480.133L371.915 458.285C370.043 455.927 366.297 456.968 365.881 459.95Z" fill="white"/>
</mask>
<g mask="url(#mask15_85_279)">
<path d="M282.237 533.676C292.363 541.305 316.846 529.792 334.74 521.469C353.882 512.592 381.417 496.016 387.798 480.202C393.485 466.261 418.87 488.802 419.216 489.565C419.494 490.398 384.261 543.317 379.822 546.16C375.452 549.004 331.827 562.529 326.764 565.927C321.631 569.326 307.066 569.326 305.61 568.632C304.153 567.938 286.814 554.969 286.814 554.969L282.237 533.676Z" fill="#151A4F"/>
</g>
<mask id="mask16_85_279" style="mask-type:luminance" maskUnits="userSpaceOnUse" x="281" y="456" width="119" height="87">
<path d="M365.881 459.95C363.246 478.607 346.669 487.554 334.809 469.868L310.465 500.107C307.691 504.477 304.223 508.43 300.2 511.759L287.3 520.498C278.908 526.186 280.572 539.086 290.144 542.415L290.49 542.554C295.415 544.288 312.823 541.028 337.653 531.734C362.413 522.51 387.798 504.269 387.798 504.269C403.75 494.143 404.166 482.421 387.867 480.133L371.915 458.285C370.043 455.927 366.297 456.968 365.881 459.95Z" fill="white"/>
</mask>
<g mask="url(#mask16_85_279)">
<path d="M330.024 489.219C330.648 489.219 331.203 488.941 331.55 488.386C332.104 487.554 331.827 486.444 330.925 485.889L318.441 478.26C317.609 477.705 316.499 477.983 315.944 478.884C315.389 479.717 315.667 480.826 316.568 481.381L329.053 489.01C329.33 489.08 329.677 489.219 330.024 489.219Z" fill="white"/>
</g>
<mask id="mask17_85_279" style="mask-type:luminance" maskUnits="userSpaceOnUse" x="281" y="456" width="119" height="87">
<path d="M365.881 459.95C363.246 478.607 346.669 487.554 334.809 469.868L310.465 500.107C307.691 504.477 304.223 508.43 300.2 511.759L287.3 520.498C278.908 526.186 280.572 539.086 290.144 542.415L290.49 542.554C295.415 544.288 312.823 541.028 337.653 531.734C362.413 522.51 387.798 504.269 387.798 504.269C403.75 494.143 404.166 482.421 387.867 480.133L371.915 458.285C370.043 455.927 366.297 456.968 365.881 459.95Z" fill="white"/>
</mask>
<g mask="url(#mask17_85_279)">
<path d="M325.377 496.64C326.001 496.64 326.556 496.362 326.903 495.807C327.457 494.975 327.18 493.866 326.278 493.311L313.794 485.681C312.962 485.127 311.852 485.404 311.297 486.306C310.742 487.138 311.02 488.248 311.921 488.802L324.406 496.432C324.752 496.57 325.099 496.64 325.377 496.64Z" fill="white"/>
</g>
<mask id="mask18_85_279" style="mask-type:luminance" maskUnits="userSpaceOnUse" x="281" y="456" width="119" height="87">
<path d="M365.881 459.95C363.246 478.607 346.669 487.554 334.809 469.868L310.465 500.107C307.691 504.477 304.223 508.43 300.2 511.759L287.3 520.498C278.908 526.186 280.572 539.086 290.144 542.415L290.49 542.554C295.415 544.288 312.823 541.028 337.653 531.734C362.413 522.51 387.798 504.269 387.798 504.269C403.75 494.143 404.166 482.421 387.867 480.133L371.915 458.285C370.043 455.927 366.297 456.968 365.881 459.95Z" fill="white"/>
</mask>
<g mask="url(#mask18_85_279)">
<path d="M320.175 503.437C320.799 503.437 321.354 503.159 321.701 502.604C322.256 501.772 321.978 500.662 321.077 500.108L308.592 492.478C307.76 491.923 306.65 492.201 306.096 493.102C305.541 493.935 305.818 495.045 306.72 495.599L319.204 503.229C319.481 503.367 319.828 503.437 320.175 503.437Z" fill="white"/>
</g>
<mask id="mask19_85_279" style="mask-type:luminance" maskUnits="userSpaceOnUse" x="281" y="456" width="119" height="87">
<path d="M365.881 459.95C363.246 478.607 346.669 487.554 334.809 469.868L310.465 500.107C307.691 504.477 304.223 508.43 300.2 511.759L287.3 520.498C278.908 526.186 280.572 539.086 290.144 542.415L290.49 542.554C295.415 544.288 312.823 541.028 337.653 531.734C362.413 522.51 387.798 504.269 387.798 504.269C403.75 494.143 404.166 482.421 387.867 480.133L371.915 458.285C370.043 455.927 366.297 456.968 365.881 459.95Z" fill="white"/>
</mask>
<g mask="url(#mask19_85_279)">
<path d="M315.458 510.234C316.083 510.234 316.637 509.956 316.984 509.401C317.539 508.569 317.262 507.46 316.36 506.905L303.876 499.275C303.043 498.721 301.934 498.998 301.379 499.9C300.824 500.732 301.101 501.842 302.003 502.396L314.487 510.026C314.834 510.164 315.181 510.234 315.458 510.234Z" fill="white"/>
</g>
<mask id="mask20_85_279" style="mask-type:luminance" maskUnits="userSpaceOnUse" x="281" y="456" width="119" height="87">
<path d="M365.881 459.95C363.246 478.607 346.669 487.554 334.809 469.868L310.465 500.107C307.691 504.477 304.223 508.43 300.2 511.759L287.3 520.498C278.908 526.186 280.572 539.086 290.144 542.415L290.49 542.554C295.415 544.288 312.823 541.028 337.653 531.734C362.413 522.51 387.798 504.269 387.798 504.269C403.75 494.143 404.166 482.421 387.867 480.133L371.915 458.285C370.043 455.927 366.297 456.968 365.881 459.95Z" fill="white"/>
</mask>
<g mask="url(#mask20_85_279)">
<path d="M343.618 487.346C364.425 487.346 368.933 471.255 368.933 471.047C369.072 470.561 368.794 470.076 368.309 469.937C367.823 469.798 367.338 470.076 367.199 470.561C366.991 471.186 362.621 486.375 341.814 485.473C341.26 485.404 340.913 485.82 340.843 486.305C340.843 486.791 341.19 487.207 341.676 487.276C342.369 487.346 342.993 487.346 343.618 487.346Z" fill="#151A4F"/>
</g>
<mask id="mask21_85_279" style="mask-type:luminance" maskUnits="userSpaceOnUse" x="281" y="456" width="119" height="87">
<path d="M365.881 459.95C363.246 478.607 346.669 487.554 334.809 469.868L310.465 500.107C307.691 504.477 304.223 508.43 300.2 511.759L287.3 520.498C278.908 526.186 280.572 539.086 290.144 542.415L290.49 542.554C295.415 544.288 312.823 541.028 337.653 531.734C362.413 522.51 387.798 504.269 387.798 504.269C403.75 494.143 404.166 482.421 387.867 480.133L371.915 458.285C370.043 455.927 366.297 456.968 365.881 459.95Z" fill="white"/>
</mask>
<g mask="url(#mask21_85_279)">
<path d="M320.799 530.139C321.076 530.139 321.354 530 321.492 529.792L343.687 501.98L333.769 503.922L343.409 491.716C343.687 491.299 343.687 490.745 343.27 490.467C342.854 490.19 342.3 490.19 342.022 490.606L329.33 506.627L339.178 504.685L320.105 528.613C319.759 529.03 319.828 529.584 320.244 529.862C320.383 530.07 320.591 530.139 320.799 530.139Z" fill="#151A4F"/>
</g>
<mask id="mask22_85_279" style="mask-type:luminance" maskUnits="userSpaceOnUse" x="281" y="456" width="119" height="87">
<path d="M365.881 459.95C363.246 478.607 346.669 487.554 334.809 469.868L310.465 500.107C307.691 504.477 304.223 508.43 300.2 511.759L287.3 520.498C278.908 526.186 280.572 539.086 290.144 542.415L290.49 542.554C295.415 544.288 312.823 541.028 337.653 531.734C362.413 522.51 387.798 504.269 387.798 504.269C403.75 494.143 404.166 482.421 387.867 480.133L371.915 458.285C370.043 455.927 366.297 456.968 365.881 459.95Z" fill="white"/>
</mask>
<g mask="url(#mask22_85_279)">
<path d="M333.838 524.868C334.116 524.868 334.393 524.729 334.532 524.521L359.084 493.796L349.166 495.738L358.807 483.531C359.084 483.115 359.084 482.56 358.668 482.283C358.252 482.006 357.697 482.006 357.42 482.422L344.727 498.443L354.576 496.501L333.145 523.412C332.798 523.828 332.867 524.382 333.283 524.66C333.422 524.799 333.63 524.868 333.838 524.868Z" fill="#151A4F"/>
</g>
<path d="M342.647 273.103C342.647 273.103 358.46 274.559 370.459 281.287C371.152 246.747 367.407 192.649 334.532 172.605L342.647 273.103Z" fill="#6548CC"/>
<path d="M91.9217 11.3501C81.5182 11.0034 56.3417 17.1761 48.9899 29.591C41.7074 42.0058 44.2043 69.9566 40.2509 74.8116C38.4476 77.031 32.2055 80.0827 34.0088 84.5215C34.7717 86.5329 41.43 89.3765 41.43 89.3765C41.43 89.3765 42.3316 117.258 55.9949 122.806C80.4778 132.794 102.88 113.443 110.717 104.912C118.485 96.3815 137.489 72.5922 135.27 42.9768C133.952 24.3892 121.26 12.3905 91.9217 11.3501Z" fill="#EAA697"/>
<path d="M66.8147 95.272C66.8147 95.272 63.2776 103.872 53.637 101.653" stroke="#1D204F" stroke-width="4.4646" stroke-miterlimit="10" stroke-linecap="round"/>
<path d="M69.2424 64.2695C69.2424 64.2695 65.0116 54.2127 53.5677 60.8016" stroke="#1D204F" stroke-width="4.4646" stroke-miterlimit="10" stroke-linecap="round"/>
<path d="M54.6773 79.2507C56.0562 79.2507 57.1741 76.3939 57.1741 72.8698C57.1741 69.3458 56.0562 66.489 54.6773 66.489C53.2983 66.489 52.1804 69.3458 52.1804 72.8698C52.1804 76.3939 53.2983 79.2507 54.6773 79.2507Z" fill="#1D204F"/>
<path d="M99.6206 160.883C99.6206 160.883 94.2108 136.262 86.2347 122.321L121.953 83.7587C121.953 83.7587 119.526 100.543 130.831 113.513L99.6206 160.883Z" fill="#EAA697"/>
<mask id="mask23_85_279" style="mask-type:luminance" maskUnits="userSpaceOnUse" x="86" y="83" width="45" height="78">
<path d="M99.6206 160.883C99.6206 160.883 94.2108 136.262 86.2347 122.321L121.953 83.7587C121.953 83.7587 119.526 100.543 130.831 113.513L99.6206 160.883Z" fill="white"/>
</mask>
<g mask="url(#mask23_85_279)">
<path d="M103.088 112.056C94.2798 119.755 82.8359 123.5 82.8359 123.5L84.5699 135.776C100.938 127.245 103.088 112.056 103.088 112.056Z" fill="#6F46D0"/>
</g>
<path d="M106.348 61.4258C106.348 61.4258 110.648 55.3224 118.208 56.987C125.768 58.6515 123.41 74.8117 116.613 79.3199C109.816 83.8281 105.169 78.0714 105.169 78.0714" stroke="#1D204F" stroke-width="4.4646" stroke-miterlimit="10" stroke-linecap="round"/>
<path d="M126.67 82.0248C126.67 82.0248 122.231 75.2278 121.953 68.847C121.676 62.4662 119.873 58.3741 114.324 58.929C103.99 59.9693 100.383 74.6729 100.383 74.6729C100.383 74.6729 86.1653 59.0677 86.1653 48.3174C86.1653 41.8672 98.3721 37.7751 95.3204 35.5557C87.3444 29.6604 54.7467 38.8155 47.7417 32.0879C33.5236 18.3552 36.6446 2.12575 52.1805 1.43219C67.7164 0.738618 116.474 -3.56149 135.27 14.1938C148.101 26.2619 156.562 52.9643 126.67 82.0248Z" fill="#1D204F"/>
<path d="M161.348 97.7688C147.685 95.1333 122.717 90.3477 111.619 110.669C100.592 131.06 93.2399 192.163 101.701 201.596C113.215 214.358 138.044 214.912 138.044 214.912C138.044 214.912 177.925 240.852 204.835 245.429C204.835 245.429 222.174 220.53 252.76 222.472C252.76 222.472 216.279 171.01 212.048 155.196C207.887 139.452 198.454 104.843 161.348 97.7688Z" fill="#EAA697"/>
<path d="M123.826 98.8091C118 131.337 139.362 156.236 166.48 153.601C194.084 150.896 209.967 140.284 209.967 140.284C216.695 144.168 227.306 142.157 245.686 157.832C254.009 164.837 278.769 154.364 285.219 192.163C279.532 262.283 216.209 248.204 216.209 248.204C138.807 241.407 72.8487 207.56 98.0252 154.433C98.0252 154.433 101.84 169.067 106.625 164.698C114.671 157.277 105.169 125.095 111.689 110.738C115.572 101.791 123.826 98.8091 123.826 98.8091Z" fill="#1D204F"/>
<mask id="mask24_85_279" style="mask-type:luminance" maskUnits="userSpaceOnUse" x="92" y="98" width="194" height="152">
<path d="M123.826 98.8091C118 131.337 139.362 156.236 166.48 153.601C194.084 150.896 209.967 140.284 209.967 140.284C216.695 144.168 227.306 142.157 245.686 157.832C254.009 164.837 278.769 154.364 285.219 192.163C279.532 262.283 216.209 248.204 216.209 248.204C138.807 241.407 72.8487 207.56 98.0252 154.433C98.0252 154.433 101.84 169.067 106.625 164.698C114.671 157.277 105.169 125.095 111.689 110.738C115.572 101.791 123.826 98.8091 123.826 98.8091Z" fill="white"/>
</mask>
<g mask="url(#mask24_85_279)">
<path d="M186.872 134.042C186.872 134.042 187.218 171.148 195.402 193.966L213.713 172.605C213.713 172.605 214.753 232.182 253.94 262.214" stroke="#6F46D0" stroke-width="19.1295" stroke-miterlimit="10"/>
</g>
<path d="M191.177 285.525L262.614 286.213L262.728 274.353L191.291 273.665L191.177 285.525Z" fill="#1D204F"/>
<path d="M268.712 311.873C262.054 311.803 256.644 306.324 256.713 299.666L257.129 259.439C257.199 252.781 262.678 247.371 269.336 247.44C275.994 247.51 281.404 252.989 281.335 259.647L280.919 299.874C280.849 306.602 275.37 311.942 268.712 311.873Z" fill="#1D204F"/>
<path d="M185.692 310.902C179.034 310.833 173.624 305.353 173.693 298.695L174.11 258.468C174.179 251.81 179.658 246.4 186.316 246.47C192.975 246.539 198.384 252.018 198.315 258.676L197.899 298.903C197.83 305.631 192.35 310.971 185.692 310.902Z" fill="#1D204F"/>
<path d="M142.622 148.122C160.932 163.519 220.37 155.127 230.497 147.567C230.497 147.567 217.735 171.356 227.445 247.995C228.069 253.197 247.766 256.11 247.766 256.11C247.766 256.11 289.727 143.822 276.341 116.426C257.546 78.0021 131.386 106.508 131.386 106.508C131.386 106.508 116.682 126.344 142.622 148.122Z" fill="#EAA697"/>
<path d="M227.514 247.995C227.514 247.995 209.065 265.404 206.637 270.883C204.418 276.016 208.302 287.806 208.302 287.806C213.018 296.406 241.177 303.897 245.061 286.558C248.945 269.219 251.303 252.712 251.303 252.712C243.605 246.539 235.698 243.973 227.514 247.995Z" fill="#1D204F"/>
<path d="M239.166 269.773C239.166 269.773 238.819 260.965 234.727 259.509C230.705 258.052 225.919 260.896 222.312 265.196C218.775 269.565 239.166 277.125 239.166 269.773Z" fill="#EAA697"/>
<path d="M295.623 290.858C295.623 290.858 309.702 331.085 314.002 347.939C318.302 364.792 326.001 411.608 327.804 429.433" stroke="#1D204F" stroke-width="4.4646" stroke-miterlimit="10" stroke-linecap="round"/>
<path d="M276.41 236.482C276.41 236.482 286.12 255.694 289.311 267.832" stroke="#1D204F" stroke-width="4.4646" stroke-miterlimit="10" stroke-linecap="round"/>
</svg>
