<svg width="1159" height="570" viewBox="0 0 1159 570" fill="none" xmlns="http://www.w3.org/2000/svg">
<g clip-path="url(#clip0_85_749)">
<path d="M1399 487.637V575.124H182.462L660.272 313.392L1399 487.637Z" fill="#C0C8D3"/>
<g opacity="0.1">
<path d="M1399 518.742V575.124H840.181L837.927 574.542L1036.22 429.507L1399 518.742Z" fill="#FFFDFF"/>
<path d="M761.356 575.124H93L305.454 462.943L761.356 575.124Z" fill="#FFFDFF"/>
<path d="M822.923 570.899L1021.22 425.865L581.024 317.544L330.531 449.758L822.923 570.899Z" fill="#FFFDFF"/>
</g>
<g opacity="0.2">
<path d="M1356.1 519.179C1353.64 513.497 1347.08 509.418 1336.52 506.868C1322.01 503.372 1305.03 503.008 1285.73 505.849C1266.43 508.69 1246.35 514.371 1225.5 522.894C1204.72 531.417 1185 542.053 1166.33 554.801C1155.97 561.867 1148.01 568.641 1142.45 575.051H1196.76C1196.76 574.687 1196.83 574.396 1196.97 574.032C1198.03 570.098 1202.61 565.363 1210.78 559.827C1218.6 554.436 1227.05 549.774 1236.14 545.695C1245.22 541.688 1254.03 538.775 1262.62 537.099C1271.22 535.424 1278.54 535.278 1284.67 536.808C1291.36 538.41 1294.11 541.251 1292.98 545.185C1291.86 549.191 1287.21 553.926 1279.11 559.463C1271.29 564.853 1262.76 569.515 1253.61 573.522C1252.41 574.032 1251.21 574.542 1250.01 575.051H1307.07C1312.64 571.701 1318.13 568.204 1323.56 564.489C1336.45 555.675 1345.68 547.37 1351.31 539.43C1357.02 531.636 1358.64 524.861 1356.1 519.179Z" fill="#1F152E"/>
<path d="M1218.39 479.697L1154.14 516.338L1194.86 474.015L1151.96 463.599L1110.47 509.272C1097.79 509.491 1084.55 511.676 1070.74 515.756C1056.93 519.908 1043.97 525.371 1031.78 532.291C1028.33 534.185 1024.81 536.444 1021.08 538.92C1008.54 547.516 1001.92 555.238 1001.28 562.085C1000.79 567.549 1004.73 571.919 1013.26 575.052H1106.81L1257.55 489.094L1218.39 479.697ZM1086.38 555.019L1070.88 551.304C1067.71 550.503 1066.23 549.337 1066.44 547.662C1066.65 545.986 1068.41 544.02 1071.65 541.834C1072.85 541.033 1073.84 540.377 1074.68 539.867C1079.97 536.881 1084.76 534.914 1089.12 534.04C1093.42 533.093 1097.44 533.093 1101.24 533.967L1116.74 537.682L1086.38 555.019Z" fill="#1F152E"/>
<path d="M1100.54 451.142L1022.7 495.578L1064.33 442.328L1017.91 431.182L970.5 495.578L841.661 534.04L885.828 544.748L996.986 510.438L921.542 553.417L960.567 562.886L1139.63 460.685L1100.54 451.142Z" fill="#1F152E"/>
<path d="M966.977 424.991C964.512 419.309 957.96 415.229 947.394 412.68C932.883 409.183 915.906 408.819 896.605 411.66C877.304 414.501 857.228 420.183 836.377 428.778C815.597 437.301 795.873 447.937 777.206 460.685C764.315 469.499 755.157 477.803 749.663 485.598C744.168 493.392 742.759 500.094 745.366 505.703C747.972 511.312 754.734 515.464 765.512 518.087C779.953 521.583 796.718 521.875 815.878 519.034C835.039 516.193 854.903 510.584 875.473 502.206C896.042 493.829 915.766 483.194 934.503 470.373C947.394 461.559 956.622 453.254 962.257 445.314C967.893 437.447 969.443 430.672 966.977 424.991ZM903.79 450.996C902.663 455.003 898.014 459.738 889.913 465.274C882.094 470.664 873.571 475.327 864.413 479.333C855.256 483.339 846.45 486.18 837.856 487.783C829.262 489.386 821.936 489.459 815.878 488.002C809.468 486.472 806.721 483.704 807.778 479.77C808.834 475.836 813.413 471.102 821.584 465.492C829.403 460.102 837.856 455.44 846.943 451.36C856.03 447.354 864.836 444.44 873.43 442.765C882.024 441.089 889.35 440.944 895.408 442.401C902.17 444.222 904.917 447.063 903.79 450.996Z" fill="#1F152E"/>
<path d="M816.161 380.919C805.242 378.297 792.703 377.641 778.404 378.952C764.174 380.264 748.606 383.833 731.841 389.442C715.076 395.124 697.888 402.918 680.418 412.971L579.545 470.592L618.5 479.989L719.373 422.368C727.685 417.633 735.575 414.282 743.112 412.17C750.579 410.057 757.2 409.693 762.836 411.077C767.415 412.17 769.316 413.991 768.542 416.468C767.767 418.944 764.879 421.931 759.807 425.355C757.271 427.103 754.664 428.706 751.988 430.235L651.114 487.856L689.998 497.253L790.872 439.632C797.352 435.99 803.27 432.275 808.764 428.56C825.952 416.832 834.969 406.779 835.884 398.475C836.659 390.098 830.108 384.27 816.161 380.919Z" fill="#1F152E"/>
<path d="M716.132 358.119L677.107 348.649L542.492 425.428L509.455 417.415L464.935 442.838L569.753 468.188L614.273 442.838L581.587 434.897L716.132 358.119Z" fill="#1F152E"/>
</g>
<path d="M466.751 363.789L747.252 432.555L776.979 444.064L679.346 501.685L378.627 418.714L411.031 400.94L466.751 363.789Z" fill="#1F152E"/>
<path d="M428.148 408.079L496.9 371.146L505.424 343.101L440.405 344.776L428.148 369.835V408.079Z" fill="#1F152E"/>
<path d="M747.252 432.555L678.5 469.414L652.577 465.481L630.247 401.523C627.993 395.039 622.146 390.086 614.539 388.192L462.172 350.677C456.114 349.22 449.351 352.498 447.309 357.888L428.148 408.006L411.031 400.94L433.854 341.207C433.925 340.915 434.065 340.697 434.206 340.405C434.277 340.333 434.277 340.187 434.347 340.114C434.488 339.896 434.629 339.604 434.77 339.386C434.84 339.313 434.911 339.167 434.981 339.094C435.192 338.73 435.404 338.439 435.686 338.074C435.756 338.002 435.826 337.856 435.967 337.783C436.601 336.982 437.376 336.253 438.151 335.671C438.221 335.598 438.362 335.525 438.503 335.452C438.926 335.161 439.349 334.869 439.771 334.578C439.983 334.432 440.194 334.286 440.405 334.214C440.405 334.214 440.405 334.214 440.476 334.214C440.687 334.068 440.898 333.995 441.11 333.922L441.251 333.849C441.462 333.777 441.673 333.704 441.884 333.558C441.955 333.558 441.955 333.558 442.025 333.485C442.237 333.412 442.518 333.267 442.73 333.194C443.012 333.121 443.293 333.048 443.505 332.902L442.589 332.611L511.059 300.195C517.046 297.354 523.879 296.626 530.008 298.155L702.098 340.551C711.185 342.809 718.089 348.637 720.836 356.431L747.252 432.555Z" fill="#6F7AFA"/>
<path opacity="0.1" d="M651.873 393.218L678.5 469.414L652.577 465.481L630.247 401.523C627.993 395.039 622.146 390.086 614.539 388.192L462.172 350.677C456.114 349.22 449.351 352.498 447.309 357.888L428.148 408.006L411.031 400.94L433.854 341.207C433.925 340.915 434.065 340.697 434.206 340.405C434.277 340.333 434.277 340.187 434.347 340.114C434.488 339.896 434.629 339.604 434.77 339.386C434.84 339.313 434.911 339.167 434.981 339.094C435.192 338.73 435.404 338.439 435.686 338.074C435.756 338.002 435.826 337.856 435.967 337.783C436.601 336.982 437.376 336.253 438.151 335.671C438.221 335.598 438.362 335.525 438.503 335.452C438.926 335.161 439.349 334.869 439.771 334.578C439.983 334.432 440.194 334.286 440.405 334.214C440.405 334.214 440.405 334.214 440.476 334.214C440.687 334.068 440.898 333.995 441.11 333.922L441.251 333.849C441.462 333.777 441.673 333.704 441.884 333.558C441.955 333.558 441.955 333.558 442.025 333.485C442.237 333.412 442.518 333.267 442.73 333.194C443.012 333.121 443.293 333.048 443.505 332.902C446.111 332.101 448.929 332.028 451.676 332.684L633.206 377.338L701.957 340.478C711.044 342.736 717.948 348.564 720.695 356.359L651.873 393.218Z" fill="white"/>
<path d="M596.928 560.835C623.539 560.835 645.111 556.562 645.111 551.292C645.111 546.022 623.539 541.749 596.928 541.749C570.318 541.749 548.746 546.022 548.746 551.292C548.746 556.562 570.318 560.835 596.928 560.835Z" fill="#1F152E"/>
<path d="M598.407 489.155C598.407 492.361 599.112 494.91 599.957 494.91H670.963C671.033 494.91 671.104 494.91 671.104 494.91L736.474 471.381H806.212C807.057 471.381 807.762 468.904 807.762 465.845V465.626C807.762 462.421 807.057 459.872 806.212 459.872H735.206C735.136 459.872 735.065 459.872 734.995 459.944C734.854 459.872 734.713 459.872 734.572 459.872L669.202 483.401H599.957C599.112 483.401 598.407 485.95 598.407 489.155Z" fill="#949CAB"/>
<path opacity="0.2" d="M669.202 483.4C669.202 483.4 670.47 485.804 670.47 489.155H601.789V483.4H669.202Z" fill="white"/>
<path opacity="0.2" d="M735.276 459.871C735.276 459.871 737.108 462.13 737.108 465.772H807.832V465.553C807.832 462.348 807.127 459.799 806.282 459.799H735.276V459.871Z" fill="white"/>
<path d="M608.903 554.279C614.679 554.279 619.399 525.141 619.399 489.155C619.399 453.17 614.679 424.032 608.903 424.032H598.407V554.279H608.903Z" fill="#4E4265"/>
<path opacity="0.1" d="M611.016 434.011C611.932 437.726 612.777 442.243 613.482 447.561H602.986C602.282 442.243 601.436 437.726 600.521 434.011H611.016Z" fill="white"/>
<path d="M598.408 554.279C604.204 554.279 608.903 525.122 608.903 489.155C608.903 453.188 604.204 424.032 598.408 424.032C592.611 424.032 587.912 453.188 587.912 489.155C587.912 525.122 592.611 554.279 598.408 554.279Z" fill="#1F152E"/>
<path d="M594.322 544.299C599.253 544.299 603.197 519.604 603.197 489.155C603.197 458.706 599.253 434.011 594.322 434.011H585.375V544.299H594.322Z" fill="#4E4265"/>
<path d="M585.376 544.299C590.278 544.299 594.251 519.61 594.251 489.155C594.251 458.7 590.278 434.011 585.376 434.011C580.474 434.011 576.5 458.7 576.5 489.155C576.5 519.61 580.474 544.299 585.376 544.299Z" fill="#1F152E"/>
<path d="M580.938 544.299C585.869 544.299 589.813 519.604 589.813 489.155C589.813 458.706 585.869 434.011 580.938 434.011H572.062V544.299H580.938Z" fill="#4E4265"/>
<path opacity="0.1" d="M580.585 499.645H586.996C587.066 496.221 587.137 492.725 587.137 489.155C587.137 477.791 586.573 467.156 585.657 458.415H579.247C580.233 467.229 580.726 477.791 580.726 489.155C580.726 492.725 580.656 496.221 580.585 499.645Z" fill="white"/>
<path opacity="0.1" d="M579.106 520.697H585.517C586.01 516.108 586.432 511.009 586.714 505.473H580.304C580.093 511.009 579.67 516.108 579.106 520.697Z" fill="white"/>
<path d="M572.062 544.299C576.964 544.299 580.938 519.61 580.938 489.155C580.938 458.7 576.964 434.011 572.062 434.011C567.16 434.011 563.187 458.7 563.187 489.155C563.187 519.61 567.16 544.299 572.062 544.299Z" fill="#1F152E"/>
<path d="M572.062 531.114C574.863 531.114 577.134 512.1 577.134 488.645C577.134 465.19 574.863 446.177 572.062 446.177C569.261 446.177 566.99 465.19 566.99 488.645C566.99 512.1 569.261 531.114 572.062 531.114Z" stroke="#4E4265" stroke-miterlimit="10" stroke-linejoin="round"/>
<path d="M572.414 489.155C572.414 492.36 571.71 494.91 570.865 494.91H563.539C562.693 494.91 561.989 492.36 561.989 489.155C561.989 486.023 562.693 483.4 563.539 483.4H570.865C571.71 483.4 572.414 485.95 572.414 489.155Z" fill="#A2ABBB"/>
<path d="M565.088 489.155C565.088 492.288 564.384 494.91 563.539 494.91C562.693 494.91 561.989 492.36 561.989 489.155C561.989 485.95 562.693 483.4 563.539 483.4C564.384 483.4 565.088 485.95 565.088 489.155Z" fill="#1F152E"/>
<path opacity="0.2" d="M570.864 483.4C571.71 483.4 572.414 485.95 572.414 489.155H566.215C566.215 489.009 566.215 488.864 566.215 488.718C566.215 488.645 566.215 488.645 566.215 488.572C566.215 488.427 566.215 488.281 566.215 488.135C566.215 488.062 566.215 487.99 566.215 487.917C566.215 487.771 566.215 487.625 566.215 487.48C566.215 487.407 566.215 487.407 566.215 487.334C566.215 487.043 566.145 486.751 566.145 486.46V486.387C565.863 484.639 565.37 483.4 564.736 483.4H570.864Z" fill="white"/>
<path opacity="0.1" d="M596.647 499.645H603.057C603.127 496.221 603.198 492.725 603.198 489.155C603.198 477.791 602.634 467.156 601.718 458.415H595.308C596.294 467.229 596.787 477.791 596.787 489.155C596.787 492.725 596.787 496.221 596.647 499.645Z" fill="white"/>
<path opacity="0.1" d="M595.167 520.697H601.577C602.07 516.108 602.493 511.009 602.775 505.473H596.364C596.153 511.009 595.731 516.108 595.167 520.697Z" fill="white"/>
<path d="M278.388 573L339.602 540.729L386.658 573H278.388Z" fill="#1F152E"/>
<path d="M509.015 507.949V513.558C509.015 513.558 477.739 549.398 447.66 573.073H358.058C353.831 571.325 349.675 569.358 345.589 567.172L347.773 565.715L351.507 563.166L359.537 557.775L365.243 553.915L367.497 552.385L371.583 549.617L452.098 495.347C452.098 495.347 454.634 496.294 458.861 497.678C461.678 498.625 465.271 499.791 469.356 501.029C476.823 503.287 485.91 505.91 495.068 507.949H509.015Z" fill="#1F152E"/>
<path d="M509.015 507.949C509.015 507.949 471.188 548.961 441.884 573H364.609C361.228 571.762 357.846 570.378 354.465 568.848C352.211 567.828 349.957 566.808 347.773 565.643C347.069 565.278 346.294 564.914 345.589 564.55L348.407 562.656L358.128 556.1L365.877 550.855L367.849 549.544L371.442 547.14L452.169 492.725C452.169 492.725 455.691 494.036 461.326 495.857C464.355 496.877 467.948 497.969 471.892 499.208C482.741 502.486 496.618 506.128 509.015 507.949Z" fill="#5495F9"/>
<path d="M366.088 564.841C366.088 564.841 415.257 541.239 471.822 499.208C460.34 495.784 452.098 492.725 452.098 492.725L367.779 549.544C366.793 558.868 366.088 564.841 366.088 564.841Z" fill="#1F152E"/>
<path d="M325.231 520.624L344.321 541.312L366.088 564.841C366.088 564.841 465.341 493.453 469.286 489.811C473.231 486.096 470.343 470.944 459.635 462.785C458.367 461.838 457.029 460.964 455.62 460.236C445.547 454.991 433.924 456.229 429.204 456.885C423.851 457.54 325.231 520.624 325.231 520.624Z" fill="#5495F9"/>
<path opacity="0.1" d="M325.231 523.611L344.321 544.299L455.55 463.222C445.476 457.978 433.853 459.216 429.134 459.871C423.851 460.527 325.231 523.611 325.231 523.611Z" fill="white"/>
<path d="M371.583 550.199C371.512 534.392 357.776 521.571 341.997 517.638C326.218 513.704 320.019 524.558 319.596 533.955C319.103 543.352 323.4 555.809 339.531 564.477C357.494 574.093 371.653 567.172 371.583 550.199Z" fill="#1F152E"/>
<path d="M365.947 548.597C365.877 536.213 355.099 526.233 342.842 523.101C330.515 520.041 325.654 528.492 325.302 535.849C324.95 543.206 328.261 552.895 340.87 559.742C354.888 567.318 365.947 561.927 365.947 548.597Z" stroke="white" stroke-miterlimit="10" stroke-linejoin="round"/>
<path d="M358.692 546.557C358.692 538.544 351.718 532.134 343.758 530.094C335.798 528.127 332.699 533.591 332.417 538.326C332.206 543.061 334.319 549.325 342.49 553.696C351.577 558.649 358.692 555.153 358.692 546.557Z" stroke="white" stroke-miterlimit="10" stroke-linejoin="round"/>
<path d="M351.577 544.517C351.577 540.875 348.407 537.961 344.744 537.014C341.152 536.14 339.672 538.617 339.602 540.73C339.531 542.842 340.447 545.756 344.181 547.723C348.337 549.981 351.577 548.451 351.577 544.517Z" stroke="white" stroke-miterlimit="10" stroke-linejoin="round"/>
<path d="M1085.31 296.051C1075.3 287.965 1038.88 231.51 1038.88 231.51C1036.91 214.755 1038.11 171.922 1005.42 149.632C972.739 127.341 922.162 130.474 922.162 130.474L888.068 120.785L878.628 79.4819C878.628 79.4819 882.644 73.1444 883.207 68.7737C883.207 68.7737 890.815 64.403 890.251 56.7542C889.688 49.1055 884.968 47.5029 884.968 47.5029C884.968 47.5029 884.475 36.7218 883.207 30.0929C881.939 23.464 869.612 15.5967 869.612 15.5967C869.612 15.5967 870.528 13.1928 875.67 12.5372C875.67 12.5372 869.612 6.70962 862.568 16.1795L829.037 19.7489L863.483 146.354L1015.36 284.031L1022.54 403.57L1078.12 416.536C1092.35 374.141 1095.31 304.064 1085.31 296.051Z" fill="white"/>
<path d="M601.086 172.651C601.086 172.651 586.082 161.141 582.841 156.989C579.672 152.91 595.803 140.672 599.254 133.46C602.706 126.176 609.891 136.884 607.074 145.115C604.326 153.274 601.086 172.651 601.086 172.651Z" fill="#D36265"/>
<path d="M552.692 216.212H515.499C504.158 216.212 495 187.22 495 151.453C495 115.686 504.158 86.6936 515.499 86.6936H552.692C574.318 86.6936 582.842 115.686 582.842 151.453V151.526C582.842 187.293 574.67 216.212 552.692 216.212Z" fill="#4E4265"/>
<path opacity="0.1" d="M556.426 189.77H505.003C505.003 189.77 500.776 174.691 500.776 155.459H556.496V189.77H556.426Z" fill="white"/>
<path opacity="0.1" d="M556.426 101.044H508.736C508.736 101.044 504.65 109.13 503.312 118.163H556.496V101.044H556.426Z" fill="white"/>
<path d="M564.245 208.418C573.893 208.418 581.714 182.914 581.714 151.453C581.714 119.992 573.893 94.488 564.245 94.488C554.596 94.488 546.775 119.992 546.775 151.453C546.775 182.914 554.596 208.418 564.245 208.418Z" fill="#1F152E"/>
<path d="M564.879 166.678C565.301 166.678 565.794 166.532 566.147 166.241C566.921 165.803 567.908 164.856 568.542 162.962V162.598V140.38V140.016C567.908 138.122 566.992 137.175 566.147 136.738C565.724 136.447 565.301 136.301 564.879 136.301C561.92 136.301 559.525 143.149 559.525 151.526C559.455 159.903 561.85 166.678 564.879 166.678Z" fill="#949CAB"/>
<path d="M660.046 162.962H568.471C566.217 162.962 564.385 157.79 564.385 151.453C564.385 145.115 566.217 140.016 568.471 140.016H660.046V162.962Z" fill="#A2ABBB"/>
<path opacity="0.2" d="M660.046 162.962H573.05C572.134 160.85 571.5 157.645 571.5 154.002C571.5 147.665 573.331 142.566 575.586 142.566H660.046V162.962Z" fill="white"/>
<path opacity="0.2" d="M561.92 142.202C563.54 142.202 564.949 155.095 561.568 158.883C559.666 160.996 559.032 142.129 561.92 142.202Z" fill="white"/>
<path d="M646.944 140.016C646.944 140.016 641.59 151.599 646.944 162.962H660.117V140.016H646.944Z" fill="#1F152E"/>
<path d="M777.544 256.423C739.365 325.48 673.853 371.008 659.412 364.889C644.972 358.698 625.037 341.943 604.045 310.62C590.238 290.077 610.666 186.564 610.666 186.564L678.08 192.319C682.729 132.878 740.562 122.461 778.249 122.096C796.775 121.878 810.441 124.136 810.441 124.136C810.441 124.136 815.654 187.366 777.544 256.423Z" fill="#E6927D"/>
<path opacity="0.2" d="M770.359 170.247C759.018 186.2 707.877 215.193 678.08 192.319C682.729 132.877 740.562 122.461 778.249 122.024C785.293 122.388 781.63 154.367 770.359 170.247Z" fill="white"/>
<path d="M810.441 124.136C810.441 124.136 708.863 118.163 678.08 192.319C682.729 132.878 740.562 122.461 778.249 122.096C796.775 121.878 810.441 124.136 810.441 124.136Z" fill="white"/>
<path opacity="0.2" d="M659.694 200.988C659.906 201.425 672.937 249.721 678.08 278.641C678.08 278.641 735.983 248.701 712.174 215.047C694.211 189.77 659.694 200.988 659.694 200.988Z" fill="white"/>
<path d="M610.666 186.564C610.666 186.564 597.071 169.956 597.141 161.797C597.212 154.294 603.904 136.228 610.244 135.354C616.583 134.48 619.401 136.301 619.401 136.301C619.401 136.301 627.009 136.083 629.545 135.209C632.081 134.407 639.829 136.301 639.829 136.301C639.829 136.301 646.24 130.619 653.143 135.354C653.143 135.354 668.429 167.333 652.298 190.207L610.666 186.564Z" fill="#E6927D"/>
<path opacity="0.2" d="M620.035 190.134C623.135 189.405 634.899 319.798 629.545 324.752C624.191 329.705 606.44 305.739 605.242 295.832C604.115 285.998 615.456 191.226 620.035 190.134Z" fill="white"/>
<path d="M678.08 278.641C678.08 278.641 687.378 285.415 691.323 294.667" stroke="#D36265" stroke-miterlimit="10" stroke-linecap="round" stroke-linejoin="round"/>
<path d="M640.322 263.125C640.322 263.125 638.632 298.892 652.298 326.209" stroke="#D36265" stroke-miterlimit="10" stroke-linecap="round" stroke-linejoin="round"/>
<path d="M968.654 570.968H700.903C695.268 542.704 703.368 491.057 711.399 451.794C717.386 422.51 723.304 400.146 723.515 399.418L957.595 389.438C969.077 425.861 968.654 570.968 968.654 570.968Z" fill="#1F152E"/>
<path d="M913.075 439.046C913.075 439.046 925.966 466.508 952.241 484.428C952.241 484.428 943.576 541.903 952.241 571.041H921.317C921.317 570.968 896.662 492.514 913.075 439.046Z" fill="#DC3B56"/>
<path opacity="0.05" d="M836.504 570.968H700.832C690.971 521.652 723.022 401.02 723.444 399.418C723.444 399.418 745.986 492.15 827.276 514.805C827.347 514.805 832.348 551.446 836.504 570.968Z" fill="white"/>
<path opacity="0.1" d="M783.813 403.497C783.813 403.497 786.983 463.813 809.454 474.521C809.454 474.521 794.591 449.754 790.646 404.298L783.813 403.497Z" fill="white"/>
<path d="M767.753 570.968C767.753 570.968 728.798 546.201 718.795 521.433C718.795 521.433 699.072 556.691 754.439 570.968H767.753Z" fill="#1F152E"/>
<path d="M711.329 570.968H700.833C695.197 542.704 703.298 491.057 711.329 451.794C711.399 452.231 714.005 463.74 715.344 474.958C715.344 474.885 705.975 531.705 711.329 570.968Z" fill="#DC3B56"/>
<path d="M970.767 558.366H933.574C922.233 558.366 913.075 529.374 913.075 493.607C913.075 457.84 922.233 428.847 933.574 428.847H970.767C992.393 428.847 1000.92 457.84 1000.92 493.607V493.679C1000.92 529.446 992.745 558.366 970.767 558.366Z" fill="#4E4265"/>
<path opacity="0.1" d="M974.43 531.923H923.007C923.007 531.923 918.781 516.844 918.781 497.613H974.501V531.923H974.43Z" fill="white"/>
<path opacity="0.1" d="M974.43 443.198H926.741C926.741 443.198 922.655 451.284 921.317 460.316H974.501V443.198H974.43Z" fill="white"/>
<path d="M982.32 550.644C991.968 550.644 999.789 525.14 999.789 493.68C999.789 462.219 991.968 436.715 982.32 436.715C972.671 436.715 964.85 462.219 964.85 493.68C964.85 525.14 972.671 550.644 982.32 550.644Z" fill="#1F152E"/>
<path d="M1019.3 510.725C1019.3 510.725 1009.37 509.268 1004.3 510.361C999.226 511.381 998.029 492.805 1000.92 482.17C1002.4 476.925 1015.15 483.627 1018.95 485.958C1018.88 486.031 1025.57 500.818 1019.3 510.725Z" fill="#D36265"/>
<path d="M956.961 345.148C956.961 274.707 934.701 140.016 919.626 134.553C884.194 121.805 873.487 203.901 877.925 247.754C884.124 308.434 956.961 357.532 956.961 345.148Z" fill="#1F152E"/>
<path d="M960.131 393.153C879.967 425.278 781.207 412.166 738.449 404.007C724.924 401.458 717.034 399.345 717.034 399.345C717.034 399.345 717.809 395.921 718.866 389.365C721.331 374.141 725.487 342.162 725.98 297.872C726.262 275.217 725.487 249.357 723.092 220.874C717.739 157.718 810.511 124.063 810.511 124.063L883.208 125.739L919.697 134.553C907.158 151.744 885.955 224.298 891.097 258.608C892.154 265.674 894.056 272.376 896.592 278.641C899.761 286.581 903.918 293.865 908.496 300.494C915.4 310.401 923.43 318.851 930.897 325.626C944.845 338.301 957.031 345.148 957.031 345.148C960.13 374.141 960.131 393.153 960.131 393.153Z" fill="white"/>
<path d="M960.131 393.153C879.967 425.278 781.207 412.166 738.449 404.007C747.395 375.816 758.243 325.553 741.83 278.641C742.534 279.223 775.29 305.666 896.592 278.641C899.762 286.581 903.918 293.865 908.496 300.494C915.4 310.401 923.43 318.851 930.897 325.626C944.845 338.301 957.031 345.148 957.031 345.148C960.131 374.141 960.131 393.153 960.131 393.153Z" fill="#C4DBFF"/>
<path d="M779.023 198.948C779.023 198.948 826.924 207.617 833.405 222.768C839.886 237.92 796.775 247.099 780.08 239.523C780.08 239.523 763.315 245.278 756.764 253.218C756.764 253.218 845.803 257.224 849.043 225.682C851.368 203.1 779.023 198.948 779.023 198.948Z" fill="#B9194A"/>
<path d="M935.828 362.048C927.798 375.816 919.556 392.643 919.556 392.643C913.921 363.578 910.328 325.48 908.497 300.567C915.4 310.474 923.43 318.924 930.897 325.699C933.222 347.625 935.828 362.048 935.828 362.048Z" fill="#DC3B56"/>
<path d="M738.237 327.52C738.237 327.52 736.617 342.016 735.349 363.942C729.925 370.863 723.656 379.386 718.795 389.438C721.261 374.214 725.417 342.234 725.91 297.945C727.248 301.295 732.813 315.573 738.237 327.52Z" fill="#DC3B56"/>
<path d="M809.172 151.453C809.172 151.453 822.979 176.293 867.921 149.559C867.921 149.559 849.747 177.095 824.811 171.85C806.989 168.135 809.172 151.453 809.172 151.453Z" fill="#C4DBFF"/>
<path d="M982.883 508.904C983.306 508.904 983.799 508.758 984.151 508.467C984.926 508.03 985.912 507.083 986.546 505.189V504.825V482.607V482.243C985.912 480.349 984.997 479.402 984.151 478.965C983.729 478.673 983.306 478.528 982.883 478.528C979.925 478.528 977.53 485.375 977.53 493.752C977.53 502.13 979.925 508.904 982.883 508.904Z" fill="#949CAB"/>
<path d="M1078.12 505.116H986.547C984.292 505.116 982.461 499.944 982.461 493.607C982.461 487.269 984.292 482.17 986.547 482.17H1078.12V505.116Z" fill="#A2ABBB"/>
<path opacity="0.2" d="M1078.12 505.116H991.125C990.209 503.004 989.575 499.799 989.575 496.156C989.575 489.819 991.407 484.72 993.661 484.72H1078.12V505.116Z" fill="white"/>
<path opacity="0.2" d="M979.995 484.355C981.615 484.355 983.024 497.249 979.643 501.037C977.741 503.149 977.037 484.355 979.995 484.355Z" fill="white"/>
<path d="M1064.95 482.17C1064.95 482.17 1059.6 493.752 1064.95 505.116H1078.12V482.17H1064.95Z" fill="#1F152E"/>
<path d="M1123.13 558.366H1085.94C1074.6 558.366 1065.44 529.374 1065.44 493.607C1065.44 457.84 1074.6 428.847 1085.94 428.847H1123.13C1144.76 428.847 1153.28 457.84 1153.28 493.607V493.679C1153.28 529.446 1145.11 558.366 1123.13 558.366Z" fill="#4E4265"/>
<path opacity="0.1" d="M1126.87 443.198H1078.4C1078.4 443.198 1071.78 458.204 1071.15 477.508H1126.87V443.198Z" fill="white"/>
<path opacity="0.15" d="M1123.13 558.366H1085.94C1072.35 542.923 1071.22 493.607 1071.22 493.607H1117.29L1153.35 493.68C1153.28 529.446 1145.11 558.366 1123.13 558.366Z" fill="white"/>
<path d="M1135.25 550.644C1145.21 550.644 1153.28 525.14 1153.28 493.68C1153.28 462.219 1145.21 436.715 1135.25 436.715C1125.29 436.715 1117.22 462.219 1117.22 493.68C1117.22 525.14 1125.29 550.644 1135.25 550.644Z" fill="#4E4265"/>
<path d="M1146.8 526.606C1144.9 530.248 1142.65 532.36 1140.32 532.36C1133.14 532.36 1127.29 513.056 1127.29 489.236C1127.29 470.733 1130.81 454.999 1135.74 448.88C1128.7 451.284 1123.2 470.369 1123.2 493.68C1123.2 518.52 1129.47 538.698 1137.22 538.698C1140.96 538.698 1144.27 534.109 1146.8 526.606Z" fill="white"/>
<path d="M1141.24 512.401C1144.51 512.401 1147.16 504.019 1147.16 493.679C1147.16 483.34 1144.51 474.958 1141.24 474.958C1137.97 474.958 1135.32 483.34 1135.32 493.679C1135.32 504.019 1137.97 512.401 1141.24 512.401Z" fill="#1F152E"/>
<path d="M803.889 56.1715C803.889 56.1715 795.507 50.5624 790.998 44.2249C786.49 37.9602 794.661 26.5235 801.142 21.8614C801.142 21.8614 792.971 18.8748 786.138 23.1726C786.138 23.1726 787.053 14.4312 797.338 6.12685C807.623 -2.1775 832.559 5.98116 832.559 5.98116C832.559 5.98116 829.601 0.0807037 826.572 -1.30335C826.572 -1.30335 841.364 -3.41586 848.409 -0.283522C855.453 2.84882 860.807 10.6433 860.807 10.6433C860.807 10.6433 870.034 6.12685 874.754 10.7161C874.754 10.7161 868.907 12.0273 867.146 15.451C867.146 15.451 873.909 20.186 878.488 27.4705C883.066 34.755 885.884 69.2836 873.063 76.2767L803.889 56.1715Z" fill="#1F152E"/>
<path opacity="0.1" d="M855.03 31.7683C855.03 31.7683 834.32 33.298 824.67 22.517C824.67 22.517 821.993 28.4174 824.247 31.7683C824.247 31.7683 812.201 25.8678 823.331 13.2656C823.261 13.2656 839.251 27.5433 855.03 31.7683Z" fill="white"/>
<path opacity="0.1" d="M841.294 16.0338C841.294 16.0338 850.663 20.186 860.947 19.4575C860.947 19.4575 849.606 29.9472 841.294 16.0338Z" fill="white"/>
<path opacity="0.1" d="M797.479 35.2649C797.479 35.2649 806.143 29.0731 808.538 22.5898C808.538 22.5898 816.287 33.5166 797.479 35.2649Z" fill="white"/>
<path d="M883.137 125.739C883.137 125.739 861.018 153.493 834.391 151.963C833.052 151.89 831.714 151.744 830.446 151.453C815.23 148.612 806.496 135.573 806.496 135.573C811.708 123.408 816.71 98.3489 817.837 92.7398C817.978 92.0113 818.048 91.5742 818.048 91.5742L861.088 66.6612L871.303 60.7607C873.979 75.8397 883.137 125.739 883.137 125.739Z" fill="#E6927D"/>
<path d="M876.093 128.434C861.229 137.248 839.533 148.175 830.516 151.453C815.301 148.612 806.566 135.573 806.566 135.573C811.779 123.408 816.78 98.3489 817.907 92.7398L861.159 66.6613C861.159 66.6613 868.696 98.2761 868.203 103.958C867.639 111.242 834.672 141.837 833.827 142.566C834.602 142.129 837.842 143.877 862.074 129.017C865.103 127.196 876.093 128.434 876.093 128.434Z" fill="#D36265"/>
<path d="M808.539 134.407C808.539 134.407 811.286 133.606 815.512 134.407C819.668 135.208 824.67 146.499 824.67 146.499C824.67 146.499 810.3 136.884 808.539 134.407Z" fill="#E6927D"/>
<path d="M873.698 53.4762C873.698 53.4762 879.897 47.43 885.673 50.0525C889.97 52.0193 884.475 70.0849 876.374 68.5551C869.471 67.3168 869.612 58.6482 869.612 58.6482L873.698 53.4762Z" fill="#E6927D"/>
<path d="M875.036 59.5223C874.684 57.9925 878.981 54.4231 880.671 54.496C882.362 54.5688 877.502 58.0654 876.163 58.721C876.163 58.721 880.249 58.2839 880.249 60.615C880.249 62.5818 878.276 62.946 877.713 62.8003C877.149 62.6546 879.544 60.5421 878.488 60.1779C877.361 59.668 875.177 60.1051 875.036 59.5223Z" fill="#D36265"/>
<path d="M802.903 75.4025C802.903 75.4025 790.717 95.7992 785.152 103.084C783.179 105.779 800.79 118.818 825.022 118.017C849.254 117.216 870.669 98.8587 872.571 89.4616C874.613 79.4819 869.401 39.5627 869.401 39.5627L857.073 38.6157L802.903 75.4025Z" fill="#1F152E"/>
<path d="M855.031 81.5944C855.031 81.5944 844.394 74.3099 832.63 72.853C829.601 72.4887 826.22 72.4887 822.838 72.6344C812.906 73.1444 802.903 75.4026 802.903 75.4026C804.664 64.7672 803.608 43.205 803.608 43.205C805.721 37.5231 815.653 35.2649 815.653 35.2649C818.541 39.4899 822.909 41.6024 826.995 42.5494C832.489 43.8606 837.49 43.2778 837.49 43.2778C831.08 41.3839 828.051 31.7683 828.051 31.7683C845.732 42.6222 857.144 38.5429 857.144 38.5429C866.865 60.3236 855.031 81.5944 855.031 81.5944Z" fill="#E6927D"/>
<path d="M822.838 72.6345C812.906 73.1444 802.903 75.4026 802.903 75.4026C804.664 64.7672 803.608 43.205 803.608 43.205C805.721 37.5231 815.653 35.2649 815.653 35.2649C818.541 39.4899 822.909 41.6024 826.995 42.5494C826.995 42.5494 830.798 57.4098 822.838 72.6345Z" fill="#D36265"/>
<path d="M840.872 59.0124C840.801 60.6878 839.956 61.999 838.899 61.999C837.843 61.999 837.068 60.615 837.068 58.9395C837.138 57.2641 837.984 55.9529 839.04 55.9529C840.097 56.0257 840.942 57.4098 840.872 59.0124Z" fill="#1F152E"/>
<path d="M838.195 58.2839C838.195 58.6481 837.772 58.9395 837.35 58.9395C836.857 58.9395 836.504 58.6481 836.504 58.2839C836.504 57.9197 836.927 57.6283 837.35 57.6283C837.843 57.6283 838.265 57.9925 838.195 58.2839Z" fill="white"/>
<path d="M820.302 59.7408C820.232 61.4162 819.387 62.7274 818.33 62.7274C817.273 62.7274 816.499 61.3434 816.499 59.6679C816.569 57.9925 817.414 56.6813 818.471 56.6813C819.528 56.6813 820.373 58.0653 820.302 59.7408Z" fill="#1F152E"/>
<path d="M817.626 59.0123C817.626 59.3765 817.203 59.6679 816.78 59.6679C816.287 59.6679 815.935 59.3765 815.935 59.0123C815.935 58.6481 816.358 58.3567 816.78 58.3567C817.273 58.3567 817.626 58.6481 817.626 59.0123Z" fill="white"/>
<path d="M832.841 53.6218C832.841 53.6218 832.63 50.7808 833.616 49.5425C834.18 48.814 841.647 47.1386 843.126 47.5028C845.944 48.3041 845.873 52.6748 845.873 52.6748C845.873 52.6748 835.095 53.2576 832.841 53.6218Z" fill="#1F152E"/>
<path d="M811.145 53.7674C811.145 53.7674 810.934 50.9265 811.92 49.6881C812.483 48.9597 819.95 47.2842 821.43 47.6484C824.247 48.4497 824.177 52.8204 824.177 52.8204C824.177 52.8204 813.399 53.4032 811.145 53.7674Z" fill="#1F152E"/>
<path d="M824.6 81.5944C824.6 81.5944 840.731 80.2103 845.873 84.2896C845.873 84.2896 843.689 91.7198 827.91 93.7595C827.91 93.6866 822.838 90.4086 824.6 81.5944Z" fill="white"/>
<path d="M1053.26 465.998H1016.34V466.508C1016.34 465.634 1016.13 426.88 1011.91 388.855C1007.89 352.797 1016.34 333.129 1016.55 332.692C1016.55 332.692 993.872 331.672 976.896 319.871C952.17 302.679 961.75 241.708 962.525 237.265C962.525 237.192 962.525 237.119 962.596 237.046V237.119C962.525 237.41 962.244 238.139 961.891 239.231V239.304C959.355 246.152 950.409 266.548 932.517 274.853C932.517 274.853 935.969 300.64 947.732 339.248C946.887 338.811 901.311 312.295 890.463 259.919C888.631 251.105 887.786 241.562 888.279 231.364C889.124 214.173 888.279 189.114 895.957 167.989C901.1 153.857 908.919 141.546 919.696 134.771C919.696 134.771 967.527 134.771 1000.42 158.3C1031.14 180.227 1035.64 216.067 1033.18 237.046C1033.18 237.046 1056.57 273.25 1078.12 297.726C1091.86 313.242 1070.37 420.98 1053.26 465.998Z" fill="#E6927D"/>
<path d="M1050.09 514.804C1046.49 514.804 1038.6 514.804 1038.6 514.804C1038.6 514.804 1024.66 514.367 1019.94 514.804C1015.15 515.242 1010.29 505.116 1010.29 505.116C1010.29 505.116 1011.98 498.851 1012.4 494.918C1012.82 490.984 1010.71 482.17 1010.71 482.17H1000.99C1000.99 479.183 1003.66 475.832 1006.76 472.991C1011.13 468.985 1016.41 465.925 1016.41 465.925H1053.33C1053.33 465.925 1058.19 484.792 1060.51 488.362C1062.84 491.931 1053.68 514.804 1050.09 514.804Z" fill="#E6927D"/>
<path opacity="0.2" d="M1033.18 236.827C1033.18 236.827 1002.47 248.046 986.546 236.827C970.626 225.609 936.251 141.327 974.43 146.499C1012.68 151.671 1037.97 194.067 1033.18 236.827Z" fill="white"/>
<path opacity="0.2" d="M1016.55 332.546C1016.55 332.546 993.872 331.526 976.896 319.725C952.17 302.534 961.751 241.562 962.525 237.119C962.525 237.046 962.525 236.973 962.596 236.9C966.118 228.086 1009.58 260.575 1019.51 285.197C1029.45 309.818 1025.15 323.513 1016.55 332.546Z" fill="white"/>
<path opacity="0.2" d="M1025.15 460.316C1025.15 456.019 1015.36 376.472 1015.36 365.472C1015.36 354.472 1030.29 324.752 1033.88 324.752C1041 324.752 1032.97 402.405 1039.8 426.152C1039.8 426.152 1053.54 383.902 1054.1 365.472C1054.66 347.042 1061.85 384.048 1054.1 416.682C1046.35 449.317 1025.15 466.435 1025.15 460.316Z" fill="white"/>
<path opacity="0.2" d="M929.488 230.563C922.162 243.238 902.438 256.496 890.322 259.774C888.491 250.959 887.645 241.417 888.139 231.218C888.984 214.027 888.139 188.968 895.817 167.843C896.31 167.625 913.216 160.34 929.418 161.506C929.488 161.506 943.788 205.868 929.488 230.563Z" fill="white"/>
<path d="M962.596 236.827C962.596 236.9 962.596 236.9 962.596 236.827C962.244 238.066 953.65 264.873 932.447 274.707C932.447 274.707 918.992 273.541 906.806 264.509C937.73 256.568 938.434 228.086 938.434 228.086C952.171 238.576 962.596 236.827 962.596 236.827Z" fill="#D36265"/>
<path d="M1010.64 482.17H1000.92C1000.92 479.183 1003.59 475.832 1006.69 472.991C1010 475.759 1010.64 482.17 1010.64 482.17Z" fill="#D36265"/>
<path d="M1062.62 332.546C1062.62 332.546 1069.74 357.75 1065.51 388.71" stroke="#D36265" stroke-miterlimit="10" stroke-linecap="round" stroke-linejoin="round"/>
<path d="M1033.18 236.827C1033.18 236.827 1033.18 249.43 1027.83 251.396C1022.47 253.363 1010.64 248.993 1010.64 248.993" stroke="#D36265" stroke-miterlimit="10" stroke-linecap="round" stroke-linejoin="round"/>
<path d="M1016.55 332.546C1016.55 332.546 1025.5 318.05 1030.85 315.573C1036.21 313.096 1040.93 315.573 1040.93 315.573" stroke="#D36265" stroke-miterlimit="10" stroke-linecap="round" stroke-linejoin="round"/>
<path d="M705.129 216.212H667.936C656.595 216.212 647.437 187.22 647.437 151.453C647.437 115.686 656.595 86.6936 667.936 86.6936H705.129C726.755 86.6936 735.279 115.686 735.279 151.453V151.526C735.279 187.293 727.107 216.212 705.129 216.212Z" fill="#4E4265"/>
<path opacity="0.1" d="M708.862 101.044H660.398C660.398 101.044 653.777 116.05 653.143 135.354H708.862V101.044Z" fill="white"/>
<path opacity="0.15" d="M705.129 216.212H667.936C654.34 200.769 653.213 151.453 653.213 151.453H699.283L735.349 151.526C735.279 187.293 727.107 216.212 705.129 216.212Z" fill="white"/>
<path d="M717.245 208.418C727.205 208.418 735.278 182.914 735.278 151.453C735.278 119.992 727.205 94.488 717.245 94.488C707.286 94.488 699.212 119.992 699.212 151.453C699.212 182.914 707.286 208.418 717.245 208.418Z" fill="#4E4265"/>
<path d="M728.728 184.452C726.826 188.094 724.572 190.207 722.247 190.207C715.062 190.207 709.215 170.903 709.215 147.082C709.215 128.58 712.737 112.845 717.668 106.726C710.624 109.13 705.129 128.215 705.129 151.526C705.129 176.366 711.399 196.544 719.147 196.544C722.881 196.544 726.262 191.955 728.728 184.452Z" fill="white"/>
<path d="M723.162 170.174C726.43 170.174 729.079 161.792 729.079 151.453C729.079 141.114 726.43 132.732 723.162 132.732C719.894 132.732 717.245 141.114 717.245 151.453C717.245 161.792 719.894 170.174 723.162 170.174Z" fill="#1F152E"/>
<path d="M573.4 320.883C573.33 317.168 553.465 314.327 528.951 314.618C504.437 314.91 484.572 318.188 484.643 321.903C484.713 325.618 504.578 328.459 529.092 328.167C553.606 327.876 573.47 324.671 573.4 320.883Z" fill="#1F152E"/>
<path d="M553.817 292.91C553.606 275.063 535.502 260.786 518.244 260.931C500.985 261.15 483.164 275.792 483.375 293.712C483.727 323.141 501.619 322.995 518.948 322.777C536.207 322.558 554.169 322.34 553.817 292.91Z" fill="#1F152E"/>
<g opacity="0.1">
<path d="M518.314 263.335C504.367 263.481 490.067 273.898 486.827 287.52L488.306 292.182C489.644 281.328 501.126 272.732 514.088 272.587C527.049 272.441 536.911 280.818 538.531 291.599L550.366 286.718C546.773 273.169 532.191 263.117 518.314 263.335Z" fill="white"/>
</g>
<path d="M534.234 313.744L537.897 318.26C537.897 318.26 546.703 316.148 548.393 306.824L541.49 303.254C541.49 303.254 538.884 311.194 534.234 313.744Z" fill="white"/>
<path d="M519.756 305.794C527.167 302.639 530.701 293.869 527.65 286.205C524.599 278.541 516.118 274.887 508.707 278.042C501.297 281.197 497.762 289.967 500.813 297.631C503.864 305.294 512.345 308.949 519.756 305.794Z" fill="#322744"/>
<path d="M515.427 306.811C522.818 306.726 528.738 299.972 528.649 291.725C528.56 283.479 522.496 276.863 515.105 276.948C507.714 277.033 501.795 283.787 501.883 292.034C501.972 300.28 508.036 306.896 515.427 306.811Z" fill="#4E4265"/>
<path d="M515.708 288.758L510.566 288.831V290.361C510.777 290.142 511.059 289.996 511.411 289.851C511.763 289.705 512.186 289.632 512.609 289.632C513.383 289.632 514.088 289.778 514.651 290.215C515.215 290.579 515.638 291.089 515.919 291.745C516.201 292.4 516.342 293.129 516.342 293.93C516.342 295.387 515.99 296.553 515.215 297.354C514.44 298.155 513.313 298.592 511.975 298.592C510.988 298.592 510.073 298.447 509.368 298.082C508.664 297.718 508.1 297.208 507.678 296.553C507.255 295.897 507.114 295.169 507.114 294.367L510.918 294.294C510.918 294.513 510.988 294.659 511.129 294.804C511.27 294.95 511.481 295.023 511.763 295.023C512.045 295.023 512.256 294.877 512.397 294.659C512.538 294.44 512.609 294.149 512.609 293.784C512.609 293.42 512.538 293.202 512.327 292.983C512.186 292.837 511.904 292.692 511.622 292.692C511.341 292.692 511.2 292.765 511.059 292.91C510.918 293.056 510.847 293.202 510.847 293.347L507.044 293.42L506.973 285.262L515.638 285.189L515.708 288.758Z" fill="#FEFFFF"/>
<path d="M519.864 298.447L518.807 296.917V298.447H517.892L517.821 295.023H518.737V296.48L519.723 294.95H520.78L519.582 296.625L520.921 298.374L519.864 298.447Z" fill="#FEFFFF"/>
<path d="M522.752 295.751C522.893 295.824 522.964 295.897 523.034 296.043V295.678H523.95V298.374C523.95 298.665 523.88 298.884 523.809 299.102C523.739 299.321 523.598 299.466 523.386 299.612C523.175 299.758 522.964 299.831 522.612 299.831C522.189 299.831 521.907 299.758 521.625 299.539C521.344 299.321 521.203 299.102 521.203 298.738H522.119C522.119 298.811 522.189 298.884 522.259 298.956C522.33 299.029 522.4 299.029 522.541 299.029C522.823 299.029 523.034 298.811 523.034 298.446V298.082C522.964 298.228 522.893 298.301 522.752 298.374C522.612 298.446 522.471 298.519 522.259 298.519C522.048 298.519 521.837 298.446 521.696 298.374C521.555 298.228 521.414 298.082 521.273 297.864C521.203 297.645 521.132 297.427 521.132 297.135C521.132 296.844 521.203 296.625 521.273 296.407C521.344 296.188 521.485 296.043 521.696 295.897C521.837 295.751 522.048 295.751 522.259 295.751C522.471 295.678 522.612 295.678 522.752 295.751ZM522.964 296.625C522.893 296.552 522.753 296.48 522.612 296.48C522.471 296.48 522.33 296.552 522.259 296.625C522.189 296.698 522.119 296.844 522.119 297.062C522.119 297.208 522.189 297.354 522.259 297.499C522.33 297.572 522.471 297.645 522.612 297.645C522.753 297.645 522.893 297.572 522.964 297.499C523.034 297.427 523.105 297.281 523.105 297.062C523.105 296.917 523.034 296.771 522.964 296.625Z" fill="#FEFFFF"/>
<path d="M552.69 249.786C545.928 231.502 517.962 233.25 517.962 233.25C517.962 233.25 489.926 232.157 483.586 250.514C479.994 260.931 484.361 270.838 490.63 278.633C493.025 275.063 496.195 271.858 499.788 269.381C495.984 265.521 493.519 260.713 495.702 255.614C499.858 246.217 518.032 246.799 518.032 246.799C518.032 246.799 536.207 245.852 540.574 255.104C542.969 260.13 540.574 265.011 536.84 268.944C536.488 269.308 536.136 269.673 535.784 270.037C535.784 270.037 535.22 272.805 538.602 276.593C540.503 278.706 545.575 278.851 545.575 278.851C545.787 278.56 545.998 278.268 546.209 278.05C552.408 270.11 556.494 260.13 552.69 249.786Z" fill="#1F152E"/>
<path opacity="0.1" d="M494.223 241.919C497.886 235.29 524.302 230.919 539.799 238.641C547.336 242.429 535.784 241.482 519.16 241.482C505.001 241.482 492.603 244.833 494.223 241.919Z" fill="white"/>
<path d="M504.578 237.839C505.494 236.091 514.017 234.634 515.637 235.8C517.187 237.038 503.803 239.369 504.578 237.839Z" fill="white"/>
</g>
<defs>
<clipPath id="clip0_85_749">
<rect width="1306" height="573" fill="white"/>
</clipPath>
</defs>
</svg>
