<svg width="781" height="805" viewBox="0 0 781 805" fill="none" xmlns="http://www.w3.org/2000/svg">
<g clip-path="url(#clip0_85_457)">
<path d="M743.282 252.844V380.675L728.831 409.042L723.014 420.406L699.019 467.684L690.476 484.504L669.844 525.053L653.575 556.966L106.794 679.796L178.05 538.236L225.857 443.409L241.308 412.769L262.485 370.674L291.023 313.941H37.8096L62.8038 223.932L109.793 54.9147L125.062 0H431.082V252.844H743.282Z" fill="#BEC6D1"/>
<g opacity="0.1">
<path d="M109.793 54.9147L62.8037 223.932H105.612L127.516 96.9189H171.324L178.595 54.9147H109.793Z" fill="#1F152E"/>
<path d="M309.565 67.0977C300.385 58.9151 286.933 54.9147 269.301 54.9147H192.501L163.417 223.932H215.132L225.584 163.289L246.307 223.932H303.111L278.481 159.289C290.569 155.47 300.476 149.197 308.019 140.56C315.654 131.922 320.38 121.831 322.471 110.375C323.107 107.193 323.38 103.647 323.38 99.6465C323.289 86.0087 318.744 75.1895 309.565 67.0977ZM269.574 113.648C268.665 118.557 266.756 122.194 263.848 124.467C260.939 126.831 257.031 127.922 252.123 127.922H231.583L236.491 99.2828H256.94C261.121 99.2828 264.302 100.283 266.484 102.283C268.665 104.283 269.756 107.011 269.756 110.557C269.756 111.83 269.665 112.83 269.574 113.648Z" fill="#1F152E"/>
<path d="M397.18 54.9147L307.747 223.932H362.007L374.64 198.384H429.627L431.172 208.93V54.9147H397.18ZM394.09 158.471L417.176 111.466L423.901 158.471H394.09Z" fill="#1F152E"/>
</g>
<g opacity="0.1">
<path d="M298.294 382.675C289.933 375.22 277.935 371.22 262.484 370.674L241.308 412.769H245.67C254.759 412.769 259.303 416.588 259.303 424.134C259.303 424.952 259.122 426.225 258.849 428.134C257.031 438.408 250.851 443.5 240.399 443.5H225.857V443.409L178.05 538.237H209.406L218.676 484.958H238.944C252.214 484.958 263.939 482.413 274.209 477.412C284.479 472.321 292.659 465.502 298.84 456.956C305.02 448.318 309.019 438.772 310.837 428.225C311.655 423.498 312.018 419.406 312.018 415.951C311.927 401.768 307.383 390.767 298.294 382.675Z" fill="#1F152E"/>
<path d="M436.898 370.583L426.446 430.953H377.73L388.092 370.583H336.831L308.019 538.237H359.28L370.55 472.866H419.266L407.996 538.237H459.257L488.159 370.583H436.898Z" fill="#1F152E"/>
<path d="M610.494 370.583L574.23 430.044L558.325 370.583H499.702L538.238 487.322L529.422 538.237H580.683L589.408 487.322L668.117 370.583H610.494Z" fill="#1F152E"/>
<path d="M734.465 367.765C721.196 367.765 709.471 369.947 699.11 374.402C688.84 378.857 680.751 385.312 675.025 393.949C669.299 402.586 666.39 412.769 666.39 424.589C666.39 433.59 668.481 441.045 672.662 447.045C676.842 453.046 681.75 457.774 687.295 461.229C690.657 463.32 694.566 465.411 699.019 467.593L723.014 420.315C722.65 419.315 722.468 418.224 722.468 417.133C722.468 414.588 723.286 412.587 725.013 410.951C726.104 409.951 727.376 409.314 728.83 408.86L743.282 380.493V367.946C740.373 367.946 737.465 367.765 734.465 367.765ZM655.756 484.504C655.484 487.686 655.302 490.05 655.302 491.595C655.302 505.779 660.119 516.962 669.844 525.053L690.476 484.504H655.756Z" fill="#1F152E"/>
</g>
<path d="M0.181885 754.258L707.563 560.33L780.818 597.606V729.438L328.287 895.545H0.181885V754.258Z" fill="#A38FFD"/>
<path d="M540.874 590.06L780.818 658.703" stroke="white" stroke-miterlimit="10"/>
<path d="M342.648 654.157L690.385 775.533" stroke="white" stroke-miterlimit="10"/>
<path d="M124.698 709.708L464.346 855.723" stroke="white" stroke-miterlimit="10"/>
<path d="M0.181885 797.354L210.042 895.636" stroke="white" stroke-miterlimit="10"/>
<path d="M731.375 563.785L0.181885 831.357" stroke="white" stroke-miterlimit="10"/>
<path d="M291.569 895.636L780.818 644.611" stroke="white" stroke-miterlimit="10"/>
<path d="M563.96 177.654H573.866L561.96 165.744L573.866 153.925H563.96L552.053 165.744L563.96 177.654Z" fill="#1F152E"/>
<path d="M545.418 177.654H555.416L543.51 165.744L555.416 153.925H545.418L533.603 165.744L545.418 177.654Z" fill="#1F152E"/>
<path d="M137.786 731.711C174.278 731.711 203.861 727.884 203.861 723.164C203.861 718.444 174.278 714.618 137.786 714.618C101.293 714.618 71.7104 718.444 71.7104 723.164C71.7104 727.884 101.293 731.711 137.786 731.711Z" fill="#1F152E"/>
<path d="M61.0767 682.978C61.0767 687.979 63.0762 691.979 65.5302 691.979L86.6162 692.07C89.0701 692.07 91.1606 688.07 91.1606 683.069C91.1606 678.069 89.161 674.068 86.7071 674.068L65.6211 673.978C63.0762 673.978 61.0767 677.978 61.0767 682.978Z" fill="#949CAB"/>
<path d="M90.0949 715.986C103.196 715.94 113.765 701.329 113.701 683.353C113.638 665.377 102.965 650.842 89.8641 650.889C76.7629 650.935 66.194 665.545 66.2578 683.522C66.3215 701.498 76.9938 716.033 90.0949 715.986Z" fill="#322744"/>
<path d="M96.3842 720.987C111.493 720.933 123.682 704.078 123.608 683.34C123.535 662.603 111.227 645.835 96.118 645.888C81.009 645.942 68.8203 662.797 68.8938 683.534C68.9673 704.272 81.2752 721.04 96.3842 720.987Z" fill="#1F152E"/>
<path d="M101.155 707.985C111.044 707.95 119.021 696.931 118.973 683.374C118.925 669.817 110.87 658.855 100.981 658.89C91.0925 658.925 83.1151 669.944 83.1632 683.501C83.2113 697.059 91.2665 708.021 101.155 707.985Z" stroke="#322744" stroke-miterlimit="10" stroke-linejoin="round"/>
<path d="M115.678 683.183C115.701 676.706 111.895 671.441 107.176 671.425C102.458 671.408 98.6141 676.645 98.5912 683.123C98.5682 689.6 102.375 694.865 107.093 694.882C111.811 694.898 115.655 689.661 115.678 683.183Z" fill="#322744"/>
<path d="M102.158 683.16C102.158 688.161 104.157 692.161 106.611 692.161L157.781 692.252C160.235 692.252 162.326 688.252 162.326 683.251C162.326 678.251 160.326 674.25 157.872 674.25L106.702 674.159C104.157 674.159 102.158 678.16 102.158 683.16Z" fill="#A2ABBB"/>
<path opacity="0.2" d="M164.144 682.433C164.144 682.342 164.144 682.251 164.144 682.251C164.144 681.978 164.144 681.797 164.234 681.524C164.234 681.433 164.234 681.342 164.234 681.251C164.234 681.069 164.325 680.796 164.325 680.615C164.325 680.524 164.325 680.433 164.325 680.433C164.416 679.978 164.507 679.524 164.598 679.069V678.978C165.325 676.16 166.87 674.341 168.597 674.341L150.874 674.25C150.692 674.25 150.51 674.25 150.419 674.341L136.15 674.25C135.968 674.25 135.786 674.25 135.696 674.341L121.426 674.25C121.244 674.25 121.063 674.25 120.972 674.341L106.702 674.25C104.248 674.25 102.158 678.251 102.158 683.251H103.976C103.976 686.615 104.885 689.434 106.157 691.07H107.248C105.884 689.525 105.066 686.615 105.066 683.251H108.884C108.884 686.615 109.793 689.434 111.065 691.07H112.156C110.792 689.525 109.974 686.615 109.974 683.251H113.792C113.792 686.615 114.7 689.434 115.973 691.07H117.064C115.7 689.525 114.882 686.615 114.882 683.251H118.7C118.7 683.615 118.7 684.07 118.7 684.433C118.881 687.252 119.699 689.616 120.881 691.07H121.972C121.972 691.07 121.972 691.07 121.972 690.979C120.79 689.616 119.972 687.252 119.79 684.433C119.79 684.07 119.79 683.615 119.79 683.251C119.79 683.251 119.79 683.251 119.79 683.16H123.608C123.608 686.524 124.516 689.343 125.789 690.979H126.879C125.516 689.434 124.698 686.524 124.698 683.16H128.515C128.515 686.524 129.424 689.343 130.697 690.979H131.787C130.424 689.434 129.606 686.524 129.606 683.16H133.423C133.423 683.524 133.423 683.979 133.423 684.342C133.605 687.161 134.423 689.525 135.605 690.979H136.695C136.695 690.979 136.695 690.979 136.695 690.888C135.514 689.525 134.696 687.161 134.514 684.342C134.514 683.979 134.514 683.524 134.514 683.16C134.514 683.16 134.514 683.16 134.514 683.069H138.331C138.331 686.433 139.24 689.252 140.513 690.888H141.603C140.24 689.343 139.422 686.433 139.422 683.069H143.239C143.239 686.433 144.148 689.252 145.421 690.888H146.511C145.148 689.343 144.33 686.433 144.33 683.069H148.147C148.147 683.433 148.147 683.888 148.147 684.251C148.329 687.07 149.147 689.434 150.329 690.888H151.419C151.419 690.888 151.419 690.888 151.419 690.798C150.238 689.434 149.42 687.07 149.238 684.251C149.238 683.888 149.238 683.433 149.238 683.069C149.238 683.069 149.238 683.069 149.238 682.979H153.055C153.055 686.343 153.964 689.161 155.237 690.798H156.327C154.964 689.252 154.146 686.343 154.146 682.979H157.963C157.963 686.343 158.872 689.161 160.144 690.798H161.235C159.872 689.252 159.054 686.343 159.054 682.979H162.871C162.871 686.343 163.78 689.161 165.052 690.798H166.143C164.78 689.252 163.962 686.343 163.962 682.979C164.144 682.979 164.144 682.706 164.144 682.433Z" fill="white"/>
<path d="M196.366 683.494C196.439 662.757 184.251 645.902 169.142 645.848C154.033 645.794 141.725 662.562 141.651 683.3C141.578 704.038 153.766 720.893 168.875 720.947C183.984 721 196.292 704.232 196.366 683.494Z" fill="#322744"/>
<path d="M198.995 683.52C199.059 665.544 188.49 650.934 175.389 650.887C162.288 650.841 151.616 665.375 151.552 683.352C151.488 701.328 162.057 715.938 175.158 715.985C188.259 716.031 198.932 701.496 198.995 683.52Z" fill="#4E4265"/>
<path d="M193.179 683.499C193.227 669.942 185.249 658.923 175.361 658.888C165.472 658.853 157.417 669.815 157.369 683.372C157.321 696.93 165.298 707.949 175.187 707.984C185.075 708.019 193.131 697.057 193.179 683.499Z" stroke="#1F152E" stroke-miterlimit="10" stroke-linejoin="round"/>
<path d="M183.817 683.466C183.84 676.989 180.034 671.724 175.315 671.707C170.597 671.691 166.753 676.928 166.73 683.405C166.707 689.883 170.514 695.147 175.232 695.164C179.95 695.181 183.794 689.944 183.817 683.466Z" fill="#1F152E"/>
<path d="M171.415 683.433C171.415 688.434 173.414 692.434 175.868 692.434L196.954 692.525C199.408 692.525 201.498 688.524 201.498 683.524C201.498 678.523 199.499 674.523 197.045 674.523L175.959 674.432C173.414 674.432 171.415 678.433 171.415 683.433Z" fill="#A2ABBB"/>
<path d="M192.5 683.433C192.5 688.434 194.5 692.434 196.954 692.434C199.408 692.434 201.498 688.434 201.498 683.433C201.498 678.433 199.499 674.432 197.045 674.432C194.591 674.523 192.5 678.523 192.5 683.433Z" fill="#322744"/>
<path opacity="0.2" d="M175.959 674.432L193.682 674.523C191.955 674.523 190.501 676.432 189.683 679.16V679.251C189.592 679.705 189.501 680.16 189.41 680.615C189.41 680.705 189.41 680.796 189.41 680.796C189.41 680.978 189.32 681.251 189.32 681.433C189.32 681.524 189.32 681.615 189.32 681.706C189.32 681.978 189.32 682.16 189.229 682.433C189.229 682.524 189.229 682.615 189.229 682.615C189.229 682.888 189.229 683.069 189.229 683.342C189.229 686.706 190.138 689.525 191.41 691.161H190.319C188.956 689.616 188.138 686.706 188.138 683.342H184.321C184.321 686.706 185.23 689.525 186.502 691.161H185.411C184.048 689.616 183.23 686.706 183.23 683.342H179.413C179.413 686.706 180.322 689.525 181.594 691.161H180.503C179.14 689.616 178.322 686.706 178.322 683.342H174.505C174.505 686.706 175.414 689.525 176.686 691.161H175.596C174.232 689.616 173.414 686.706 173.414 683.342H171.596C171.415 678.433 173.414 674.432 175.959 674.432Z" fill="white"/>
<path d="M157.327 652.794C154.146 652.248 148.693 657.976 148.784 661.158C148.965 664.34 160.054 653.248 157.327 652.794Z" fill="white"/>
<path d="M750.734 608.698C750.643 603.789 723.831 600.152 690.657 600.516C657.574 600.879 630.762 605.152 630.762 610.062C630.853 614.972 657.665 618.608 690.839 618.245C724.013 617.79 750.734 613.517 750.734 608.698Z" fill="#1F152E"/>
<path d="M724.286 572.058C724.013 548.692 699.564 530.054 676.206 530.327C652.848 530.599 628.854 549.783 629.126 573.149C629.581 611.608 653.757 611.335 677.115 611.153C700.473 610.789 724.65 610.517 724.286 572.058Z" fill="#1F152E"/>
<g opacity="0.1">
<path d="M676.206 533.418C657.392 533.6 638.033 547.237 633.671 564.966L635.67 571.149C637.488 556.966 653.03 545.783 670.48 545.601C688.022 545.419 701.291 556.329 703.473 570.422L719.469 564.057C714.652 546.328 695.111 533.236 676.206 533.418Z" fill="white"/>
</g>
<path d="M697.838 599.243L702.746 605.152C702.746 605.152 714.652 602.334 716.924 590.151L707.563 585.514C707.654 585.514 704.018 595.97 697.838 599.243Z" fill="white"/>
<path d="M684.536 584.537C692.167 576.903 692.167 564.527 684.536 556.893C676.904 549.259 664.532 549.259 656.901 556.893C649.27 564.527 649.27 576.903 656.901 584.537C664.532 592.171 676.904 592.171 684.536 584.537Z" fill="#322744"/>
<path d="M672.399 590.218C682.387 590.107 690.386 581.266 690.266 570.471C690.146 559.677 681.952 551.016 671.964 551.127C661.976 551.238 653.976 560.079 654.096 570.874C654.216 581.669 662.411 590.329 672.399 590.218Z" fill="#4E4265"/>
<path d="M672.753 566.694L665.845 566.785V568.785C666.118 568.512 666.572 568.33 667.027 568.149C667.481 567.967 668.026 567.876 668.663 567.876C669.753 567.876 670.662 568.149 671.389 568.603C672.116 569.058 672.662 569.785 673.116 570.603C673.48 571.422 673.661 572.422 673.661 573.422C673.661 575.331 673.207 576.786 672.116 577.877C671.026 578.968 669.571 579.513 667.754 579.513C666.39 579.513 665.209 579.332 664.209 578.877C663.209 578.422 662.482 577.786 661.937 576.968C661.392 576.149 661.119 575.149 661.21 574.058L666.39 573.967C666.39 574.24 666.481 574.422 666.663 574.695C666.845 574.876 667.118 575.058 667.481 575.058C667.845 575.058 668.208 574.877 668.39 574.604C668.572 574.331 668.663 573.967 668.663 573.422C668.663 572.967 668.572 572.604 668.299 572.422C668.117 572.149 667.754 572.058 667.39 572.058C667.027 572.058 666.845 572.149 666.663 572.331C666.481 572.513 666.39 572.694 666.39 572.876L661.21 572.967L661.119 562.33L672.753 562.239V566.694Z" fill="#FEFFFF"/>
<path d="M678.388 579.332L676.933 577.331V579.332H675.661L675.57 574.877H676.843V576.786L678.206 574.786H679.66L678.024 576.968L679.751 579.241L678.388 579.332Z" fill="#FEFFFF"/>
<path d="M682.296 575.877C682.478 575.968 682.659 576.058 682.75 576.24V575.786H684.023V579.332C684.023 579.695 683.932 579.968 683.841 580.241C683.75 580.513 683.477 580.695 683.295 580.877C683.023 581.059 682.659 581.15 682.296 581.15C681.75 581.15 681.296 581.059 680.932 580.786C680.569 580.513 680.387 580.15 680.387 579.695H681.66C681.66 579.786 681.75 579.877 681.841 579.968C681.932 580.059 682.114 580.059 682.205 580.059C682.659 580.059 682.841 579.786 682.841 579.332V578.877C682.75 579.059 682.568 579.15 682.387 579.241C682.205 579.332 682.023 579.422 681.75 579.422C681.478 579.422 681.205 579.332 680.932 579.241C680.66 579.059 680.478 578.877 680.387 578.604C680.205 578.331 680.205 577.968 680.205 577.604C680.205 577.24 680.296 576.877 680.387 576.604C680.478 576.331 680.66 576.149 680.932 575.968C681.205 575.786 681.387 575.695 681.66 575.695C681.932 575.695 682.114 575.695 682.296 575.877ZM682.568 576.968C682.477 576.877 682.296 576.786 682.114 576.786C681.932 576.786 681.75 576.877 681.66 576.968C681.569 577.059 681.478 577.24 681.478 577.513C681.478 577.786 681.569 577.968 681.66 578.059C681.75 578.15 681.932 578.241 682.114 578.241C682.296 578.241 682.477 578.15 682.568 578.059C682.659 577.968 682.75 577.786 682.75 577.513C682.75 577.331 682.659 577.149 682.568 576.968Z" fill="#FEFFFF"/>
<path d="M722.741 515.689C713.652 491.777 675.843 494.141 675.843 494.141C675.843 494.141 637.942 492.686 629.399 516.78C624.582 530.418 630.399 543.328 638.942 553.511C642.123 548.783 646.395 544.692 651.303 541.419C646.122 536.327 642.759 530.054 645.85 523.417C651.485 511.143 676.024 511.87 676.024 511.87C676.024 511.87 700.564 510.597 706.472 522.78C709.653 529.326 706.472 535.691 701.382 540.873C700.928 541.328 700.473 541.873 699.928 542.328C699.928 542.328 699.201 545.965 703.745 550.874C706.381 553.693 713.107 553.783 713.107 553.783C713.379 553.42 713.743 553.056 714.016 552.693C722.286 542.237 727.831 529.236 722.741 515.689Z" fill="#1F152E"/>
<path opacity="0.1" d="M643.759 505.506C648.667 496.869 684.386 491.141 705.29 501.233C715.47 506.142 699.837 504.96 677.388 504.96C658.301 504.96 641.578 509.234 643.759 505.506Z" fill="white"/>
<path d="M657.756 500.142C658.938 497.869 670.571 495.959 672.662 497.505C674.752 499.051 656.665 502.142 657.756 500.142Z" fill="white"/>
<path d="M526.059 362.128C526.059 362.128 487.25 370.856 424.356 340.944C424.356 340.944 464.619 324.669 526.059 362.128Z" fill="#1F152E"/>
<path d="M473.526 574.695C468.618 588.787 443.624 585.969 443.624 585.969C423.72 550.51 347.101 453.682 338.648 446.773C330.287 439.863 319.471 429.407 319.289 413.769C319.017 394.313 327.197 375.129 335.831 360.309C345.647 343.58 356.099 332.397 356.099 332.397L432.627 362.128C418.266 392.949 400.361 421.588 400.361 421.588C430.991 433.226 449.35 469.866 455.53 494.959C456.985 500.96 458.621 508.415 460.257 516.234C461.893 524.417 463.983 533.6 465.892 542.237C469.8 559.602 473.526 574.695 473.526 574.695Z" fill="#D16265"/>
<path opacity="0.2" d="M398.816 351.581C398.816 351.581 386.183 372.583 380.275 384.403C377.367 390.13 401.634 372.22 411.086 355.127L398.816 351.581Z" fill="white"/>
<path d="M360.098 335.579C360.098 335.579 319.289 386.766 328.196 399.04C335.104 408.587 365.551 387.312 371.368 378.129C379.457 365.128 390.455 345.762 390.455 345.762L360.098 335.579Z" fill="#E5907D"/>
<path d="M334.468 437.226C334.468 437.226 342.647 444.318 347.646 442.954C352.736 441.59 355.917 434.499 358.735 430.589" stroke="#D16265" stroke-miterlimit="10" stroke-linecap="round" stroke-linejoin="round"/>
<path d="M415.631 470.139C415.631 470.139 432.536 488.231 433.899 494.596C435.262 500.96 441.988 525.599 441.988 525.599" stroke="#D16265" stroke-miterlimit="10" stroke-linecap="round" stroke-linejoin="round"/>
<path d="M357.28 455.228C359.644 456.319 391 479.867 402.997 496.05C414.994 512.234 435.444 556.693 433.717 557.238C431.99 557.784 396.817 505.233 381.729 487.14C367.551 470.139 353.1 453.319 357.28 455.228Z" fill="#E5907D"/>
<path d="M411.086 648.066C411.086 648.066 395.544 663.794 393.454 666.522C392.272 668.795 394.544 671.704 397.635 673.523C400.18 674.977 435.626 669.522 443.624 667.249C451.622 664.976 484.069 642.429 488.704 637.337C493.34 632.246 494.612 623.609 496.521 621.608C498.52 619.608 506.7 618.244 508.609 617.153C510.517 616.062 513.244 613.608 513.244 612.335C513.244 611.062 506.7 601.97 502.519 600.788C498.248 599.697 480.979 605.425 480.979 605.425L411.086 648.066Z" fill="white"/>
<path d="M500.247 604.152C489.25 615.153 454.894 645.702 445.442 649.611C431.809 655.248 405.906 654.612 405.906 654.612C411.086 648.248 415.721 640.883 419.72 633.519C431.627 611.607 438.534 588.787 438.625 588.241C438.625 588.241 422.447 568.694 427.719 566.057C433.081 563.421 457.803 555.511 458.621 558.602C459.348 561.602 460.711 578.786 460.711 578.786C467.618 580.786 473.344 574.786 473.344 574.786C498.975 584.241 500.247 604.152 500.247 604.152Z" fill="#1F152E"/>
<path opacity="0.05" d="M465.164 587.878C457.439 602.879 449.259 632.246 449.259 632.246C436.535 629.155 419.811 633.61 419.811 633.61C431.718 611.698 438.625 588.878 438.716 588.332C448.077 584.605 465.164 587.878 465.164 587.878Z" fill="white"/>
<path d="M435.353 598.152C435.353 598.152 464.983 592.515 475.071 597.879L470.527 609.971C470.527 609.971 446.805 607.607 430.173 611.516L435.353 598.152Z" fill="#B7194A"/>
<path d="M415.903 640.247C415.903 640.247 442.261 632.428 452.713 638.428C452.713 638.428 477.798 617.517 485.069 609.334C485.069 609.334 477.162 594.878 487.432 582.514" stroke="white" stroke-miterlimit="10"/>
<path opacity="0.05" d="M434.353 571.512L450.986 566.603L453.258 573.876L437.353 578.877L434.353 571.512Z" fill="white"/>
<path d="M349.01 193.838C351.464 241.206 363.643 254.117 359.553 263.572C354.645 275.028 330.741 291.211 313.018 298.667C311.382 299.303 309.837 299.939 308.383 300.485C290.387 306.849 237.581 322.669 237.581 322.669L236.581 320.578L227.038 300.576C246.034 291.302 261.666 266.663 273.573 261.845C283.752 257.753 298.294 257.844 302.475 257.935C303.202 257.935 303.566 257.935 303.657 258.026C303.02 257.753 286.661 250.116 284.297 233.842C282.843 223.477 292.932 203.475 292.932 203.475C292.659 202.657 283.207 177.927 292.387 157.107C295.477 150.015 306.747 142.105 316.29 136.377C324.379 131.559 331.287 128.286 331.287 128.286C343.193 130.013 351.555 156.925 351.645 177.291C351.645 183.837 350.827 189.655 349.01 193.838Z" fill="#E5907D"/>
<path d="M359.553 263.572C354.645 275.028 330.741 291.211 313.018 298.667C313.018 298.667 347.192 274.028 350.1 260.299C351.191 254.935 323.016 208.112 348.828 169.744C348.828 169.744 349.919 172.563 351.736 177.291C351.736 183.837 350.918 189.655 349.01 193.838C351.373 241.115 363.552 254.117 359.553 263.572Z" fill="#D16265"/>
<path opacity="0.2" d="M321.925 175.654C316.654 203.293 296.477 211.294 293.023 203.475C292.75 202.657 283.298 177.927 292.477 157.107C295.568 150.015 306.838 142.105 316.381 136.377C328.106 132.923 327.197 148.015 321.925 175.654Z" fill="white"/>
<path d="M237.49 322.669C237.49 322.669 230.219 329.124 228.038 331.215C226.947 332.306 222.13 333.215 217.586 333.761C213.405 334.307 209.497 334.579 208.86 334.488C207.588 334.488 205.861 331.761 205.861 331.761C205.861 331.761 201.226 331.306 200.408 329.397C200.408 329.397 197.318 328.76 196.227 327.579C195.318 326.669 194.591 327.215 193.864 325.851C193.137 324.578 190.319 321.396 190.319 321.396C190.319 321.396 196.772 306.758 201.317 304.849C204.771 303.394 226.947 300.576 226.947 300.576L237.49 322.669Z" fill="#E5907D"/>
<path d="M237.49 322.669C237.49 322.669 230.219 329.124 228.038 331.215C226.947 332.306 222.13 333.216 217.586 333.761C213.405 334.307 209.497 334.579 208.86 334.488C207.588 334.488 205.861 331.761 205.861 331.761C205.861 331.761 201.226 331.306 200.408 329.397C200.408 329.397 197.318 328.761 196.227 327.579C195.318 326.669 194.591 327.215 193.864 325.851C193.137 324.578 190.319 321.396 190.319 321.396C190.319 321.396 195.773 307.758 201.317 304.849C208.133 309.304 205.043 315.486 205.043 315.486C217.495 308.758 236.581 320.487 237.49 322.669Z" fill="#D16265"/>
<path opacity="0.2" d="M303.657 258.026C302.929 257.753 286.66 250.116 284.297 233.842C282.843 223.477 292.932 203.475 292.932 203.475C292.932 203.475 301.839 211.476 307.837 224.568C313.927 237.66 319.017 260.845 303.657 258.026Z" fill="white"/>
<path d="M293.023 203.475C293.023 203.475 297.204 208.93 299.93 208.839C302.657 208.748 307.292 204.748 307.292 204.748" stroke="#D16265" stroke-miterlimit="10" stroke-linecap="round" stroke-linejoin="round"/>
<path d="M301.385 258.026C301.385 258.026 313.2 257.662 316.381 258.844C319.562 260.026 323.925 266.663 323.925 266.663" stroke="#D16265" stroke-miterlimit="10" stroke-linecap="round" stroke-linejoin="round"/>
<path d="M324.833 365.492L321.561 371.583L198.863 273.937L202.135 267.936L296.931 268.3L324.833 365.492Z" fill="#1F152E"/>
<path d="M321.561 371.583L226.765 371.219L198.863 273.937L293.659 274.301L321.561 371.583Z" fill="#4E4265"/>
<path opacity="0.1" d="M293.659 274.301C293.659 274.301 261.212 342.489 226.765 371.219L198.863 273.937L293.659 274.301Z" fill="white"/>
<path d="M523.242 600.515C518.152 560.602 481.615 532.327 441.624 537.509L309.928 554.42C302.293 555.42 295.022 557.602 288.387 560.693L265.938 343.489H243.852L263.484 579.877C250.851 594.969 244.216 615.062 246.943 636.155C252.032 676.069 288.569 704.344 328.56 699.162L460.256 682.251C500.156 677.069 528.332 640.52 523.242 600.515Z" fill="#1F152E"/>
<path d="M472.617 697.616L636.034 731.256H676.751L513.335 697.616H472.617Z" fill="#929AA9"/>
<path d="M232.4 768.896L564.414 716.527V733.62L232.4 785.989V768.896Z" fill="#1F152E"/>
<path d="M636.034 731.256L564.414 716.527V733.62L636.034 748.349V731.256Z" fill="#1F152E"/>
<path d="M545.509 704.253L167.325 763.987L209.224 772.533L587.5 712.891L545.509 704.253Z" fill="#929AA9"/>
<path opacity="0.15" d="M337.558 737.075L359.189 748.894L457.984 733.347L434.172 721.891L337.558 737.075Z" fill="white"/>
<path d="M676.751 731.256H636.034V748.349H676.751V731.256Z" fill="#1F152E"/>
<path d="M105.703 751.258L269.119 784.898H309.837L146.42 751.258H105.703Z" fill="#929AA9"/>
<path d="M269.119 784.898L105.703 751.258L105.066 768.26L269.119 801.99V784.898Z" fill="#1F152E"/>
<path d="M309.837 784.898H269.119V801.99H309.837V784.898Z" fill="#1F152E"/>
<path d="M500.974 721.71L479.07 721.073C479.07 721.073 460.62 691.707 444.26 687.433L489.159 682.251L500.974 721.71Z" fill="#1F152E"/>
<path d="M287.842 667.886L232.4 764.078L217.04 759.713L269.937 667.886H287.842Z" fill="#1F152E"/>
<path d="M457.984 325.669L337.558 544.692H353.827L474.253 325.669H457.984Z" fill="#1F152E"/>
<path d="M573.685 579.513C573.685 639.156 529.149 687.433 474.253 687.433C429.991 687.433 392.545 656.067 379.639 612.699H295.022L265.938 343.489H291.932L313.745 504.051C314.563 509.506 316.199 514.78 318.744 519.598C321.289 524.417 324.561 528.872 328.56 532.69C332.286 536.236 337.376 538.055 342.466 537.6L358.462 536.327L474.253 325.669H523.878L462.892 430.862C459.529 436.681 459.438 443.772 462.529 449.682L462.892 450.318C467.527 459.047 474.889 465.865 483.615 470.048C486.977 471.684 490.522 472.866 494.248 473.684C509.881 477.139 524.151 484.504 536.148 494.868C558.961 514.689 573.685 545.237 573.685 579.513Z" fill="#929AA9"/>
<path opacity="0.1" d="M272.209 410.678L301.839 420.315L313.654 504.051L282.116 494.778L272.209 410.678Z" fill="white"/>
<path opacity="0.15" d="M270.119 385.221L298.203 394.858L291.841 343.489H265.847L270.119 385.221Z" fill="white"/>
<path opacity="0.1" d="M403.542 454.228L474.98 516.598L454.076 552.329L373.822 508.233L403.542 454.228Z" fill="white"/>
<path d="M411.45 439.863L358.371 536.327L375.276 528.054L423.72 439.863H411.45Z" fill="white"/>
<path opacity="0.2" d="M536.057 494.959L521.697 531.69L464.71 513.234C484.614 493.686 483.615 470.684 483.615 470.048C486.977 471.684 490.522 472.866 494.249 473.684C509.79 477.23 524.06 484.595 536.057 494.959Z" fill="white"/>
<path d="M478.707 359.582C477.071 363.128 473.981 365.219 471.981 364.219C469.891 363.219 469.618 359.582 471.254 356.036C472.89 352.49 475.98 350.399 477.98 351.399C479.979 352.399 480.434 356.036 478.707 359.582Z" fill="#1F152E"/>
<path d="M460.438 398.313C458.802 401.859 455.712 403.95 453.713 402.95C451.622 401.95 451.349 398.313 452.985 394.767C454.621 391.222 457.712 389.13 459.711 390.131C461.802 391.131 462.074 394.767 460.438 398.313Z" fill="#1F152E"/>
<path d="M442.079 437.044C440.443 440.59 437.353 442.681 435.353 441.681C433.263 440.681 432.99 437.044 434.626 433.499C436.262 429.953 439.352 427.862 441.352 428.862C443.351 429.862 443.715 433.499 442.079 437.044Z" fill="#1F152E"/>
<path d="M483.069 665.613C522.021 665.613 553.598 628.49 553.598 582.695C553.598 536.901 522.021 499.778 483.069 499.778C444.117 499.778 412.54 536.901 412.54 582.695C412.54 628.49 444.117 665.613 483.069 665.613Z" fill="#1F152E"/>
<path d="M483.069 499.778C474.253 499.778 465.71 501.687 457.893 505.233C463.074 503.778 468.527 502.96 474.162 502.96C513.153 502.96 544.691 540.055 544.691 585.878C544.691 621.245 525.787 651.43 499.247 663.34C530.331 654.703 553.507 621.881 553.507 582.605C553.598 536.964 522.06 499.778 483.069 499.778Z" fill="#1F152E"/>
<path d="M477.707 675.887L345.919 692.798C306.02 697.889 269.483 669.704 264.302 629.791C259.212 589.878 287.388 553.329 327.287 548.147L458.984 531.236C498.884 526.144 535.421 554.329 540.601 594.242C545.782 634.155 517.607 670.704 477.707 675.887Z" fill="#1F152E"/>
<path d="M550.145 713.891L500.974 721.619C489.977 697.98 457.984 685.888 457.984 685.888C457.984 685.888 400.452 691.525 357.371 698.98C356.917 699.071 356.371 699.162 355.917 699.253C343.92 701.617 333.74 707.072 325.288 713.709C303.929 730.347 293.477 754.258 293.477 754.258L232.491 763.896L287.842 667.704L509.609 659.431C523.787 673.068 550.145 713.891 550.145 713.891Z" fill="#A0A9B9"/>
<path opacity="0.2" d="M355.826 699.344C343.829 701.708 333.65 707.163 325.197 713.8C301.203 701.162 299.385 680.978 299.385 680.978L354.19 687.342C354.19 687.433 354.917 692.707 355.826 699.344Z" fill="#1F152E"/>
<path d="M489.068 682.16L357.371 699.071C317.472 704.162 280.935 675.978 275.754 636.064C270.664 596.151 298.84 559.602 338.739 554.42L470.436 537.509C510.336 532.418 546.873 560.602 552.053 600.515C557.234 640.52 528.968 677.069 489.068 682.16Z" fill="#A0A9B9"/>
<path opacity="0.15" d="M330.105 626.791C327.742 608.062 334.922 590.424 347.919 578.695C329.014 587.605 317.108 607.971 319.926 629.791C323.198 655.066 344.92 673.341 369.732 672.977C349.191 667.068 333.013 649.43 330.105 626.791Z" fill="white"/>
<path d="M500.896 616.112C503.095 591.809 489.032 570.672 469.486 568.903C449.94 567.133 432.312 585.4 430.113 609.703C427.914 634.007 441.976 655.143 461.522 656.913C481.068 658.683 498.696 640.416 500.896 616.112Z" fill="#929AA9"/>
<path d="M472.254 667.886L370.005 680.978C339.012 684.979 310.655 663.067 306.656 632.064C302.657 601.061 324.561 572.695 355.554 568.694L457.803 555.602C488.795 551.601 517.152 573.513 521.151 604.516C525.151 635.519 503.246 663.886 472.254 667.886Z" stroke="white" stroke-miterlimit="10" stroke-linecap="round" stroke-linejoin="round"/>
<path d="M295.022 239.388L305.838 279.756L341.284 323.033C348.373 331.67 342.011 344.58 330.832 344.217L227.22 340.762C215.95 340.398 205.407 335.216 198.317 326.579L155.964 274.937L157.236 231.933" stroke="#322744" stroke-width="7" stroke-miterlimit="10" stroke-linecap="round" stroke-linejoin="round"/>
<path d="M481.799 612.668C482.686 602.867 477.042 594.345 469.194 593.634C461.345 592.924 454.264 600.293 453.377 610.095C452.49 619.896 458.134 628.418 465.982 629.128C473.831 629.839 480.912 622.469 481.799 612.668Z" fill="#1F152E"/>
<path d="M491.704 667.704L529.877 667.977L625.127 621.518L622.673 612.244L578.502 616.699L489.522 659.521L491.704 667.704Z" fill="#1F152E"/>
<path d="M469.891 612.244L564.05 637.246" stroke="#1F152E" stroke-width="7" stroke-miterlimit="10" stroke-linecap="round" stroke-linejoin="round"/>
<path d="M557.325 562.875C552.417 576.968 527.423 574.149 527.423 574.149C507.518 538.691 430.9 441.863 422.447 434.953C414.085 428.043 403.27 417.588 403.088 401.95C402.815 382.493 410.995 363.309 419.63 348.49C429.445 331.761 439.898 320.578 439.898 320.578L516.425 350.308C502.065 381.129 484.16 409.769 484.16 409.769C514.789 421.406 533.149 458.046 539.329 483.14C540.783 489.14 542.419 496.596 544.055 504.415C545.691 512.597 547.782 521.78 549.69 530.417C553.689 547.783 557.325 562.875 557.325 562.875Z" fill="#E5907D"/>
<path d="M549.781 530.417C549.781 530.508 549.69 530.599 549.69 530.599C518.97 437.226 470.8 415.497 473.344 410.951C484.433 391.676 482.615 358.764 482.615 358.764C452.077 344.853 422.447 348.217 419.63 348.581C429.446 331.852 439.898 320.669 439.898 320.669L516.425 350.399C502.065 381.22 484.16 409.86 484.16 409.86C514.789 421.497 533.149 458.137 539.329 483.231C540.783 489.231 542.419 496.687 544.055 504.506C545.782 512.688 547.782 521.78 549.781 530.417Z" fill="#D16265"/>
<path d="M418.357 425.407C418.357 425.407 426.537 432.498 431.536 431.135C436.535 429.771 439.807 422.679 442.624 418.77" stroke="#D16265" stroke-miterlimit="10" stroke-linecap="round" stroke-linejoin="round"/>
<path d="M499.429 458.319C499.429 458.319 516.334 476.412 517.698 482.776C519.061 489.14 525.787 513.779 525.787 513.779" stroke="#D16265" stroke-miterlimit="10" stroke-linecap="round" stroke-linejoin="round"/>
<path opacity="0.2" d="M449.441 454.319C451.804 455.41 482.524 479.776 494.158 496.232C505.791 512.688 525.15 557.602 523.333 558.147C521.515 558.693 487.705 505.233 473.072 486.777C459.348 469.502 445.351 452.318 449.441 454.319Z" fill="white"/>
<path d="M494.885 636.246C494.885 636.246 479.343 651.975 477.252 654.703C476.071 656.976 478.343 659.885 481.433 661.703C483.978 663.158 519.424 657.703 527.423 655.43C535.421 653.157 567.868 630.609 572.503 625.518C577.138 620.426 578.411 611.789 580.319 609.789C582.319 607.789 590.499 606.425 592.407 605.334C594.316 604.243 597.043 601.788 597.043 600.515C597.043 599.243 590.499 590.151 586.318 588.969C582.046 587.878 564.778 593.606 564.778 593.606L494.885 636.246Z" fill="white"/>
<path d="M584.137 592.333C573.139 603.334 538.784 633.882 529.331 637.792C515.698 643.429 489.795 642.792 489.795 642.792C494.976 636.428 499.611 629.064 503.61 621.699C515.516 599.788 522.424 576.967 522.515 576.422C522.515 576.422 506.337 556.874 511.608 554.238C516.97 551.601 541.692 543.691 542.51 546.783C543.237 549.783 544.6 566.966 544.6 566.966C551.508 568.967 557.234 562.966 557.234 562.966C582.773 572.422 584.137 592.333 584.137 592.333Z" fill="#1F152E"/>
<path opacity="0.05" d="M548.963 575.967C541.237 590.969 533.058 620.335 533.058 620.335C520.333 617.244 503.61 621.699 503.61 621.699C515.516 599.788 522.424 576.967 522.515 576.422C531.967 572.785 548.963 575.967 548.963 575.967Z" fill="white"/>
<path d="M519.243 586.332C519.243 586.332 548.872 580.695 558.961 586.059L554.416 598.151C554.416 598.151 530.695 595.788 514.062 599.697L519.243 586.332Z" fill="#B7194A"/>
<path d="M499.702 628.427C499.702 628.427 526.059 620.608 536.511 626.609C536.511 626.609 561.596 605.698 568.867 597.515C568.867 597.515 560.96 583.059 571.23 570.694" stroke="white" stroke-miterlimit="10"/>
<path opacity="0.05" d="M518.152 559.693L534.785 554.693L537.057 562.057L521.242 567.057L518.152 559.693Z" fill="white"/>
<path d="M526.059 362.128C526.059 362.128 473.253 330.761 424.356 340.944C419.084 347.853 412.359 362.582 412.359 362.582C412.359 362.582 387.637 346.762 345.192 345.671C345.192 345.671 345.192 345.671 345.192 345.58C345.192 345.49 345.283 345.399 345.283 345.308C345.283 345.308 345.283 345.217 345.374 345.126C345.465 344.944 345.465 344.762 345.556 344.58C345.556 344.58 345.556 344.58 345.556 344.489C345.647 344.217 345.829 343.853 345.92 343.489C346.101 342.944 346.374 342.216 346.737 341.398C348.283 337.398 351.009 330.67 354.736 322.578V322.487C364.188 301.94 380.002 272.209 399.725 253.662L523.424 212.749C523.424 212.749 540.783 229.569 548.418 245.298C556.325 261.572 540.783 332.215 526.059 362.128Z" fill="#1F152E"/>
<path opacity="0.05" d="M445.805 295.848C431.445 310.941 424.356 340.944 424.356 340.944C419.084 347.853 412.359 362.582 412.359 362.582C412.359 362.582 387.637 346.762 345.192 345.671C345.192 345.671 345.192 345.671 345.192 345.58C345.192 345.49 345.283 345.399 345.283 345.308C345.283 345.308 345.283 345.217 345.374 345.126C345.465 344.944 345.465 344.762 345.556 344.58C345.556 344.58 345.556 344.58 345.556 344.489C345.647 344.217 345.829 343.853 345.92 343.489C346.101 342.944 346.374 342.216 346.737 341.398C348.919 335.579 352.918 325.488 354.736 322.578V322.487C408.541 327.579 443.17 298.485 445.805 295.848Z" fill="white"/>
<path d="M492.067 227.932C492.067 227.932 524.514 261.936 526.877 265.845C529.241 269.755 516.516 318.578 513.88 326.124C513.88 326.124 519.879 331.579 526.605 337.398C526.605 337.398 542.328 269.118 542.328 260.663C542.328 252.207 528.786 228.569 517.607 218.84L492.067 227.932Z" fill="#B7194A"/>
<path d="M399.907 253.753C393.181 264.936 372.822 312.122 370.277 319.76C370.277 319.76 363.734 320.032 356.008 320.305C365.551 299.394 380.911 271.027 399.907 253.753Z" fill="#B7194A"/>
<path opacity="0.1" d="M443.26 329.397C442.352 329.488 479.07 323.305 523.06 348.581C523.06 348.581 484.705 310.031 443.26 329.397Z" fill="white"/>
<path d="M404.36 118.194C404.36 118.194 442.988 164.471 463.801 184.2C463.801 184.2 475.798 195.565 488.614 198.747C488.614 198.747 490.34 253.298 443.715 253.298C397.089 253.298 389.091 140.469 404.36 118.194Z" fill="#D16265"/>
<path d="M510.972 222.477C510.972 222.477 521.151 229.023 525.059 234.66C525.059 234.66 525.787 256.299 498.429 269.936C488.341 274.937 446.078 293.848 393.635 284.211C393.635 284.211 393.635 284.029 393.545 283.574C393.545 283.483 393.545 283.392 393.545 283.301C393.545 283.12 393.454 282.938 393.454 282.665C393.454 282.483 393.363 282.301 393.363 282.119C391.727 274.391 383.729 246.298 350.009 221.022C333.649 208.748 326.833 175.927 326.924 162.38C327.015 146.287 331.377 124.194 331.377 124.194L390.545 117.375C390.545 117.375 398.362 116.648 404.542 118.103C404.542 118.103 411.995 222.841 460.802 215.567C461.892 215.385 462.983 215.204 464.074 214.931C473.162 212.749 473.072 201.748 469.254 184.564C468.164 179.564 466.709 173.927 465.164 167.926C465.164 167.926 496.248 182.018 519.697 196.656C519.697 196.656 532.24 211.749 529.058 222.477C528.877 222.477 518.697 221.75 510.972 222.477Z" fill="white"/>
<path d="M510.972 222.477C510.972 222.477 521.151 229.023 525.059 234.66C525.059 234.66 525.786 256.299 498.429 269.936C488.341 274.937 446.078 293.848 393.635 284.211C393.635 284.211 393.635 284.029 393.544 283.574C393.544 283.483 393.544 283.392 393.544 283.301C393.544 283.12 393.454 282.938 393.454 282.665C393.454 282.483 393.363 282.301 393.363 282.119C391.818 274.119 385.365 244.752 370.186 230.842C370.186 230.842 436.444 242.115 460.892 215.658C467.527 208.476 471.072 198.384 469.345 184.655C468.709 179.655 467.436 174.108 465.255 168.017C465.255 168.017 496.339 182.109 519.788 196.747C519.788 196.747 532.33 211.84 529.149 222.568C528.877 222.477 518.697 221.75 510.972 222.477Z" fill="#B9D8FB"/>
<path d="M369.46 63.9155C370.641 58.0058 358.008 52.4598 358.008 52.4598C358.008 52.4598 359.007 47.823 364.552 47.6412C364.552 47.6412 359.462 41.8224 351.645 47.823C351.645 47.823 353.191 42.5497 349.828 40.2768C349.828 40.2768 350.282 43.368 347.737 44.5499C344.374 42.0042 339.285 38.7312 334.468 38.0038C326.379 36.9128 306.656 41.6405 299.294 46.3683C299.294 46.3683 305.202 51.7325 306.747 55.2783C306.747 55.2783 289.296 53.5508 289.478 43.9135C289.478 43.9135 280.389 46.9138 283.57 55.0964C286.842 63.2791 306.565 59.9151 306.565 59.9151C306.565 59.9151 301.657 62.3699 298.749 68.8251C295.84 75.3712 305.202 82.1901 305.202 82.1901C305.202 82.1901 306.383 77.7351 307.292 76.5532C307.292 76.5532 310.11 90.9183 328.833 95.8279C347.556 100.737 370.641 106.647 370.641 106.647C370.641 106.647 366.46 78.7352 369.46 63.9155Z" fill="#1F152E"/>
<path opacity="0.1" d="M366.279 81.5536C366.279 81.5536 364.461 69.1887 365.188 64.6428C365.188 64.6428 361.371 68.7341 361.643 71.7345C361.643 71.7345 359.553 70.007 359.189 65.3702C359.189 65.3702 354.009 75.6439 361.007 84.1903C361.007 84.1903 361.007 80.008 361.734 77.1896C361.825 77.1896 364.006 80.3717 366.279 81.5536Z" fill="white"/>
<path opacity="0.1" d="M314.836 56.9148C314.836 56.9148 333.922 57.6421 339.739 49.4595C339.739 49.4595 341.648 66.1884 330.65 69.0069C319.562 71.8254 313.563 67.7341 313.563 67.7341C313.563 67.7341 330.56 66.0066 332.377 58.6422C332.377 58.5513 320.562 63.4609 314.836 56.9148Z" fill="white"/>
<path opacity="0.1" d="M315.836 44.0953C315.836 44.0953 327.378 49.8232 336.74 46.5501C336.74 46.5501 324.016 58.0968 315.836 44.0953Z" fill="white"/>
<path d="M390.364 117.376C390.364 117.376 389.819 123.194 388.364 131.195C387.274 137.105 385.547 144.287 383.184 151.288C380.821 158.107 377.73 164.926 373.822 170.199C369.823 175.563 365.006 179.564 359.098 180.836C358.28 181.018 357.372 181.2 356.463 181.2C353.827 181.382 346.101 170.199 340.739 154.47C336.467 142.105 333.65 126.922 335.74 112.375L363.825 93.9186C363.825 93.9186 367.46 102.919 372.095 107.647C376.549 112.557 383.184 116.194 390.364 117.376Z" fill="#E5907D"/>
<path d="M334.559 127.104C334.559 127.104 350.646 149.197 353.554 154.925C356.463 160.653 367.096 140.469 379.457 132.195C379.457 132.195 378.003 128.013 372.55 130.741C367.096 133.468 361.371 145.56 361.371 145.56C361.371 145.56 366.188 122.376 366.733 115.193C367.369 108.011 362.189 110.466 357.462 91.6456L335.467 112.284L334.559 127.104Z" fill="#D16265"/>
<path opacity="0.2" d="M388.364 131.286C387.273 137.196 385.547 144.378 383.184 151.379C380.82 158.198 377.73 165.017 373.822 170.29C369.823 175.654 365.006 179.655 359.098 180.927C358.826 180.836 358.644 180.836 358.644 180.836C358.644 180.836 368.641 142.651 388.364 131.286Z" fill="white"/>
<path opacity="0.2" d="M356.372 181.382C353.736 181.564 346.01 170.381 340.648 154.652C340.557 154.561 356.463 161.835 356.372 181.382Z" fill="white"/>
<path d="M340.921 152.288C340.921 152.288 349.191 156.47 352.373 159.562C352.373 159.562 350.918 154.379 346.647 152.288C342.375 150.197 340.921 152.288 340.921 152.288Z" fill="#D16265"/>
<path d="M313.745 74.3712C312.473 83.463 320.834 127.013 323.379 128.74C325.197 129.922 329.469 129.104 334.649 127.104C346.828 122.467 363.734 111.83 363.643 107.829C363.552 102.101 359.734 85.1904 359.734 85.1904L353.372 85.645C352.282 74.553 348.192 62.1881 348.192 62.1881C348.192 62.1881 346.01 72.8256 339.921 74.6439C339.921 74.6439 341.102 69.3707 340.921 66.6431C340.921 66.6431 332.014 77.0987 313.745 74.3712Z" fill="#E5907D"/>
<path d="M359.644 85.1905C359.644 85.1905 362.007 78.0989 367.551 77.7352C371.641 77.4624 374.549 93.1913 367.642 95.4643C361.825 97.2826 358.462 90.8274 358.462 90.8274L359.644 85.1905Z" fill="#E5907D"/>
<path d="M323.288 128.74C325.106 129.922 329.378 129.104 334.558 127.104C332.65 118.194 329.741 103.374 329.741 103.374C326.833 103.283 322.47 103.92 322.47 103.92C321.289 94.0096 325.197 74.2803 325.197 74.2803C318.926 75.3713 313.654 74.2803 313.654 74.2803C312.473 83.463 320.834 127.013 323.288 128.74Z" fill="#D16265"/>
<path d="M341.284 92.8276C340.375 91.6457 333.65 93.0094 333.013 93.7368C332.286 94.4641 336.376 96.0097 337.649 95.6461C339.012 95.3733 341.284 92.8276 341.284 92.8276Z" fill="#D16265"/>
<path d="M334.013 88.5544C334.286 89.9181 333.831 91.191 332.922 91.3728C332.014 91.5547 331.105 90.5546 330.741 89.1908C330.469 87.827 330.923 86.5542 331.832 86.3723C332.741 86.1905 333.65 87.1906 334.013 88.5544Z" fill="#1F152E"/>
<path d="M331.559 88.4635C331.65 88.7363 331.377 89.0999 330.923 89.1908C330.559 89.2818 330.196 89.0999 330.105 88.8272C330.014 88.5544 330.287 88.1907 330.741 88.0998C331.196 88.0089 331.468 88.1907 331.559 88.4635Z" fill="white"/>
<path d="M319.108 92.6458C319.38 94.0096 318.926 95.2824 318.017 95.4643C317.108 95.6461 316.199 94.646 315.836 93.2822C315.563 91.9184 316.017 90.6456 316.926 90.4638C317.926 90.2819 318.835 91.282 319.108 92.6458Z" fill="#1F152E"/>
<path d="M316.745 92.5549C316.835 92.8277 316.563 93.1914 316.108 93.2823C315.745 93.3732 315.381 93.1914 315.29 92.9186C315.199 92.6458 315.472 92.2822 315.927 92.1913C316.29 92.1003 316.654 92.2822 316.745 92.5549Z" fill="white"/>
<path d="M326.015 85.7359C326.015 85.7359 325.288 83.463 325.924 82.1901C326.288 81.4628 332.286 78.5534 333.65 78.6443C336.194 78.7352 337.012 82.3719 337.012 82.3719C337.012 82.3719 327.924 85.0086 326.015 85.7359Z" fill="#1F152E"/>
<path d="M310.11 89.6455C310.11 89.6455 309.383 87.3725 310.019 86.0997C310.382 85.3723 316.381 82.4629 317.744 82.5538C320.289 82.6448 321.107 86.2815 321.107 86.2815C321.107 86.2815 312.018 88.8272 310.11 89.6455Z" fill="#1F152E"/>
<path d="M335.558 112.466C335.558 112.466 341.012 109.829 343.102 107.011C343.102 107.011 343.647 111.92 335.558 112.466Z" fill="#1F152E"/>
<path d="M342.284 106.374C342.284 106.374 342.375 108.647 344.556 107.374C344.465 107.465 343.465 107.102 342.284 106.374Z" fill="#1F152E"/>
<path opacity="0.2" d="M359.553 95.3733C359.28 94.7369 350.646 96.2825 349.282 97.7372C348.01 99.1919 348.555 113.648 350.282 114.83C352.1 116.103 363.097 104.738 359.553 95.3733Z" fill="white"/>
<path d="M363.097 89.1908C362.189 88.1907 364.097 83.8266 365.46 83.1902C366.824 82.5538 364.37 87.0997 363.643 88.1907C363.643 88.1907 366.642 86.1905 367.551 87.9179C368.278 89.3726 366.915 90.4636 366.46 90.5546C366.006 90.6455 367.006 88.0998 366.006 88.2816C364.915 88.3725 363.37 89.5545 363.097 89.1908Z" fill="#D16265"/>
<path d="M498.43 242.57C495.158 255.753 467.982 283.756 451.259 292.848C434.535 301.94 384.183 326.306 384.183 326.306L382.911 324.397L371.005 305.758C388.273 293.575 399.907 266.845 410.904 260.208C420.266 254.571 434.626 252.389 438.807 251.844C439.443 251.753 439.898 251.753 439.989 251.753C439.261 251.571 421.902 246.661 417.085 230.842C413.995 220.841 420.902 199.566 420.902 199.566C417.085 196.293 414.176 191.292 411.904 185.382C411.359 183.928 410.814 182.382 410.268 180.746C405.36 165.108 404.361 145.015 404.179 131.922C404.088 123.74 404.451 118.285 404.451 118.285C426.083 110.648 445.805 113.284 456.167 120.376C456.258 120.467 456.439 120.467 456.53 120.558C464.437 125.285 478.343 158.743 473.435 176.745C474.162 182.473 500.974 232.569 498.43 242.57Z" fill="#E5907D"/>
<path d="M420.902 199.475C417.085 196.202 414.176 191.201 411.904 185.292C414.358 185.11 418.539 181.109 419.993 179.745C424.629 190.383 419.993 192.292 420.902 199.475Z" fill="#D16265"/>
<path opacity="0.2" d="M439.989 251.662C439.261 251.48 421.902 246.57 417.085 230.751C413.995 220.75 420.902 199.475 420.902 199.475C425.537 197.202 435.808 204.293 440.534 213.294C445.351 222.204 449.804 250.025 439.989 251.662Z" fill="white"/>
<path d="M439.989 251.662C439.989 251.662 444.169 250.844 447.169 250.844C450.259 250.844 451.986 254.389 451.986 254.389" stroke="#D16265" stroke-miterlimit="10" stroke-linecap="round" stroke-linejoin="round"/>
<path opacity="0.2" d="M410.268 180.655C405.36 165.017 404.36 144.924 404.179 131.832C406.633 132.923 408.814 134.65 410.359 137.287C415.085 145.378 420.357 171.563 410.268 180.655Z" fill="white"/>
<path opacity="0.2" d="M473.435 176.745C458.53 192.747 431.99 150.561 433.445 135.196C434.899 119.83 444.987 114.284 456.076 120.285C456.167 120.376 456.348 120.376 456.439 120.467C464.346 125.285 478.343 158.652 473.435 176.745Z" fill="white"/>
<path d="M456.621 181.109C456.621 181.109 462.165 182.291 465.71 182.018C469.255 181.655 472.981 178.836 473.435 176.654" stroke="#D16265" stroke-miterlimit="10" stroke-linecap="round" stroke-linejoin="round"/>
<path opacity="0.2" d="M383.184 300.212C383.184 300.212 398.453 274.391 408.723 266.209C419.084 258.026 441.806 253.117 448.714 255.662C455.53 258.026 381.275 309.577 383.184 300.212Z" fill="white"/>
<path d="M400.452 306.486C400.452 306.486 435.081 293.302 449.895 281.21" stroke="#D16265" stroke-miterlimit="10" stroke-linecap="round" stroke-linejoin="round"/>
<path opacity="0.2" d="M471.527 185.019C467.891 184.11 475.071 215.749 477.344 219.75C479.525 223.75 488.523 236.388 491.522 240.661C491.522 240.661 470.436 264.481 470.8 270.573C470.981 272.846 495.976 245.116 495.794 239.57C495.612 234.115 475.526 186.11 471.527 185.019Z" fill="white"/>
<path d="M370.914 305.667C370.914 305.667 349.191 311.122 346.01 313.123C342.829 315.123 341.375 319.487 337.83 324.124C334.286 328.852 330.559 326.851 331.741 329.852C332.923 332.852 339.466 331.397 339.466 331.397C339.466 331.397 340.375 333.67 341.284 334.852C342.193 336.125 342.829 335.398 343.829 336.216C345.102 337.307 348.283 337.489 348.283 337.489C349.373 339.216 354.009 339.125 354.009 339.125C354.009 339.125 356.099 341.58 357.281 341.489C357.917 341.398 361.734 340.671 365.824 339.58C370.277 338.489 374.913 337.034 375.913 335.761C377.821 333.397 384.183 326.033 384.183 326.033L370.914 305.667Z" fill="#E5907D"/>
<path d="M295.022 239.388L305.838 279.756L341.284 323.033C343.556 325.76 344.465 329.033 344.193 332.034" stroke="#322744" stroke-width="7" stroke-miterlimit="10" stroke-linecap="round" stroke-linejoin="round"/>
<path d="M365.733 339.853C361.643 340.853 357.826 341.671 357.19 341.762C355.917 341.853 353.918 339.398 353.918 339.398C353.918 339.398 349.282 339.489 348.192 337.762C348.192 337.762 345.011 337.489 343.738 336.489C342.738 335.67 342.102 336.398 341.193 335.125C340.375 333.943 339.375 331.67 339.375 331.67C339.375 331.67 348.737 325.033 350.191 323.306C350.191 323.306 350.736 325.397 352.918 327.579C354.099 328.761 354.826 329.124 354.826 329.124C354.826 329.124 357.008 333.307 360.28 334.216C360.371 334.125 362.097 339.58 365.733 339.853Z" fill="#D16265"/>
<path d="M345.283 336.216C345.283 336.216 353.918 330.306 360.825 323.942" stroke="#D16265" stroke-miterlimit="10" stroke-linecap="round" stroke-linejoin="round"/>
<path d="M353.827 338.671C353.827 338.671 362.461 332.761 369.369 326.397" stroke="#D16265" stroke-miterlimit="10" stroke-linecap="round" stroke-linejoin="round"/>
<path d="M222.13 334.852C221.857 336.034 215.768 342.489 213.223 343.126C210.587 343.762 203.316 343.398 202.68 343.126C202.044 342.853 201.317 340.853 200.862 340.671C200.408 340.489 196.772 340.398 195.227 339.125C193.046 337.398 191.319 337.125 189.592 335.852C187.411 334.216 186.956 328.488 187.593 326.397C188.138 324.396 189.229 321.851 189.229 321.851L192.864 326.215C192.864 326.215 196.772 319.76 203.134 316.123C207.77 313.395 210.951 318.578 210.315 320.123C210.496 319.942 212.132 318.305 214.586 319.305C216.677 320.123 217.404 322.396 217.404 322.396C217.404 322.396 219.04 322.033 219.858 323.76C220.312 324.76 221.221 328.67 220.767 328.67C220.676 328.761 223.221 330.124 222.13 334.852Z" fill="#E5907D"/>
<path d="M192.864 326.306C192.864 326.306 190.138 327.851 187.593 326.488C188.138 324.487 189.229 321.942 189.229 321.942L192.864 326.306Z" fill="#D16265"/>
<path d="M210.315 320.123C210.315 320.123 206.588 324.942 202.498 328.306" stroke="#D16265" stroke-miterlimit="10" stroke-linecap="round" stroke-linejoin="round"/>
<path d="M217.404 322.487C217.404 322.487 213.768 329.306 210.315 332.034" stroke="#D16265" stroke-miterlimit="10" stroke-linecap="round" stroke-linejoin="round"/>
<path d="M220.676 328.761C220.676 328.761 218.676 332.852 215.859 335.307" stroke="#D16265" stroke-miterlimit="10" stroke-linecap="round" stroke-linejoin="round"/>
<path d="M255.398 190.728C259.523 172.51 248.103 154.397 229.892 150.27C211.68 146.144 193.573 157.568 189.448 175.786C185.323 194.003 196.743 212.117 214.954 216.243C233.166 220.369 251.273 208.946 255.398 190.728Z" fill="white"/>
<path d="M234.672 186.564V191.019L222.039 198.384V168.017H234.672V177.473L237.763 174.381V166.381C237.763 165.562 237.035 164.835 236.217 164.835H207.951C207.133 164.835 206.406 165.562 206.406 166.381V191.838C206.406 192.383 206.679 192.929 207.133 193.201L221.312 201.475C221.585 201.657 221.857 201.657 222.13 201.657C222.403 201.657 222.675 201.566 222.948 201.475L237.126 193.201C237.581 192.929 237.853 192.383 237.853 191.838V183.382L234.672 186.564Z" fill="#5393F7"/>
<path d="M231.037 186.928L226.311 182.2C225.765 181.655 225.765 180.927 226.311 180.382C226.856 179.836 227.583 179.836 228.128 180.382L231.037 183.291L238.762 175.563C239.308 175.018 240.035 175.018 240.58 175.563C241.125 176.109 241.125 176.836 240.58 177.382L231.037 186.928Z" fill="black"/>
<path d="M37.8093 121.831H96.432L101.522 107.738L115.337 150.288L124.789 75.0076L141.149 171.108L155.509 103.01L165.87 121.376H223.857C223.857 66.0976 268.665 21.2749 323.925 21.2749C371.368 21.2749 411.086 54.2782 421.447 98.6464" stroke="#DC3B56" stroke-miterlimit="10" stroke-linecap="round" stroke-linejoin="round"/>
<path d="M518.877 456.361C552.703 422.524 552.703 367.664 518.877 333.827C485.052 299.991 430.21 299.991 396.384 333.827C362.559 367.664 362.559 422.524 396.385 456.361C430.21 490.198 485.052 490.198 518.877 456.361Z" stroke="white" stroke-linecap="round" stroke-linejoin="round" stroke-dasharray="11.97 11.97"/>
<path d="M544.146 395.131H549.6" stroke="white" stroke-linecap="round" stroke-linejoin="round"/>
<path d="M563.687 395.131H584.682" stroke="white" stroke-linecap="round" stroke-linejoin="round" stroke-dasharray="15.41 15.41"/>
<path d="M591.681 395.131H597.134L599.77 390.312" stroke="white" stroke-linecap="round" stroke-linejoin="round"/>
<path d="M605.041 380.675L655.575 289.12" stroke="white" stroke-linecap="round" stroke-linejoin="round" stroke-dasharray="12.11 12.11"/>
<path d="M658.211 284.302L660.846 279.483" stroke="white" stroke-linecap="round" stroke-linejoin="round"/>
<path d="M677.294 286.501C698.475 277.429 708.293 252.899 699.225 231.712C690.156 210.524 665.635 200.702 644.454 209.773C623.273 218.845 613.455 243.375 622.523 264.563C631.592 285.75 656.113 295.572 677.294 286.501Z" fill="white"/>
<path d="M666.118 251.298L662.846 257.117C662.573 257.572 662.119 257.844 661.574 257.844C661.483 257.844 661.483 257.844 661.392 257.844C660.846 257.753 660.301 257.39 660.119 256.753L656.756 244.843L653.848 250.571C653.575 251.025 653.121 251.389 652.576 251.389H645.85C648.94 255.299 653.484 259.572 658.574 264.663C659.847 265.936 661.846 265.936 663.119 264.663C668.027 259.754 672.753 255.299 675.934 251.207H666.118V251.298Z" fill="#B7194A"/>
<path d="M651.667 248.571L655.847 240.297C656.12 239.752 656.665 239.479 657.302 239.479C657.938 239.57 658.392 239.933 658.574 240.57L662.028 252.662L664.027 249.116C664.3 248.662 664.754 248.389 665.3 248.389H678.024C679.206 246.57 679.842 244.843 680.024 243.206V241.024C679.478 234.478 675.116 231.023 671.389 230.66C670.753 230.569 670.208 230.569 669.662 230.569C665.3 230.569 663.3 232.478 660.846 235.297C658.483 232.478 656.393 230.569 652.03 230.569C651.485 230.569 650.94 230.569 650.303 230.66C646.577 231.023 642.214 234.478 641.669 241.024V243.206C641.76 244.934 642.578 246.661 643.759 248.571H651.667Z" fill="#B7194A"/>
</g>
<defs>
<clipPath id="clip0_85_457">
<rect width="781" height="896" fill="white"/>
</clipPath>
</defs>
</svg>
