<svg width="36" height="36" viewBox="0 0 36 36" fill="none" xmlns="http://www.w3.org/2000/svg">
<path d="M35.9884 17.8327C35.9884 26.839 29.3143 34.2848 20.6442 35.493C19.8335 35.6055 19.0041 35.6642 18.1622 35.6642C17.1903 35.6642 16.236 35.5867 15.3067 35.4368C6.81888 34.0699 0.335938 26.7078 0.335938 17.8327C0.335938 7.98424 8.31782 0 18.1634 0C28.009 0 35.9909 7.98424 35.9909 17.8327H35.9884Z" fill="#383D38"/>
<path d="M7.56599 7.86548L15.7877 18.861L7.51477 27.8011H9.37722L16.6209 19.9743L22.473 27.8011H28.8098L20.1259 16.1871L27.8267 7.86548H25.9643L19.294 15.0738L13.904 7.86548H7.56722H7.56599ZM10.3041 9.23742H13.2145L26.0692 26.4292H23.1588L10.3041 9.23742Z" fill="white"/>
</svg>
