<svg width="36" height="36" viewBox="0 0 36 36" fill="none" xmlns="http://www.w3.org/2000/svg">
<path d="M35.9998 17.7815C35.9998 7.96105 28.0411 0 18.2235 0C8.40597 0 0.447266 7.96105 0.447266 17.7815C0.447266 27.6019 8.40597 35.563 18.2235 35.563C28.0411 35.563 35.9998 27.6019 35.9998 17.7815Z" fill="#383D38"/>
<path d="M29.4169 14.0968C29.277 12.7461 28.976 11.253 27.868 10.4683C27.0098 9.85979 25.8819 9.83729 24.8289 9.83854C22.6029 9.83854 20.3758 9.8423 18.1498 9.84355C16.0088 9.84604 13.8678 9.84729 11.7268 9.84979C10.8325 9.84979 9.96307 9.78107 9.1324 10.1684C8.41915 10.5008 7.86079 11.133 7.52478 11.8365C7.05886 12.8148 6.96143 13.9231 6.90522 15.0052C6.80154 16.9756 6.81279 18.9511 6.93645 20.9203C7.02763 22.3572 7.25872 23.9453 8.36919 24.8612C9.3535 25.6721 10.7425 25.7121 12.0191 25.7133C16.0713 25.7171 20.1247 25.7208 24.1781 25.7233C24.6977 25.7246 25.2398 25.7146 25.7695 25.6571C26.8112 25.5446 27.8043 25.246 28.4738 24.4738C29.1496 23.6954 29.3232 22.6121 29.4256 21.5863C29.6755 19.0973 29.673 16.5845 29.4169 14.0968ZM15.8065 21.2701V14.2917L21.8472 17.7803L15.8065 21.2701Z" fill="white"/>
</svg>
